<svg width="50" height="50" viewBox="0 0 50 50" fill="none" xmlns="http://www.w3.org/2000/svg">
<g clip-path="url(#clip0_193_197)">
<path d="M21.5824 39.8403C19.5698 39.2567 17.6289 38.2954 15.9607 37.0666C14.8342 36.2366 13.8008 35.2718 12.8826 34.185C12.0152 33.1577 11.2244 31.9706 10.6125 30.7697C10.2806 30.1185 9.98917 29.4464 9.74046 28.759C9.23005 27.3502 8.90008 25.8777 8.75474 24.3866C8.46902 21.458 8.91267 18.491 10.0342 15.7928C10.1521 15.7703 10.191 15.7627 10.2375 15.749C10.78 15.5872 11.2972 15.316 11.7333 14.9654C12.8815 14.0415 13.5212 12.7147 13.5342 11.2293C13.546 9.90217 13.044 8.50752 12.1571 7.40316C11.9621 7.16055 11.6352 7.06747 11.3419 7.17085C10.0056 7.6412 8.84362 8.56092 8.15354 9.69503C7.38145 10.9638 7.22504 12.4286 7.71333 13.8191C7.89872 14.3471 8.19512 14.8502 8.57087 15.274C8.58956 15.295 8.60711 15.3129 8.63534 15.3393C8.40073 15.9138 8.19474 16.4985 8.01736 17.0925C7.48216 16.272 6.70625 15.638 5.75028 15.2569C4.51737 14.7659 3.03574 14.7293 1.68534 15.1565C1.38856 15.2504 1.18332 15.5216 1.17341 15.8325C1.12839 17.2481 1.56594 18.6645 2.37313 19.7178C3.27645 20.8969 4.58565 21.5729 6.05851 21.6209C6.1039 21.6221 6.1493 21.6228 6.19469 21.6228C6.54298 21.6228 6.89545 21.579 7.23801 21.4954C7.18995 22.2992 7.19224 23.1067 7.24488 23.9132C6.31448 23.1827 5.1674 22.8294 3.94402 22.9107C2.61956 22.9988 1.26687 23.6046 0.23232 24.572C0.00496423 24.7848 -0.0633189 25.1179 0.0618032 25.4024C0.631719 26.6994 1.63651 27.7889 2.81907 28.3916C3.52631 28.7521 4.27628 28.9329 5.02701 28.9329C5.68124 28.9329 6.33622 28.7956 6.9645 28.5202C7.30859 28.3695 7.63665 28.1689 7.93496 27.9312C8.1997 28.8704 8.53463 29.7851 8.93708 30.6698C8.07229 30.4592 7.16096 30.497 6.27061 30.7926C5.01061 31.2103 3.85323 32.1358 3.09487 33.332C2.92817 33.5949 2.94572 33.9344 3.13798 34.1785C4.01498 35.2909 5.26124 36.0935 6.55709 36.38C6.92139 36.4605 7.28494 36.5005 7.64352 36.5005C8.71163 36.5005 9.73512 36.1465 10.6022 35.4641C10.8925 35.236 11.1557 34.9647 11.3823 34.666C11.5067 34.8228 11.6329 34.9781 11.7622 35.1314C12.2406 35.6975 12.7476 36.2327 13.2805 36.7359C12.4851 36.869 11.7287 37.2055 11.0619 37.7369C10.0235 38.5635 9.25675 39.8319 8.95768 41.2163C8.89207 41.5207 9.02558 41.8331 9.2907 41.996C10.2799 42.6037 11.4296 42.9302 12.5362 42.9302C12.78 42.9302 13.0219 42.9142 13.2595 42.8821C14.7312 42.6826 15.9676 41.8815 16.7397 40.6265C16.935 40.3095 17.0895 39.9608 17.199 39.5992C18.4506 40.2912 19.7819 40.8455 21.1739 41.2495C21.2422 41.2689 21.3108 41.2784 21.3787 41.2784C21.6965 41.2784 21.9895 41.0702 22.0825 40.7493C22.1954 40.3602 21.9715 39.9532 21.5824 39.8403ZM8.92297 11.993C8.95387 11.5696 9.06297 11.1526 9.23997 10.767C9.65653 9.85907 10.4332 9.17318 11.3304 8.75662C12.6289 10.7376 12.0808 12.8032 10.8139 13.8225C10.5011 14.0743 9.98765 14.471 9.59779 14.2231C8.9512 13.8119 8.87414 12.669 8.92297 11.993ZM7.16973 26.2039C7.16363 26.2794 7.14913 26.3515 7.12701 26.4202C7.01409 26.7711 6.70701 27.0317 6.37551 27.177C4.88587 27.8293 2.80114 27.3613 1.64414 25.2945C1.57967 25.1789 2.89117 24.63 3.02392 24.5888C3.56179 24.4209 4.13438 24.3461 4.69666 24.3969C5.24674 24.4465 5.78767 24.6185 6.242 24.9378C6.633 25.2125 7.21093 25.6828 7.16973 26.2039ZM6.75546 20.1015C6.54908 20.1549 6.31791 20.1618 6.10581 20.1546C4.48075 20.1019 2.80076 18.7809 2.64741 16.4169C4.96484 15.9225 6.69175 17.1818 7.18346 18.7313C7.37534 19.3352 7.47453 19.9154 6.75546 20.1015ZM10.371 33.4732C10.3184 33.8077 9.9434 34.1164 9.69544 34.3113C8.41752 35.3168 6.28167 35.3874 4.64249 33.6769C5.25971 32.8842 6.11878 32.2758 7.11518 32.0827C7.97349 31.9168 10.1128 32.1995 10.3649 33.2893C10.3794 33.3511 10.3806 33.4125 10.371 33.4732ZM15.4907 39.8575C14.6385 41.2422 12.6583 42.0456 10.5297 41.0057C10.8715 39.9357 11.5967 39.0095 12.6267 38.5319C13.327 38.2072 14.9056 37.83 15.5834 38.3858C15.7475 38.5204 15.8253 38.673 15.8466 38.8336C15.8913 39.1739 15.6807 39.5492 15.4907 39.8575Z" fill="white"/>
<path d="M32.2647 34.8144C32.6164 34.5592 32.7892 34.1343 32.716 33.7055L31.5563 26.9455L36.4681 22.1576C36.7794 21.8544 36.8892 21.4092 36.755 20.9957C36.6207 20.5822 36.2701 20.2862 35.8398 20.224L29.0519 19.2375L26.0166 13.0871C25.8239 12.6972 25.4345 12.455 24.9996 12.455C24.5651 12.455 24.1752 12.6972 23.983 13.0871L22.7352 15.6151C22.5559 15.9782 22.705 16.418 23.0682 16.5973C23.4317 16.7766 23.8712 16.6275 24.0505 16.2643L24.9996 14.3406L27.8141 20.0435C27.9793 20.3781 28.2985 20.61 28.6678 20.6638L34.9613 21.5782L30.4069 26.0174C30.1399 26.2779 30.0182 26.6529 30.0812 27.0206L31.1561 33.2889L25.5272 30.3295C25.1968 30.1555 24.8024 30.1555 24.472 30.3295L18.843 33.2889L19.918 27.021C19.9814 26.6533 19.8593 26.2779 19.5919 26.0174L15.0379 21.5782L21.3314 20.6638C21.7006 20.61 22.0199 20.3781 22.1851 20.0435L22.5406 19.3233C22.7199 18.9598 22.5708 18.5203 22.2076 18.341C21.8445 18.1617 21.4046 18.3109 21.2253 18.6741L20.9472 19.2375L14.1597 20.2236C13.7294 20.2862 13.3789 20.5818 13.2446 20.9953C13.1099 21.4088 13.2202 21.854 13.5311 22.1576L18.4429 26.9451L17.2836 33.7055C17.21 34.1339 17.3828 34.5588 17.7345 34.8144C17.9332 34.9586 18.1656 35.0322 18.3998 35.0322C18.5802 35.0322 18.761 34.9888 18.9285 34.9006L24.9996 31.7089L31.0707 34.9006C31.4556 35.1032 31.913 35.07 32.2647 34.8144Z" fill="white"/>
<path d="M22.2724 10.0102C22.3259 10.3749 22.6394 10.6369 22.9969 10.6369C23.0323 10.6369 23.0686 10.6343 23.1044 10.6289C23.5054 10.5702 23.7823 10.1975 23.7236 9.79694L23.4352 7.83886C23.3764 7.43793 23.0033 7.16098 22.6028 7.22011C22.2023 7.27886 21.9253 7.65155 21.9841 8.0521L22.2724 10.0102Z" fill="white"/>
<path d="M18.9125 12.1632C19.0513 12.3875 19.2913 12.5107 19.5369 12.5107C19.6685 12.5107 19.802 12.4752 19.9222 12.4008C20.2663 12.1876 20.3727 11.7356 20.1599 11.3911L19.1692 9.79082C18.9559 9.44635 18.5039 9.33992 18.1594 9.55316C17.815 9.7664 17.7089 10.2181 17.9222 10.5625L18.9125 12.1632Z" fill="white"/>
<path d="M27.0088 10.6289C27.045 10.6343 27.0809 10.6369 27.1167 10.6369C27.4742 10.6369 27.7874 10.3749 27.8411 10.0102L28.1292 8.0521C28.1883 7.65155 27.9113 7.27886 27.5104 7.22011C27.1106 7.16098 26.7372 7.43793 26.678 7.83886L26.39 9.79694C26.3309 10.1975 26.6079 10.5702 27.0088 10.6289Z" fill="white"/>
<path d="M30.1915 12.4009C30.3116 12.4752 30.4447 12.5107 30.5767 12.5107C30.822 12.5107 31.062 12.3875 31.2008 12.1632L32.1915 10.5625C32.4047 10.2181 32.2983 9.76642 31.9542 9.55318C31.6101 9.33994 31.1577 9.44637 30.9445 9.79045L29.9538 11.3911C29.7406 11.7356 29.847 12.1876 30.1915 12.4009Z" fill="white"/>
<path d="M49.7676 24.572C48.7331 23.6042 47.3804 22.9988 46.0559 22.9107C44.8314 22.829 43.6847 23.1827 42.7547 23.9128C42.8077 23.1064 42.8096 22.2988 42.762 21.4954C43.1041 21.579 43.4566 21.6228 43.8049 21.6228C43.8507 21.6228 43.8961 21.6221 43.9415 21.6206C45.4143 21.5725 46.7231 20.8969 47.6268 19.7178C48.434 18.6642 48.8716 17.2481 48.8266 15.8321C48.8166 15.5212 48.6114 15.2504 48.3146 15.1565C46.9642 14.7289 45.4826 14.7655 44.2497 15.2569C43.2937 15.6376 42.5178 16.2716 41.9826 17.0921C41.8052 16.4986 41.5989 15.9134 41.3646 15.3393C41.3929 15.3126 41.4108 15.2946 41.4291 15.2737C41.8048 14.8498 42.1012 14.3467 42.2866 13.8187C42.7749 12.4283 42.6185 10.9638 41.8464 9.69466C41.1563 8.56093 39.994 7.64083 38.6581 7.17047C38.3648 7.0671 38.0378 7.16017 37.8429 7.40317C36.9556 8.50714 36.454 9.9018 36.4658 11.2289C36.4788 12.7144 37.1185 14.0415 38.2667 14.965C38.7027 15.316 39.22 15.5872 39.7621 15.749C39.809 15.7627 39.8479 15.7703 39.9658 15.7925C41.0873 18.491 41.531 21.458 41.2452 24.3862C40.9694 27.2118 40.0447 29.8889 38.5437 32.246C38.1218 32.9082 37.6342 33.5728 37.1173 34.1846C36.4761 34.9438 35.7727 35.6502 35.0154 36.2934C34.4181 36.8011 33.8222 37.2868 33.1501 37.6873C32.4863 38.0825 31.8084 38.4869 31.1107 38.818C30.2425 39.2303 29.3407 39.5725 28.4175 39.8403C28.0284 39.9532 27.8045 40.3599 27.9174 40.749C28.0105 41.0698 28.3035 41.2781 28.6212 41.2781C28.6892 41.2781 28.7578 41.2685 28.8261 41.2491C30.2181 40.8451 31.5494 40.2908 32.801 39.5988C32.9105 39.9609 33.065 40.3091 33.2603 40.6261C33.7078 41.3536 34.3002 41.9239 35.0208 42.3206C35.3756 42.5159 35.8215 42.387 36.0172 42.0322C36.2125 41.6775 36.0832 41.2315 35.7284 41.0362C35.2329 40.7631 34.8224 40.3664 34.5092 39.8575C34.1533 39.2792 34.0381 38.6364 34.7683 38.3499C36.8126 37.5488 38.853 39.0758 39.4691 41.0023C39.1456 41.156 38.808 41.2727 38.4601 41.3517C38.0653 41.441 37.8177 41.8339 37.907 42.2287C37.9844 42.5693 38.2866 42.8001 38.6215 42.8001C38.6753 42.8001 38.7298 42.7944 38.7844 42.7818C39.4622 42.6285 40.11 42.3637 40.7093 41.9956C40.9744 41.8327 41.1079 41.5203 41.0423 41.2163C40.7436 39.8315 39.9765 38.5632 38.9381 37.7365C38.2713 37.2055 37.5152 36.8687 36.7195 36.7355C37.2524 36.2324 37.7597 35.6972 38.2377 35.1314C38.3674 34.9781 38.4937 34.8225 38.618 34.6657C38.8443 34.9647 39.1079 35.2356 39.3978 35.4641C40.2649 36.1465 41.2883 36.5002 42.3568 36.5002C42.715 36.5002 43.0786 36.4605 43.4429 36.3796C44.7387 36.0931 45.985 35.2905 46.862 34.1785C47.0546 33.934 47.0718 33.5945 46.9055 33.3317C46.1467 32.1354 44.9894 31.2099 43.7294 30.7922C42.839 30.4966 41.9277 30.4592 41.0629 30.6694C41.4653 29.7848 41.8003 28.87 42.065 27.9308C42.3633 28.1689 42.6918 28.3695 43.0355 28.5202C43.6641 28.7956 44.3187 28.9326 44.973 28.9326C45.7237 28.9326 46.4737 28.7517 47.1809 28.3913C48.3635 27.7885 49.3686 26.6991 49.9382 25.4021C50.0629 25.1175 49.9946 24.7845 49.7676 24.572ZM41.0213 12.9002C40.9278 13.3655 40.821 14.1491 40.2298 14.2376C39.8182 14.2994 39.4916 14.0686 39.1857 13.8225C37.9192 12.8029 37.3706 10.7376 38.6695 8.75662C38.7779 8.59107 40.097 9.7721 40.2118 9.9079C40.5708 10.3332 40.8371 10.8356 40.9755 11.3754C41.1029 11.8721 41.122 12.397 41.0213 12.9002ZM45.3571 33.6769C43.7183 35.3874 41.5824 35.3168 40.3045 34.3113C40.0196 34.087 39.7716 33.8005 39.5858 33.4797C39.5763 33.4587 39.5626 33.4274 39.5473 33.3923C39.6099 33.2985 39.6717 33.2039 39.7327 33.1093C39.9246 32.8827 40.15 32.6843 40.3961 32.5287C41.7701 31.6593 43.9022 31.8077 45.3571 33.6769ZM42.8161 18.7313C43.3082 17.1814 45.0348 15.9229 47.3522 16.4169C47.1992 18.7809 45.5188 20.1019 43.8938 20.1546C43.5016 20.1679 42.8707 20.1721 42.7005 19.7388C42.5792 19.4298 42.7219 19.0292 42.8161 18.7313ZM43.6241 27.177C43.2983 27.034 42.9039 26.8619 42.7471 26.519C42.4053 25.7725 43.5455 25.1026 44.0322 24.8249C44.429 24.5983 44.8707 24.4533 45.3231 24.395C46.4138 24.2542 47.4949 24.6326 48.3558 25.2945C47.1985 27.3617 45.1133 27.8294 43.6241 27.177Z" fill="white"/>
</g>
<defs>
<clipPath id="clip0_193_197">
<rect width="50" height="50" fill="white"/>
</clipPath>
</defs>
</svg>
