<svg width="50" height="50" viewBox="0 0 50 50" fill="none" xmlns="http://www.w3.org/2000/svg">
<g clip-path="url(#clip0_193_205)">
<path d="M39.4792 30.8018C38.498 28.756 34.9875 25.9163 31.5959 23.1726C29.7042 21.6434 27.9167 20.1976 26.7772 19.058C26.4917 18.7705 26.0647 18.6788 25.6876 18.8143C24.9856 19.0685 24.5522 19.2643 24.2106 19.4163C23.6898 19.6496 23.5148 19.7288 22.8126 19.7996C22.5022 19.8309 22.2231 19.9976 22.0501 20.2559C20.5772 22.4579 19.0522 22.2704 18.0334 21.9288C17.7084 21.8205 17.6501 21.6809 17.6189 21.5476C17.4001 20.633 18.4981 18.5038 19.9209 17.0809C23.3064 13.6934 25.0522 12.8454 28.7397 14.4934C32.923 16.3642 37.1147 17.8288 37.1564 17.8434C37.7043 18.0329 38.2939 17.7454 38.4834 17.2017C38.6709 16.6579 38.3855 16.0642 37.8417 15.8746C37.8 15.8601 33.6917 14.4246 29.5917 12.5892C24.8147 10.4537 22.1938 11.86 18.45 15.6059C17.025 17.0309 15.0896 19.9142 15.5896 22.0288C15.8041 22.9288 16.4375 23.5955 17.3791 23.9059C19.7396 24.6851 21.8937 23.9392 23.4979 21.8101C24.1604 21.708 24.5208 21.558 25.0624 21.3143C25.2582 21.2268 25.4874 21.1247 25.7916 21.0018C26.9833 22.1205 28.5916 23.4226 30.2854 24.7913C33.3479 27.2684 36.8208 30.0768 37.6021 31.7018C37.9875 32.5038 37.5729 33.0268 37.2916 33.2663C36.8791 33.6205 36.3146 33.733 36.0083 33.5184C35.6708 33.2871 35.2313 33.2726 34.8833 33.4809C34.5333 33.6892 34.3375 34.0829 34.3813 34.4871C34.4521 35.1496 33.8458 35.5288 33.5833 35.6601C32.9166 35.9976 32.2208 35.9393 31.9604 35.6976C31.6687 35.4268 31.2499 35.3476 30.8791 35.4851C30.5083 35.6246 30.2499 35.9663 30.2124 36.3621C30.1499 37.0454 29.6437 37.7017 28.9832 37.9579C28.6645 38.0787 28.202 38.1517 27.7874 37.7725C27.5291 37.5392 27.1707 37.4495 26.8354 37.5308C26.4958 37.6141 26.2229 37.86 26.1041 38.187C26.0646 38.2912 25.9749 38.5412 24.9999 38.5412C24.3062 38.5412 23.0582 38.0725 22.4479 37.6683C21.7166 37.187 17.1312 33.7662 13.1708 30.4495C12.6146 29.9808 11.6521 28.9766 10.8021 28.0891C10.0479 27.3016 9.35832 26.587 9.00412 26.287C8.56037 25.912 7.90412 25.9683 7.53537 26.41C7.16457 26.8495 7.21867 27.5079 7.65832 27.8787C7.98127 28.1517 8.60627 28.812 9.29582 29.5308C10.225 30.5016 11.1854 31.5058 11.8313 32.0475C15.7105 35.2954 20.373 38.8017 21.3021 39.412C22.0688 39.9162 23.7208 40.6245 25 40.6245C26.0271 40.6245 26.8167 40.3891 27.3646 39.9287C28.0979 40.2142 28.9313 40.2162 29.7333 39.9037C30.6813 39.537 31.4604 38.7975 31.9021 37.9017C32.7229 38.0767 33.6625 37.9537 34.5166 37.5246C35.3521 37.1038 35.9562 36.4601 36.2562 35.7079C37.0854 35.7517 37.9395 35.4579 38.6457 34.8517C39.8417 33.8288 40.1708 32.2372 39.4792 30.8018Z" fill="white"/>
<path d="M20.8333 13.5413H11.4583C10.8833 13.5413 10.4166 14.008 10.4166 14.583C10.4166 15.158 10.8833 15.6247 11.4583 15.6247H20.8333C21.4083 15.6247 21.875 15.158 21.875 14.583C21.875 14.008 21.4083 13.5413 20.8333 13.5413Z" fill="white"/>
<path d="M42.5313 28.5851C42.2083 28.108 41.5625 27.9768 41.0855 28.3018L38.0397 30.3476C37.5626 30.6684 37.4355 31.3163 37.7564 31.7934C37.9584 32.0913 38.2876 32.2538 38.6231 32.2538C38.821 32.2538 39.0231 32.1976 39.2023 32.0768L42.2481 30.031C42.725 29.7101 42.8521 29.0622 42.5313 28.5851Z" fill="white"/>
<path d="M36.0645 33.556C35.3187 32.9685 31.9833 29.5539 29.9208 27.4039C29.5228 26.9872 28.8625 26.9727 28.4478 27.3727C28.0311 27.7706 28.0186 28.431 28.4166 28.8456C28.952 29.4039 33.6749 34.3269 34.7728 35.1936C34.9624 35.3436 35.1916 35.4165 35.4166 35.4165C35.7228 35.4165 36.0291 35.279 36.2374 35.0186C36.5937 34.5685 36.5167 33.9122 36.0645 33.556Z" fill="white"/>
<path d="M31.902 35.6456C30.6541 34.6476 27.5187 31.3164 26.8103 30.5456C26.4186 30.1206 25.7624 30.0956 25.3374 30.4831C24.9144 30.8726 24.8853 31.5331 25.2749 31.956C25.3124 31.9956 29.0541 36.0352 30.5999 37.2727C30.7916 37.4248 31.0228 37.4998 31.2499 37.4998C31.5541 37.4998 31.8582 37.3643 32.0644 37.1102C32.4229 36.6601 32.35 36.0039 31.902 35.6456Z" fill="white"/>
<path d="M27.7562 37.7434C26.2707 36.4914 23.2312 33.2559 22.6374 32.6205C22.2437 32.1997 21.5832 32.1767 21.1645 32.5705C20.7437 32.9642 20.7228 33.6225 21.1145 34.0434C21.9687 34.958 24.877 38.0414 26.4124 39.3372C26.6082 39.5017 26.8457 39.583 27.0832 39.583C27.379 39.583 27.6749 39.4559 27.8812 39.2122C28.252 38.7705 28.1957 38.1142 27.7562 37.7434Z" fill="white"/>
<path d="M12.175 11.7435C10.3896 10.0518 3.25 9.50383 1.1042 9.37678C0.808398 9.36223 0.535449 9.46008 0.327148 9.65803C0.11875 9.85383 0 10.1288 0 10.4163V29.1663C0 29.7413 0.466699 30.208 1.0417 30.208H7.2917C7.7417 30.208 8.1417 29.9185 8.28125 29.4893C8.4333 29.0226 12.0229 18.006 12.4958 12.5893C12.5229 12.2726 12.4062 11.9601 12.175 11.7435ZM6.53125 28.1247H2.0833V11.533C5.43125 11.7976 9.04375 12.3726 10.3562 13.0101C9.8042 17.5726 7.30625 25.6788 6.53125 28.1247Z" fill="white"/>
<path d="M48.9583 11.458C40.7791 11.458 36.2416 13.5518 36.052 13.6393C35.7812 13.7663 35.5791 14.0018 35.4958 14.2872C35.4125 14.5727 35.4541 14.8789 35.6103 15.133C36.8978 17.206 40.9291 28.7185 41.7041 31.5268C41.8291 31.9788 42.2395 32.2913 42.7083 32.2913H48.9583C49.5333 32.2913 50 31.8246 50 31.2496V12.4996C50 11.9226 49.5333 11.458 48.9583 11.458ZM47.9167 30.208H43.4875C42.5 26.9913 39.5833 18.6038 37.9562 15.1372C39.5458 14.5977 42.9604 13.6705 47.9167 13.5539V30.208Z" fill="white"/>
</g>
<defs>
<clipPath id="clip0_193_205">
<rect width="50" height="50" fill="white"/>
</clipPath>
</defs>
</svg>
