<svg width="50" height="50" viewBox="0 0 50 50" fill="none" xmlns="http://www.w3.org/2000/svg">
<g clip-path="url(#clip0_614_1663)">
<path d="M43.2693 12.9258H39.5672V14.6352H43.2693C43.6228 14.6352 43.9103 14.9227 43.9103 15.2762V34.9027H6.08977V15.2762C6.08977 14.9227 6.37727 14.6352 6.7308 14.6352H10.4328V12.9258H6.7308C5.43475 12.9258 4.38037 13.9802 4.38037 15.2762V40.4008C4.38037 41.6968 5.43475 42.7512 6.7308 42.7512H19.7935L18.2068 48.2905H15.1323V49.9999H34.8677V48.2905H31.7932L30.2064 42.7512H43.2693C44.5653 42.7512 45.6197 41.6968 45.6197 40.4008V15.2762C45.6197 13.9802 44.5653 12.9258 43.2693 12.9258ZM30.0151 48.2905H19.9851L21.5718 42.7512H28.4283L30.0151 48.2905ZM43.9103 40.4008C43.9103 40.7543 43.6228 41.0418 43.2693 41.0418H6.7308C6.37727 41.0418 6.08977 40.7543 6.08977 40.4008V36.6121H43.9103V40.4008Z" fill="#0162CA"/>
<path d="M10.1152 27.124H12.1072V28.8334H10.1152V27.124Z" fill="#0162CA"/>
<path d="M14.3887 27.124H16.3807V28.8334H14.3887V27.124Z" fill="#0162CA"/>
<path d="M33.6196 27.124H35.6116V28.8334H33.6196V27.124Z" fill="#0162CA"/>
<path d="M37.8931 27.124H39.8851V28.8334H37.8931V27.124Z" fill="#0162CA"/>
<path d="M33.164 3.24338C31.0348 1.15182 28.1356 0 25.0001 0C21.8646 0 18.9654 1.15182 16.8362 3.24338C14.7084 5.33365 13.5366 8.17468 13.5366 11.2432C13.5366 14.5186 14.9819 17.644 17.502 19.8182C18.7611 20.9045 19.5633 22.4019 19.8462 24.1734C19.1806 24.6027 18.7389 25.3488 18.7389 26.1963V26.877C18.7389 27.9192 19.4065 28.8087 20.3378 29.1433C20.2396 29.4051 20.1857 29.6884 20.1857 29.984V30.6646C20.1857 31.9925 21.2693 33.0729 22.6012 33.0729H27.3991C28.7311 33.0729 29.8146 31.9925 29.8146 30.6646V29.984C29.8146 29.6884 29.7607 29.4051 29.6625 29.1433C30.5937 28.8088 31.2614 27.9192 31.2614 26.877V26.1963C31.2614 25.3488 30.8196 24.6028 30.154 24.1734C30.4369 22.4019 31.2392 20.9044 32.4983 19.8182C35.0182 17.644 36.4637 14.5186 36.4637 11.2432C36.4635 8.17468 35.2917 5.33365 33.164 3.24338ZM28.1052 30.6646C28.1052 31.0499 27.7884 31.3635 27.3991 31.3635H22.6012C22.2117 31.3635 21.8951 31.05 21.8951 30.6646V29.984C21.8951 29.5987 22.2118 29.2852 22.6012 29.2852H27.3991C27.7885 29.2852 28.1052 29.5986 28.1052 29.984V30.6646ZM29.5519 26.877C29.5519 27.2623 29.2351 27.5759 28.8458 27.5759H21.1545C20.765 27.5759 20.4484 27.2624 20.4484 26.877V26.1963C20.4484 25.8593 20.6907 25.5772 21.0119 25.5119C21.0122 25.5119 21.0123 25.5118 21.0125 25.5118C21.1568 25.4825 21.0569 25.5025 28.8459 25.4975C29.2467 25.4975 29.5472 25.8261 29.552 26.217C29.5546 26.4369 29.5519 26.6571 29.5519 26.877ZM22.6478 14.7784H21.3763C20.9542 14.7784 20.5755 14.4714 20.4969 14.0553C20.4178 13.6372 20.66 13.2147 21.0561 13.0639C21.297 12.9721 21.6645 12.9732 21.9182 13.0203C22.3328 13.0973 22.6478 13.4685 22.6478 13.8918V14.7784ZM25.694 23.7881H24.3572V16.4878H25.694V23.7881ZM31.3815 18.5239C29.8379 19.8558 28.847 21.6639 28.4844 23.7881H27.4034V16.4878H28.6982C30.134 16.4878 31.3022 15.3233 31.3022 13.8918C31.3022 12.4604 30.1341 11.2958 28.6982 11.2958H28.2979C26.8622 11.2958 25.6939 12.4604 25.6939 13.8918V14.7784H24.3571V13.8918C24.3571 12.4604 23.189 11.2958 21.7531 11.2958H21.3762C19.9404 11.2958 18.7721 12.4604 18.7721 13.8918C18.7721 15.3232 19.9403 16.4878 21.3762 16.4878H22.6477V23.7881H21.5157C21.1532 21.6639 20.1623 19.8558 18.6186 18.5239C16.4752 16.6748 15.2459 14.021 15.2459 11.2433C15.246 5.80801 19.4394 1.7094 25.0001 1.7094C30.5608 1.7094 34.7541 5.80801 34.7541 11.2432C34.7541 14.021 33.5249 16.6748 31.3815 18.5239ZM27.4034 14.7784V13.8918C27.4034 13.4029 27.8047 13.0052 28.2981 13.0052H28.6983C29.1915 13.0052 29.5929 13.403 29.5929 13.8918C29.5929 14.3807 29.1916 14.7784 28.6983 14.7784H27.4034Z" fill="#0162CA"/>
</g>
<defs>
<clipPath id="clip0_614_1663">
<rect width="50" height="50" fill="white"/>
</clipPath>
</defs>
</svg>
