<svg width="25" height="25" viewBox="0 0 25 25" fill="none" xmlns="http://www.w3.org/2000/svg">
<g clip-path="url(#clip0_1018_1640)">
<path d="M16.9269 11.979H8.07275C7.6415 11.979 7.2915 11.629 7.2915 11.1978C7.2915 10.7665 7.6415 10.4165 8.07275 10.4165H16.9269C17.3582 10.4165 17.7082 10.7665 17.7082 11.1978C17.7082 11.629 17.3582 11.979 16.9269 11.979Z" fill="#0162CA"/>
<path d="M16.9269 8.854H8.07275C7.6415 8.854 7.2915 8.504 7.2915 8.07275C7.2915 7.6415 7.6415 7.2915 8.07275 7.2915H16.9269C17.3582 7.2915 17.7082 7.6415 17.7082 8.07275C17.7082 8.504 17.3582 8.854 16.9269 8.854Z" fill="#0162CA"/>
<path d="M12.7603 5.729H8.07275C7.6415 5.729 7.2915 5.379 7.2915 4.94775C7.2915 4.5165 7.6415 4.1665 8.07275 4.1665H12.7603C13.1915 4.1665 13.5415 4.5165 13.5415 4.94775C13.5415 5.379 13.1915 5.729 12.7603 5.729Z" fill="#0162CA"/>
<path d="M22.6562 23.9584H2.34375C1.05104 23.9584 0 22.9073 0 21.6146V9.01046C0 8.15004 0.471875 7.35942 1.23229 6.94796L3.5375 5.71671C3.91979 5.51358 4.39167 5.65733 4.59479 6.03754C4.79792 6.41879 4.65417 6.89171 4.27396 7.09483L1.97187 8.324C1.725 8.45837 1.5625 8.72817 1.5625 9.01046V21.6146C1.5625 22.0459 1.9125 22.3959 2.34375 22.3959H22.6562C23.0875 22.3959 23.4375 22.0459 23.4375 21.6146V9.01046C23.4375 8.72817 23.275 8.45837 23.024 8.32296L20.725 7.09587C20.3448 6.89275 20.201 6.41983 20.4042 6.03858C20.6073 5.65837 21.0792 5.51358 21.4615 5.71775L23.7635 6.94692C24.5281 7.35942 25 8.15004 25 9.01046V21.6146C25 22.9073 23.949 23.9584 22.6562 23.9584Z" fill="#0162CA"/>
<path d="M12.499 17.7041C12.0427 17.7041 11.5875 17.5968 11.173 17.3822L0.41983 11.7645C0.0375382 11.5656 -0.110378 11.0926 0.0896216 10.7104C0.290663 10.3281 0.762538 10.1812 1.14379 10.3801L11.8938 15.9947C12.2667 16.1874 12.7355 16.1874 13.1115 15.9926L23.8584 10.3801C24.2396 10.1801 24.7125 10.3281 24.9125 10.7104C25.1125 11.0926 24.9646 11.5645 24.5823 11.7645L13.8323 17.3791C13.4125 17.5958 12.9563 17.7041 12.499 17.7041Z" fill="#0162CA"/>
<path d="M21.0938 13.4896C20.6625 13.4896 20.3125 13.1396 20.3125 12.7083V2.86458C20.3125 2.14687 19.7281 1.5625 19.0104 1.5625H5.98958C5.27187 1.5625 4.6875 2.14687 4.6875 2.86458V12.7083C4.6875 13.1396 4.3375 13.4896 3.90625 13.4896C3.475 13.4896 3.125 13.1396 3.125 12.7083V2.86458C3.125 1.28542 4.40937 0 5.98958 0H19.0104C20.5906 0 21.875 1.28542 21.875 2.86458V12.7083C21.875 13.1396 21.525 13.4896 21.0938 13.4896Z" fill="#0162CA"/>
</g>
<defs>
<clipPath id="clip0_1018_1640">
<rect width="25" height="25" fill="white"/>
</clipPath>
</defs>
</svg>
