<svg width="25" height="25" viewBox="0 0 25 25" fill="none" xmlns="http://www.w3.org/2000/svg">
<g clip-path="url(#clip0_1018_1633)">
<path d="M23.4648 17.6516C23.4234 17.6172 18.7391 14.2797 17.4742 14.4883C16.8641 14.5961 16.5156 15.0125 15.8164 15.8453C15.7039 15.9797 15.4328 16.3008 15.2234 16.5297C14.7815 16.3857 14.3505 16.2103 13.9336 16.0047C11.7817 14.957 10.043 13.2183 8.99531 11.0664C8.78974 10.6495 8.61429 10.2185 8.47031 9.77656C8.7 9.56641 9.02188 9.29531 9.15938 9.17969C9.98828 8.48438 10.4039 8.13516 10.5117 7.52422C10.7328 6.25937 7.38281 1.57656 7.34844 1.53438C7.19588 1.31801 6.99718 1.13822 6.7667 1.00798C6.53621 0.877742 6.27968 0.800301 6.01562 0.78125C4.65781 0.78125 0.78125 5.80937 0.78125 6.65703C0.78125 6.70625 0.852344 11.7094 7.02187 17.9852C13.2906 24.1477 18.2938 24.2188 18.343 24.2188C19.1898 24.2188 24.2188 20.3422 24.2188 18.9844C24.1995 18.7203 24.1219 18.4638 23.9915 18.2333C23.8612 18.0028 23.6813 17.8041 23.4648 17.6516ZM18.2563 22.6516C17.5781 22.5938 13.375 22.0398 8.125 16.8828C2.94297 11.607 2.40312 7.39688 2.34922 6.74453C3.37326 5.13722 4.60999 3.6758 6.02578 2.4C6.05703 2.43125 6.09844 2.47812 6.15156 2.53906C7.23736 4.02127 8.17272 5.60802 8.94375 7.27578C8.69301 7.52803 8.42799 7.76566 8.15 7.9875C7.7189 8.31598 7.32303 8.68828 6.96875 9.09844C6.9088 9.18255 6.86613 9.27771 6.8432 9.37842C6.82027 9.47913 6.81753 9.58338 6.83516 9.68516C7.00049 10.4014 7.25371 11.0944 7.58906 11.7484C8.79054 14.2156 10.7842 16.209 13.2516 17.4102C13.9055 17.746 14.5985 17.9995 15.3148 18.1648C15.4166 18.1825 15.5209 18.1797 15.6216 18.1568C15.7223 18.1339 15.8175 18.0912 15.9016 18.0312C16.3132 17.6755 16.6868 17.2781 17.0164 16.8453C17.2617 16.5531 17.5891 16.1633 17.7133 16.0531C19.3853 16.8234 20.9756 17.7599 22.4602 18.8484C22.525 18.9031 22.5711 18.9453 22.6016 18.9727C21.3257 20.3889 19.864 21.6259 18.2563 22.65V22.6516Z" fill="#0162CA"/>
<path d="M13.2812 7.03125C14.5241 7.03249 15.7156 7.52675 16.5944 8.40556C17.4733 9.28437 17.9675 10.4759 17.9688 11.7188C17.9688 11.926 18.0511 12.1247 18.1976 12.2712C18.3441 12.4177 18.5428 12.5 18.75 12.5C18.9572 12.5 19.1559 12.4177 19.3024 12.2712C19.4489 12.1247 19.5312 11.926 19.5312 11.7188C19.5294 10.0617 18.8703 8.47309 17.6986 7.30139C16.5269 6.12969 14.9383 5.47061 13.2812 5.46875C13.074 5.46875 12.8753 5.55106 12.7288 5.69757C12.5823 5.84409 12.5 6.0428 12.5 6.25C12.5 6.4572 12.5823 6.65591 12.7288 6.80243C12.8753 6.94894 13.074 7.03125 13.2812 7.03125Z" fill="#0162CA"/>
<path d="M13.2812 3.125C15.5596 3.12769 17.7439 4.03396 19.355 5.64502C20.966 7.25608 21.8723 9.44037 21.875 11.7188C21.875 11.926 21.9573 12.1247 22.1038 12.2712C22.2503 12.4177 22.449 12.5 22.6562 12.5C22.8635 12.5 23.0622 12.4177 23.2087 12.2712C23.3552 12.1247 23.4375 11.926 23.4375 11.7188C23.4344 9.0261 22.3634 6.44462 20.4594 4.54062C18.5554 2.63663 15.9739 1.5656 13.2812 1.5625C13.074 1.5625 12.8753 1.64481 12.7288 1.79132C12.5823 1.93784 12.5 2.13655 12.5 2.34375C12.5 2.55095 12.5823 2.74966 12.7288 2.89618C12.8753 3.04269 13.074 3.125 13.2812 3.125Z" fill="#0162CA"/>
</g>
<defs>
<clipPath id="clip0_1018_1633">
<rect width="25" height="25" fill="white"/>
</clipPath>
</defs>
</svg>
