<svg width="50" height="50" viewBox="0 0 50 50" fill="none" xmlns="http://www.w3.org/2000/svg">
<g clip-path="url(#clip0_649_57749)">
<path d="M4.34583 37.874C3.94124 37.874 3.6134 38.2019 3.6134 38.6064C3.6134 39.011 3.94124 39.3389 4.34583 39.3389H9.77913C10.1837 39.3389 10.5115 39.011 10.5115 38.6064C10.5115 38.2019 10.1837 37.874 9.77913 37.874H4.34583Z" fill="#0162CA"/>
<path d="M15.0392 36.0918C15.0392 35.6872 14.7114 35.3594 14.3068 35.3594H4.34583C3.94124 35.3594 3.6134 35.6872 3.6134 36.0918C3.6134 36.4964 3.94124 36.8242 4.34583 36.8242H14.3068C14.7114 36.8242 15.0392 36.4963 15.0392 36.0918Z" fill="#0162CA"/>
<path d="M14.3068 32.8447H4.34583C3.94124 32.8447 3.6134 33.1726 3.6134 33.5771C3.6134 33.9817 3.94124 34.3096 4.34583 34.3096H14.3068C14.7114 34.3096 15.0392 33.9817 15.0392 33.5771C15.0392 33.1726 14.7114 32.8447 14.3068 32.8447Z" fill="#0162CA"/>
<path d="M14.3068 30.3301H4.34583C3.94124 30.3301 3.6134 30.6579 3.6134 31.0625C3.6134 31.4671 3.94124 31.7949 4.34583 31.7949H14.3068C14.7114 31.7949 15.0392 31.4671 15.0392 31.0625C15.0392 30.6579 14.7114 30.3301 14.3068 30.3301Z" fill="#0162CA"/>
<path d="M28.6172 16.2871C29.8287 16.2871 30.8145 15.3014 30.8145 14.0898C30.8145 12.8783 29.8287 11.8926 28.6172 11.8926C27.4057 11.8926 26.4199 12.8783 26.4199 14.0898C26.4199 15.3014 27.4057 16.2871 28.6172 16.2871ZM28.6172 13.3574C29.0211 13.3574 29.3496 13.6859 29.3496 14.0898C29.3496 14.4938 29.0211 14.8223 28.6172 14.8223C28.2133 14.8223 27.8848 14.4938 27.8848 14.0898C27.8848 13.6859 28.2133 13.3574 28.6172 13.3574Z" fill="#0162CA"/>
<path d="M38.1837 13.8975H46.4576C47.1308 13.8975 47.6783 13.3499 47.6783 12.6768V7.01269C47.6783 6.33955 47.1308 5.79199 46.4576 5.79199H38.1837C37.5106 5.79199 36.963 6.33955 36.963 7.01269V12.6768C36.963 13.3499 37.5106 13.8975 38.1837 13.8975ZM39.0325 12.4326L40.2337 10.3521L41.4349 12.4326H39.0325ZM43.1849 12.4326L44.0423 10.9476L44.8997 12.4326H43.1849ZM43.6616 10.2883C43.6617 10.2883 43.6617 10.2884 43.6616 10.2883L43.6623 10.2894C43.6621 10.289 43.6618 10.2887 43.6616 10.2883ZM38.4279 7.25684H46.2135V11.7784L44.9303 9.55596C44.7478 9.23984 44.4075 9.04336 44.0425 9.04326C44.0424 9.04326 44.0424 9.04326 44.0423 9.04326C43.6772 9.04326 43.3369 9.23965 43.1542 9.55596L42.3099 11.0186L41.1218 8.96064C40.9393 8.64443 40.599 8.44795 40.2339 8.44785C40.2338 8.44785 40.2338 8.44785 40.2337 8.44785C39.8687 8.44785 39.5283 8.64424 39.3456 8.96055L38.4279 10.5503V7.25684Z" fill="#0162CA"/>
<path d="M49.2421 43.5004L42.2304 36.4887C43.2724 34.7966 43.8744 32.806 43.8744 30.6772C43.8744 25.6536 40.5244 21.3986 35.9414 20.0266V8.07256C35.9414 7.39941 35.3939 6.85186 34.7207 6.85186H16.8166V3.30371C16.8166 2.63057 16.2691 2.08301 15.5959 2.08301H3.51575C2.8426 2.08301 2.29504 2.63057 2.29504 3.30371V11.7002C2.29504 12.3733 2.8426 12.9209 3.51575 12.9209H6.59192V22.3975H1.22083C0.547681 22.3975 0.00012207 22.945 0.00012207 23.6182V43.5361C0.00012207 44.2093 0.547681 44.7568 1.22083 44.7568H17.4318C18.1049 44.7568 18.6525 44.2093 18.6525 43.5361V37.7936C18.6525 37.389 18.3246 37.0611 17.92 37.0611C17.5155 37.0611 17.1876 37.389 17.1876 37.7936V43.292H1.46497V23.8623H6.59192V27.8153H4.34583C3.94124 27.8153 3.6134 28.1432 3.6134 28.5478C3.6134 28.9523 3.94124 29.2802 4.34583 29.2802H17.1876V34.3756C17.1876 34.7802 17.5155 35.108 17.92 35.108C18.3246 35.108 18.6525 34.7802 18.6525 34.3756V29.2803H21.7316C21.6739 29.738 21.6435 30.204 21.6435 30.6772C21.6435 36.8064 26.6299 41.7927 32.7589 41.7927C34.8878 41.7927 36.8784 41.1906 38.5705 40.1485L45.5823 47.1604C46.0868 47.6648 46.7495 47.9171 47.4122 47.9171C48.0749 47.9171 48.7376 47.6648 49.242 47.1604C49.7309 46.6716 50.0001 46.0217 50.0001 45.3304C50.0001 44.6391 49.7309 43.9892 49.2421 43.5004ZM16.8166 11.7002V10.7581H26.5626C26.9672 10.7581 27.295 10.4303 27.295 10.0257C27.295 9.62109 26.9672 9.29326 26.5626 9.29326H16.8166V8.3167H34.4766V19.6943C34.1554 19.6443 33.8296 19.6086 33.5 19.5868V10.3187C33.5 9.75322 33.0401 9.29326 32.4746 9.29326H29.9806C29.576 9.29326 29.2482 9.62109 29.2482 10.0257C29.2482 10.4303 29.576 10.7581 29.9806 10.7581H32.0352V19.5868C31.1199 19.6461 30.234 19.815 29.3918 20.0834L26.8145 16.6078C26.5852 16.2988 26.2187 16.1143 25.834 16.1143C25.4492 16.1143 25.0827 16.2988 24.8534 16.6078L22.0872 20.3381L17.8845 14.6705C17.6552 14.3615 17.2887 14.177 16.9039 14.177C16.5193 14.177 16.1528 14.3615 15.9235 14.6705L10.4982 21.9865V12.9209H15.5959C16.2691 12.9209 16.8166 12.3733 16.8166 11.7002ZM10.6934 10.6227C11.4653 10.3431 12.3343 10.1865 13.2325 10.1865C13.9593 10.1865 14.6825 10.2877 15.3518 10.4814V11.4561H11.0892C10.9837 11.1674 10.8516 10.8887 10.6934 10.6227ZM3.75989 3.54785H15.3518V8.96836C14.6715 8.80547 13.9625 8.72168 13.2325 8.72168C11.9734 8.72168 10.7706 8.97373 9.7302 9.42559C8.43088 8.18906 6.48567 7.41963 4.34583 7.41963C4.15061 7.41963 3.9551 7.42764 3.75989 7.44102V3.54785ZM3.75989 8.90791C3.95481 8.89229 4.15061 8.88447 4.34583 8.88447C6.64153 8.88447 8.64319 9.92363 9.48743 11.4561H3.75989V8.90791ZM8.05676 27.8154V12.9209H9.03333V25.8136C9.03333 26.379 9.49329 26.839 10.0587 26.839H22.3268C22.2091 27.1578 22.1061 27.4837 22.0176 27.8154H8.05676ZM10.4982 25.374V24.4459L16.9039 15.8076L21.4989 22.0041C21.6371 22.1903 21.8553 22.3002 22.0872 22.3002C22.3192 22.3002 22.5373 22.1903 22.6755 22.0041L25.834 17.7449L27.9821 20.6416C25.863 21.6544 24.1125 23.3187 22.9921 25.374H10.4982ZM23.1083 30.6771C23.1083 25.3557 27.4375 21.0264 32.7589 21.0264C38.0803 21.0264 42.4096 25.3557 42.4096 30.6771C42.4096 35.9984 38.0803 40.3277 32.7589 40.3277C27.4375 40.3277 23.1083 35.9985 23.1083 30.6771ZM48.2064 46.1244C47.7686 46.5623 47.056 46.5623 46.6182 46.1244L39.7809 39.2871C40.3619 38.8123 40.8943 38.28 41.3691 37.6989L48.2064 44.5362C48.4185 44.7483 48.5353 45.0304 48.5353 45.3303C48.5353 45.6303 48.4185 45.9123 48.2064 46.1244Z" fill="#0162CA"/>
<path d="M40.1625 31.8104C39.7704 31.7106 39.3717 31.947 39.2717 32.3389C38.5111 35.3177 35.833 37.398 32.7591 37.398C29.0531 37.398 26.0381 34.383 26.0381 30.6771C26.0381 26.9711 29.0531 23.9561 32.7591 23.9561C35.9017 23.9561 38.6641 26.1854 39.3275 29.2568C39.413 29.6522 39.803 29.9036 40.1981 29.8181C40.5935 29.7326 40.8447 29.3429 40.7594 28.9475C39.9513 25.2064 36.5866 22.4912 32.7591 22.4912C28.2453 22.4912 24.5732 26.1634 24.5732 30.6771C24.5732 35.1907 28.2454 38.8629 32.7591 38.8629C36.503 38.8629 39.7647 36.3292 40.691 32.7013C40.791 32.3093 40.5544 31.9104 40.1625 31.8104Z" fill="#0162CA"/>
<path d="M11.3771 8.2334C12.454 8.2334 13.3302 7.35723 13.3302 6.28027C13.3302 5.20332 12.454 4.32715 11.3771 4.32715C10.3001 4.32715 9.42395 5.20332 9.42395 6.28027C9.42395 7.35723 10.3001 8.2334 11.3771 8.2334ZM11.3771 5.79199C11.6463 5.79199 11.8654 6.01103 11.8654 6.28027C11.8654 6.54951 11.6463 6.76855 11.3771 6.76855C11.1078 6.76855 10.8888 6.54951 10.8888 6.28027C10.8888 6.01103 11.1078 5.79199 11.3771 5.79199Z" fill="#0162CA"/>
</g>
<defs>
<clipPath id="clip0_649_57749">
<rect width="50" height="50" fill="white"/>
</clipPath>
</defs>
</svg>
