<svg width="50" height="50" viewBox="0 0 50 50" fill="none" xmlns="http://www.w3.org/2000/svg">
<path d="M42.1516 31.5533L33.6516 35.1442C33.6667 35.0381 33.6819 34.9321 33.6819 34.8184C33.6819 33.1669 32.341 31.826 30.6894 31.826H24.5682C24.3182 31.826 24.0758 31.773 23.8485 31.6669L18.6591 29.3184C17.8485 28.9548 16.947 28.7578 16.0607 28.7578H11.8334V30.273H16.0607C16.7349 30.273 17.4167 30.4169 18.0379 30.6972L23.2273 33.0457C23.6516 33.2351 24.1061 33.3336 24.5758 33.3336H30.697C31.5152 33.3336 32.1743 34.0002 32.1743 34.8108C32.1743 35.6214 31.5076 36.2881 30.697 36.2881H22.7652V37.8033H30.6894C31.2122 37.8033 31.697 37.6593 32.1213 37.4245V37.4321L42.7349 32.9396C43.6137 32.5684 44.5758 32.576 45.447 32.9548C46.1137 33.2502 46.6591 33.7275 47.0228 34.3487L28.2879 44.2881C26.8561 45.0457 25.1516 45.1972 23.6061 44.7048L14.4394 41.7578L11.8258 41.7199V43.2351H14.091L23.144 46.1442C23.894 46.3866 24.6667 46.5002 25.447 46.5002C26.6743 46.5002 27.9016 46.2048 28.9925 45.6215L48.9546 35.0457L48.7349 34.4245C48.2728 33.1366 47.3182 32.1214 46.0607 31.5684C44.8031 31.0305 43.4167 31.0154 42.1516 31.5533Z" fill="#0162CA"/>
<path d="M10.1895 44.4247V28.3413C10.1895 27.508 9.50765 26.8262 8.67432 26.8262H1.04553V28.3413H8.67432V44.4322H1.04553V45.9474H8.67432C9.50765 45.9398 10.1895 45.258 10.1895 44.4247Z" fill="#0162CA"/>
<path d="M6.68189 42.0682C6.68189 42.6515 6.20462 43.1288 5.62128 43.1288C5.03037 43.1288 4.5531 42.6515 4.5531 42.0682C4.5531 41.4773 5.03037 41 5.62128 41C6.20462 41 6.68189 41.4773 6.68189 42.0682Z" fill="#0162CA"/>
<path d="M18.9697 21.5381L19.7879 22.1442L25.4243 19.023L30.5227 22.0911L30.9621 22.3487L31.7803 21.7578L30.5531 15.4396L35.0606 11.5305L35.4243 11.1821L35.1061 10.2427L28.7273 9.45478L26.4091 3.96993L26.197 3.51539L25.7121 3.50781H25.197L22.4773 9.34872L16.5379 9.84872L16.0303 9.90933L15.7273 10.8563L20.4318 15.2427L18.9697 21.5381ZM18.3258 11.2199L23.0379 10.8108L23.4849 10.7578L25.6591 6.09115L27.5 10.4321L27.6894 10.8487L32.8106 11.4775L29.2652 14.5533L28.9091 14.8563L29.894 19.9321L25.8334 17.4851L25.447 17.2805L20.9546 19.773L22.0076 15.2275L22.1364 14.7578L18.3258 11.2199Z" fill="#0162CA"/>
<path d="M9.00765 18.7425L7.90917 23.4622L7.75765 24.0076L8.61371 24.6364L13.3334 22.0228L17.5001 24.5228L17.9698 24.8182L18.8107 24.2046L17.7804 18.9091L18.8789 17.9622L17.8864 16.8182L16.4243 18.0834L16.2046 18.341V18.644L16.9167 22.4092L13.841 20.5531L13.6819 20.4016L13.038 20.3864L12.8864 20.5379L9.7425 22.2804L10.591 18.5985V18.1516L7.64402 15.4092L11.2501 15.091L11.5986 15.0834L11.9167 14.7652L13.5304 11.2955L14.9849 14.7273L15.2198 15.1743H15.644L17.4698 15.4016L17.6592 13.894L16.197 13.7198L14.2728 9.1743L14.0152 8.68945L12.9698 8.77279L12.8258 9.21976L10.7804 13.6213L5.9622 14.0379L5.36371 14.0682L5.04553 15.1743L5.4622 15.447L9.00765 18.7425Z" fill="#0162CA"/>
<path d="M33.9092 13.7197L34.0456 15.2273L35.5077 15.0909L35.8486 15.0758L36.1668 14.7576L37.7804 11.2879L39.1668 14.5531L39.182 15.1667H39.8941L43.5077 15.6137L40.6971 18.0531L40.4471 18.3182V18.644L41.1668 22.4015L38.0835 20.5531L37.9244 20.394L37.2577 20.4015L37.1213 20.5455L33.9926 22.2803L34.8486 18.5985L34.841 18.1515L32.9016 16.3409L31.8638 17.447L33.2501 18.7425L32.1592 23.4622L32.0077 23.9697L32.8335 24.6515L37.5835 22.0228L41.7577 24.5303L42.2274 24.8182L43.0532 24.197L42.0229 18.9091L45.6668 15.75C45.9168 15.5531 46.0229 15.2197 45.9395 14.9167L45.7653 14.3788L40.4471 13.7273L38.5077 9.1667L38.2804 8.75003L37.3789 8.71973L37.1441 9.09094L35.0229 13.6212L33.9092 13.7197Z" fill="#0162CA"/>
</svg>
