<svg width="50" height="50" viewBox="0 0 50 50" fill="none" xmlns="http://www.w3.org/2000/svg">
<g clip-path="url(#clip0_387_436)">
<path d="M7.03137 38.425V28.125H5.46887V38.425C4.56184 38.7484 3.90637 39.6078 3.90637 40.625C3.90637 41.9172 4.95793 42.9688 6.25012 42.9688C7.54231 42.9688 8.59387 41.9172 8.59387 40.625C8.59387 39.6078 7.9384 38.7484 7.03137 38.425ZM6.25012 41.4062C5.81887 41.4062 5.46887 41.0562 5.46887 40.625C5.46887 40.1938 5.81887 39.8438 6.25012 39.8438C6.68137 39.8438 7.03137 40.1938 7.03137 40.625C7.03137 41.0562 6.68137 41.4062 6.25012 41.4062Z" fill="#0162CA"/>
<path d="M10.9376 28.125C9.64543 28.125 8.59387 29.1766 8.59387 30.4688C8.59387 31.4859 9.24934 32.3453 10.1564 32.6688V42.9688H11.7189V32.6688C12.6259 32.3453 13.2814 31.4859 13.2814 30.4688C13.2814 29.1766 12.2298 28.125 10.9376 28.125ZM10.9376 31.25C10.5064 31.25 10.1564 30.9 10.1564 30.4688C10.1564 30.0375 10.5064 29.6875 10.9376 29.6875C11.3689 29.6875 11.7189 30.0375 11.7189 30.4688C11.7189 30.9 11.3689 31.25 10.9376 31.25Z" fill="#0162CA"/>
<path d="M41.4064 38.425V28.125H39.8439V38.425C38.9368 38.7484 38.2814 39.6078 38.2814 40.625C38.2814 41.9172 39.3329 42.9688 40.6251 42.9688C41.9173 42.9688 42.9689 41.9172 42.9689 40.625C42.9689 39.6078 42.3134 38.7484 41.4064 38.425ZM40.6251 41.4062C40.1939 41.4062 39.8439 41.0562 39.8439 40.625C39.8439 40.1938 40.1939 39.8438 40.6251 39.8438C41.0564 39.8438 41.4064 40.1938 41.4064 40.625C41.4064 41.0562 41.0564 41.4062 40.6251 41.4062Z" fill="#0162CA"/>
<path d="M45.3126 28.125C44.0204 28.125 42.9689 29.1766 42.9689 30.4688C42.9689 31.4859 43.6243 32.3453 44.5314 32.6688V42.9688H46.0939V32.6688C47.0009 32.3453 47.6564 31.4859 47.6564 30.4688C47.6564 29.1766 46.6048 28.125 45.3126 28.125ZM45.3126 31.25C44.8814 31.25 44.5314 30.9 44.5314 30.4688C44.5314 30.0375 44.8814 29.6875 45.3126 29.6875C45.7439 29.6875 46.0939 30.0375 46.0939 30.4688C46.0939 30.9 45.7439 31.25 45.3126 31.25Z" fill="#0162CA"/>
<path d="M34.3751 25.7812C34.0665 25.7812 33.7736 25.8445 33.5032 25.9531C33.2337 24.957 32.3306 24.2188 31.2501 24.2188C30.6478 24.2188 30.1032 24.4539 29.6876 24.8281C29.272 24.4531 28.7275 24.2188 28.1251 24.2188C27.8501 24.2188 27.5892 24.275 27.3439 24.3625V17.6398C30.5923 16.7195 32.9962 13.9492 33.4923 10.6406L36.7954 12.4578C34.8587 13.8805 33.5939 16.168 33.5939 18.75C33.5939 23.0578 37.0986 26.5625 41.4064 26.5625C45.7142 26.5625 49.2189 23.0578 49.2189 18.75C49.2189 14.4422 45.7142 10.9375 41.4064 10.9375C40.3353 10.9375 39.3134 11.1547 38.3829 11.5469L33.5697 8.89922C33.3212 4.38281 29.5782 0.78125 25.0001 0.78125C20.422 0.78125 16.679 4.38281 16.4306 8.9L11.6173 11.5469C10.6868 11.1547 9.66575 10.9375 8.59387 10.9375C4.28606 10.9375 0.781372 14.4422 0.781372 18.75C0.781372 23.0578 4.28606 26.5625 8.59387 26.5625C12.9017 26.5625 16.4064 23.0578 16.4064 18.75C16.4064 16.1672 15.1415 13.8805 13.204 12.457L16.5079 10.6398C17.004 13.9516 19.4064 16.7203 22.6572 17.6406V32.0414C22.6572 32.3969 22.5751 32.7531 22.4181 33.0719L21.7626 29.7953C21.2931 27.45 19.2165 25.7477 16.8251 25.7477C15.7337 25.7477 14.8447 26.6367 14.8447 27.7281C14.8447 28.1203 14.9595 28.5 15.1775 28.8266L15.9814 30.0328C16.279 30.4789 16.4712 30.9961 16.5376 31.5281L17.0782 35.8508C17.1673 36.5719 17.3954 37.257 17.7322 37.8406L20.3126 43.1484V44.5312H18.7501V49.2188H35.9376V44.5312H34.3751V43.2289L35.6251 41.5625C36.3306 40.6227 36.7189 39.4578 36.7189 38.2812V28.125C36.7189 26.8328 35.6673 25.7812 34.3751 25.7812ZM41.4064 25C40.0009 25 38.7072 24.5281 37.6626 23.743C38.5415 22.5773 39.9243 21.875 41.4064 21.875C42.8884 21.875 44.2712 22.5773 45.1501 23.743C44.1056 24.5281 42.8118 25 41.4064 25ZM39.0626 17.9688C39.0626 16.6766 40.1142 15.625 41.4064 15.625C42.6986 15.625 43.7501 16.6766 43.7501 17.9688C43.7501 19.2609 42.6986 20.3125 41.4064 20.3125C40.1142 20.3125 39.0626 19.2609 39.0626 17.9688ZM41.4064 12.5C44.8525 12.5 47.6564 15.3039 47.6564 18.75C47.6564 20.2289 47.1376 21.5883 46.2751 22.6594C45.6564 21.8891 44.872 21.282 43.9853 20.8797C44.7931 20.1633 45.3126 19.1305 45.3126 17.9688C45.3126 15.8148 43.5603 14.0625 41.4064 14.0625C39.2525 14.0625 37.5001 15.8148 37.5001 17.9688C37.5001 19.1305 38.0197 20.1633 38.8275 20.8797C37.9407 21.2828 37.1564 21.8891 36.5376 22.6594C35.6751 21.5883 35.1564 20.2289 35.1564 18.75C35.1564 15.3039 37.9603 12.5 41.4064 12.5ZM8.59387 25C7.1884 25 5.89465 24.5281 4.85012 23.743C5.72903 22.5773 7.11184 21.875 8.59387 21.875C10.0759 21.875 11.4587 22.5773 12.3376 23.743C11.2931 24.5281 9.99934 25 8.59387 25ZM6.25012 17.9688C6.25012 16.6766 7.30168 15.625 8.59387 15.625C9.88606 15.625 10.9376 16.6766 10.9376 17.9688C10.9376 19.2609 9.88606 20.3125 8.59387 20.3125C7.30168 20.3125 6.25012 19.2609 6.25012 17.9688ZM14.8439 18.75C14.8439 20.2289 14.3251 21.5883 13.4626 22.6594C12.8439 21.8891 12.0595 21.282 11.1728 20.8797C11.9806 20.1633 12.5001 19.1305 12.5001 17.9688C12.5001 15.8148 10.7478 14.0625 8.59387 14.0625C6.43997 14.0625 4.68762 15.8148 4.68762 17.9688C4.68762 19.1305 5.20715 20.1633 6.01497 20.8797C5.12825 21.2828 4.34387 21.8891 3.72512 22.6594C2.86262 21.5883 2.34387 20.2289 2.34387 18.75C2.34387 15.3039 5.14778 12.5 8.59387 12.5C12.04 12.5 14.8439 15.3039 14.8439 18.75ZM17.9689 9.375C17.9689 5.49766 21.1228 2.34375 25.0001 2.34375C28.8775 2.34375 32.0314 5.49766 32.0314 9.375C32.0314 10.9508 31.4962 12.4273 30.5923 13.6187C29.9493 12.3227 28.8845 11.3023 27.5892 10.7148C28.3907 9.99922 28.9064 8.96953 28.9064 7.8125C28.9064 5.65859 27.154 3.90625 25.0001 3.90625C22.8462 3.90625 21.0939 5.65859 21.0939 7.8125C21.0939 8.96953 21.6095 9.99922 22.4111 10.7148C21.115 11.3023 20.0501 12.3234 19.4072 13.6195C18.5032 12.4289 17.9689 10.9523 17.9689 9.375ZM27.3439 7.8125C27.3439 9.10469 26.2923 10.1562 25.0001 10.1562C23.7079 10.1562 22.6564 9.10469 22.6564 7.8125C22.6564 6.52031 23.7079 5.46875 25.0001 5.46875C26.2923 5.46875 27.3439 6.52031 27.3439 7.8125ZM20.5954 14.8461C21.2501 12.9875 22.9907 11.7188 25.0001 11.7188C27.0079 11.7188 28.7486 12.9875 29.4048 14.8445C28.7204 15.3984 27.9314 15.8305 27.0626 16.0969C26.6681 15.3555 25.897 14.8438 25.0001 14.8438C24.1032 14.8438 23.3322 15.3555 22.9384 16.0969C22.0689 15.8305 21.2798 15.3992 20.5954 14.8461ZM34.3751 47.6562H20.3126V46.0938H34.3751V47.6562ZM35.1564 38.2812C35.1564 39.1211 34.879 39.9539 34.3751 40.625L32.8126 42.7086V44.5312H21.8751V42.7891L19.1126 37.1117C18.8548 36.6625 18.6923 36.1742 18.6282 35.6594L18.0876 31.3359C17.9915 30.5648 17.7134 29.8148 17.2814 29.168L16.4767 27.9609C16.4306 27.8922 16.4064 27.8117 16.4064 27.7281C16.4064 27.4977 16.5939 27.3109 16.8243 27.3109C18.4736 27.3109 19.9056 28.4852 20.2298 30.1023L21.2345 35.1234H23.1392L23.8064 33.7883C24.0759 33.2492 24.2189 32.6445 24.2189 32.0422V17.1875C24.2189 16.7563 24.5689 16.4062 25.0001 16.4062C25.4314 16.4062 25.7814 16.7563 25.7814 17.1875V26.5625V29.6875H27.3439V26.5625C27.3439 26.1313 27.6939 25.7812 28.1251 25.7812C28.5564 25.7812 28.9064 26.1313 28.9064 26.5625V29.6875H30.4689V26.5625C30.4689 26.1313 30.8189 25.7812 31.2501 25.7812C31.6814 25.7812 32.0314 26.1313 32.0314 26.5625V28.125V29.6875H33.5939V28.125C33.5939 27.6938 33.9439 27.3438 34.3751 27.3438C34.8064 27.3438 35.1564 27.6938 35.1564 28.125V38.2812Z" fill="#0162CA"/>
</g>
<defs>
<clipPath id="clip0_387_436">
<rect width="50" height="50" fill="white"/>
</clipPath>
</defs>
</svg>
