<svg width="50" height="50" viewBox="0 0 50 50" fill="none" xmlns="http://www.w3.org/2000/svg">
<g clip-path="url(#clip0_664_1568)">
<path d="M16.0216 22.2126H19.8365C20.8302 22.2126 21.6385 21.4043 21.6385 20.4106V19.0837C21.6385 18.0901 20.8302 17.2818 19.8365 17.2818H16.0216C15.028 17.2818 14.2197 18.0901 14.2197 19.0837V20.4106C14.2196 21.4043 15.028 22.2126 16.0216 22.2126ZM15.7821 19.0837C15.7821 18.9539 15.8917 18.8443 16.0215 18.8443H19.8364C19.9662 18.8443 20.0759 18.9539 20.0759 19.0837V20.4106C20.0759 20.5404 19.9662 20.6501 19.8364 20.6501H16.0215C15.8917 20.6501 15.7821 20.5404 15.7821 20.4106V19.0837ZM11.454 31.5972H7.63906C6.64551 31.5972 5.83721 32.4055 5.83721 33.3991V34.7261C5.83721 35.7197 6.64551 36.528 7.63906 36.528H11.454C12.4476 36.528 13.2559 35.7197 13.2559 34.7261V33.3991C13.2559 32.4055 12.4476 31.5972 11.454 31.5972ZM11.6934 34.7261C11.6934 34.8559 11.5838 34.9655 11.454 34.9655H7.63906C7.50928 34.9655 7.39971 34.8559 7.39971 34.7261V33.3991C7.39971 33.2693 7.50928 33.1597 7.63906 33.1597H11.454C11.5838 33.1597 11.6934 33.2693 11.6934 33.3991V34.7261ZM11.454 24.4395H7.63906C6.64551 24.4395 5.83721 25.2478 5.83721 26.2414V27.5684C5.83721 28.562 6.64551 29.3703 7.63906 29.3703H11.454C12.4476 29.3703 13.2559 28.562 13.2559 27.5684V26.2414C13.2559 25.2478 12.4476 24.4395 11.454 24.4395ZM11.6934 27.5684C11.6934 27.6981 11.5838 27.8078 11.454 27.8078H7.63906C7.50928 27.8078 7.39971 27.6981 7.39971 27.5684V26.2414C7.39971 26.1116 7.50928 26.002 7.63906 26.002H11.454C11.5838 26.002 11.6934 26.1116 11.6934 26.2414V27.5684ZM21.6385 33.3991C21.6385 32.4055 20.8302 31.5972 19.8365 31.5972H16.0216C15.028 31.5972 14.2197 32.4055 14.2197 33.3991V34.7261C14.2197 35.7197 15.028 36.528 16.0216 36.528H19.8365C20.8302 36.528 21.6385 35.7197 21.6385 34.7261V33.3991ZM20.076 34.7261C20.076 34.8559 19.9663 34.9655 19.8365 34.9655H16.0216C15.8918 34.9655 15.7822 34.8559 15.7822 34.7261V33.3991C15.7822 33.2693 15.8918 33.1597 16.0216 33.1597H19.8365C19.9663 33.1597 20.076 33.2693 20.076 33.3991V34.7261ZM11.454 17.2818H7.63906C6.64551 17.2818 5.83721 18.0901 5.83721 19.0837V20.4106C5.83721 21.4043 6.64551 22.2126 7.63906 22.2126H11.454C12.4476 22.2126 13.2559 21.4043 13.2559 20.4106V19.0837C13.2559 18.0901 12.4476 17.2818 11.454 17.2818ZM11.6934 20.4106C11.6934 20.5404 11.5838 20.6501 11.454 20.6501H7.63906C7.50928 20.6501 7.39971 20.5404 7.39971 20.4106V19.0837C7.39971 18.9539 7.50928 18.8443 7.63906 18.8443H11.454C11.5838 18.8443 11.6934 18.9539 11.6934 19.0837V20.4106ZM16.0216 29.3703H19.8365C20.8302 29.3703 21.6385 28.562 21.6385 27.5684V26.2414C21.6385 25.2478 20.8302 24.4395 19.8365 24.4395H16.0216C15.028 24.4395 14.2197 25.2478 14.2197 26.2414V27.5684C14.2196 28.562 15.028 29.3703 16.0216 29.3703ZM15.7821 26.2414C15.7821 26.1116 15.8917 26.002 16.0215 26.002H19.8364C19.9662 26.002 20.0759 26.1116 20.0759 26.2414V27.5684C20.0759 27.6981 19.9662 27.8078 19.8364 27.8078H16.0215C15.8917 27.8078 15.7821 27.6981 15.7821 27.5684V26.2414ZM48.2223 30.9816C46.7961 28.4776 44.6214 25.6475 41.4237 22.1402C42.3109 21.6768 42.9183 20.7481 42.9183 19.6798C42.9183 18.2562 41.8401 17.08 40.4577 16.9234L42.4059 14.9752C43.5092 13.8718 43.5092 12.0766 42.4058 10.9732C41.4719 10.0396 39.9869 9.88008 38.875 10.5938C38.7911 10.6479 38.7163 10.6546 38.6239 10.6161C38.5319 10.578 38.4835 10.5201 38.4622 10.4228C38.1919 9.18447 37.1109 8.27432 35.8582 8.20147V5.22139C35.8581 2.34229 33.5158 0 30.6368 0H5.22129C2.34219 0 0 2.34229 0 5.22139V37.6797C0 40.5587 2.34219 42.901 5.22129 42.901H22.811C22.8848 43.0369 22.9605 43.1723 23.0401 43.3064C25.497 47.4521 30.2301 50.0002 35.4404 50H35.9537C41.1638 50 45.8974 47.4518 48.354 43.3064C50.586 39.54 50.5381 35.0478 48.2223 30.9816ZM41.3557 19.6798C41.3557 20.3481 40.8119 20.8919 40.1436 20.8919H31.2506C30.5821 20.8919 30.0384 20.3481 30.0384 19.6797C30.0384 19.0113 30.5821 18.4677 31.2506 18.4677H40.1436C40.8119 18.4677 41.3557 19.0115 41.3557 19.6798ZM36.9356 10.7562C37.0658 11.3518 37.4632 11.8269 38.0258 12.0598C38.5887 12.2935 39.206 12.2382 39.7189 11.9088C40.2173 11.5892 40.8828 11.6602 41.301 12.0783C41.5388 12.3161 41.6696 12.6342 41.6696 12.9743C41.6696 13.3145 41.5387 13.6326 41.3009 13.8704L38.2662 16.9053H33.1281L30.0933 13.8704C29.8554 13.6326 29.7245 13.3145 29.7245 12.9743C29.7245 12.6342 29.8555 12.3161 30.0933 12.0783C30.5112 11.6601 31.1766 11.5887 31.6754 11.9088C32.1884 12.238 32.8054 12.293 33.3683 12.06C33.9313 11.8268 34.3286 11.3516 34.4586 10.7561C34.5851 10.1772 35.106 9.75713 35.6972 9.75703C36.2884 9.75693 36.8092 10.1771 36.9356 10.7562ZM28.2155 12.4207H6.70127C6.57148 12.4207 6.46182 12.311 6.46182 12.1813V8.1749C6.46182 8.04512 6.57148 7.93555 6.70127 7.93555H29.1567C29.2865 7.93555 29.3962 8.04512 29.3962 8.1749V10.6383C29.2519 10.736 29.1147 10.847 28.9883 10.9734C28.5878 11.3738 28.3226 11.8748 28.2155 12.4207ZM5.22129 41.3385C3.20381 41.3385 1.5625 39.6972 1.5625 37.6797V5.22139C1.5625 3.20391 3.20381 1.5625 5.22129 1.5625H30.6368C32.6543 1.5625 34.2956 3.20391 34.2956 5.22139V8.57197C33.6184 8.96172 33.1064 9.62422 32.9321 10.4229C32.9107 10.5203 32.8624 10.5782 32.7705 10.6162C32.6784 10.6547 32.6033 10.6477 32.5192 10.5938C32.0433 10.2884 31.499 10.1441 30.9588 10.1508V8.1749C30.9588 7.18135 30.1505 6.37305 29.1568 6.37305H6.70127C5.70762 6.37305 4.89932 7.18135 4.89932 8.1749V12.1812C4.89932 13.1748 5.70762 13.9831 6.70127 13.9831H28.3462C28.4859 14.3515 28.7022 14.6891 28.9883 14.9752L30.9366 16.9234C30.3199 16.9933 29.7641 17.266 29.3372 17.6732C29.0297 17.4289 28.6415 17.2817 28.219 17.2817H24.4042C23.4105 17.2817 22.6022 18.09 22.6022 19.0836V20.4105C22.6022 21.4042 23.4105 22.2125 24.4042 22.2125H28.219C28.6773 22.2125 29.0949 22.0392 29.4133 21.7563C29.582 21.9059 29.7689 22.0349 29.9704 22.1401C29.2407 22.9404 28.5646 23.7054 27.9381 24.4394H24.4041C23.4104 24.4394 22.6021 25.2477 22.6021 26.2413V27.5684C22.6021 28.484 23.2892 29.2407 24.1745 29.354C23.8056 29.9131 23.4719 30.4547 23.1718 30.9816C21.2476 34.3602 20.8907 38.0324 22.1048 41.3385H5.22129ZM28.4585 19.0837V20.4106C28.4585 20.5404 28.3488 20.6501 28.219 20.6501H24.4042C24.2744 20.6501 24.1647 20.5404 24.1647 20.4106V19.0837C24.1647 18.9539 24.2744 18.8443 24.4042 18.8443H28.219C28.3488 18.8443 28.4585 18.9539 28.4585 19.0837ZM25.253 27.8078H24.4042C24.2744 27.8078 24.1647 27.6981 24.1647 27.5684V26.2414C24.1647 26.1116 24.2744 26.002 24.4042 26.002H26.6425C26.1412 26.6257 25.6789 27.2267 25.253 27.8078ZM47.0099 42.5099C44.8342 46.1812 40.6143 48.4375 35.954 48.4375C35.8684 48.4375 35.5258 48.4375 35.4401 48.4375C30.7803 48.4375 26.5599 46.1811 24.3843 42.5099C22.4178 39.1916 22.4694 35.3722 24.5294 31.7549C25.995 29.1817 28.3104 26.2209 31.8038 22.4545H39.59C43.0835 26.2209 45.3988 29.1818 46.8645 31.7549C48.9246 35.3721 48.9763 39.1916 47.0099 42.5099ZM39.8758 37.8757C39.9798 38.7326 39.7497 39.5152 39.2105 40.1388C38.5968 40.8483 37.5891 41.3293 36.4403 41.4784V42.2704C36.4403 42.7019 36.0905 43.0517 35.6591 43.0517C35.2276 43.0517 34.8778 42.7019 34.8778 42.2704V41.4667C33.1607 41.2031 31.831 40.1001 31.4408 38.5354C31.3365 38.1168 31.5912 37.6928 32.0099 37.5884C32.4285 37.4846 32.8525 37.7388 32.9569 38.1574C33.286 39.4776 34.5836 39.952 35.6501 39.9646C35.6602 39.9643 35.6703 39.9645 35.6804 39.9648C35.715 39.9648 35.748 39.9647 35.7813 39.9638C36.7209 39.9414 37.6029 39.6088 38.0287 39.1166C38.2788 38.8274 38.3757 38.4832 38.3248 38.0641C38.2022 37.055 37.3441 36.473 35.5424 36.1771C32.5371 35.6838 31.8366 34.1478 31.7783 32.9459C31.6975 31.2815 32.859 29.8875 34.6687 29.4771C34.7375 29.4614 34.8073 29.4474 34.8779 29.4349V28.6196C34.8779 28.1882 35.2277 27.8384 35.6592 27.8384C36.0906 27.8384 36.4404 28.1882 36.4404 28.6196V29.4281C37.7008 29.6374 38.9327 30.384 39.555 31.8659C39.7221 32.2637 39.535 32.7217 39.1371 32.8887C38.7399 33.0556 38.2814 32.8688 38.1144 32.4708C37.6532 31.3728 36.6654 30.9264 35.7106 30.9238C35.6826 30.9257 35.6541 30.926 35.6255 30.9247C35.4175 30.93 35.2119 30.956 35.0144 31.0008C34.1699 31.1923 33.2863 31.784 33.3391 32.8701C33.3573 33.2456 33.4058 34.243 35.7956 34.6352C36.7259 34.788 39.5573 35.2529 39.8758 37.8757Z" fill="#0162CA"/>
</g>
<defs>
<clipPath id="clip0_664_1568">
<rect width="50" height="50" fill="white"/>
</clipPath>
</defs>
</svg>
