<svg width="70" height="71" viewBox="0 0 70 71" fill="none" xmlns="http://www.w3.org/2000/svg">
<g clip-path="url(#clip0_1324_192)">
<mask id="mask0_1324_192" style="mask-type:luminance" maskUnits="userSpaceOnUse" x="0" y="0" width="70" height="71">
<path d="M70 0.5H0V70.5H70V0.5Z" fill="white"/>
</mask>
<g mask="url(#mask0_1324_192)">
<path d="M42.7093 31.4435L51.8233 37.9314C52.2284 38.2198 52.7716 38.2198 53.1767 37.9314L62.2907 31.4435C64.1893 30.0988 65.3223 27.9205 65.3333 25.5939V11.7899C65.334 11.3254 65.0591 10.9047 64.6333 10.7189L52.9667 5.67887C52.6718 5.5517 52.3375 5.5517 52.0427 5.67887L40.376 10.7189C39.9503 10.9047 39.6753 11.3254 39.676 11.7899V25.5939C39.685 27.9187 40.8144 30.0966 42.7093 31.4435ZM42 12.5564L52.5 8.02154L63 12.5564V25.5939C62.9915 27.1686 62.2228 28.6421 60.9362 29.55L52.5 35.549L44.0638 29.543C42.7788 28.6369 42.0102 27.1662 42 25.5939V12.5564Z" fill="#DD3333"/>
<path d="M49.4667 28.2671C49.9707 28.6454 50.6841 28.555 51.0778 28.0629L60.4112 16.3963C60.8139 15.8931 60.7324 15.1586 60.2292 14.7559C59.7259 14.3532 58.9915 14.4347 58.5888 14.9379L49.9555 25.7226L46.2 22.9004C45.8665 22.6504 45.425 22.5972 45.0417 22.7609C44.6584 22.9246 44.3916 23.2804 44.3417 23.6942C44.2919 24.108 44.4666 24.517 44.8 24.7671L49.4667 28.2671Z" fill="#DD3333"/>
<path d="M2.33333 62.3335H3.5V67.0002C3.5 68.9332 5.067 70.5002 7 70.5002H14C15.933 70.5002 17.5 68.9332 17.5 67.0002V62.3335H45.5V67.0002C45.5 68.9332 47.067 70.5002 49 70.5002H56C57.933 70.5002 59.5 68.9332 59.5 67.0002V62.3335H60.6667C61.9553 62.3335 63 61.2888 63 60.0002V42.5002C63.0043 40.8093 62.267 39.2017 60.9828 38.1018L64.9962 35.2458C68.124 33.0246 69.9874 29.4303 70 25.594V8.72286C70.0007 8.25834 69.7257 7.83767 69.3 7.65186L52.9667 0.595863C52.6718 0.468697 52.3375 0.468697 52.0427 0.595863L35.7 7.65186C35.2743 7.83767 34.9993 8.25834 35 8.72286V13.3335H17.3483C14.8749 13.3343 12.6708 14.895 11.8487 17.2278L4.977 36.7532C2.12427 37.173 0.00796503 39.6167 0 42.5002V60.0002C0 61.2888 1.04467 62.3335 2.33333 62.3335ZM15.1667 67.0002C15.1667 67.6445 14.6443 68.1668 14 68.1668H7C6.35567 68.1668 5.83333 67.6445 5.83333 67.0002V62.3335H15.1667V67.0002ZM10.5 60.0002H8.16667V57.6668H10.5V60.0002ZM57.1667 67.0002C57.1667 67.6445 56.6443 68.1668 56 68.1668H49C48.3557 68.1668 47.8333 67.6445 47.8333 67.0002V62.3335H57.1667V67.0002ZM54.8333 60.0002H52.5V57.6668H54.8333V60.0002ZM37.3333 9.48936L52.5 2.93736L67.6667 9.48936V25.5893C67.6551 28.6711 66.1566 31.5578 63.6428 33.3407L52.5 41.2775L41.3572 33.3442C38.8437 31.5615 37.3453 28.6754 37.3333 25.594V9.48936ZM54.8333 43.6668C55.4777 43.6668 56 44.1892 56 44.8335V47.1668C56 47.8112 55.4777 48.3335 54.8333 48.3335H47.8333C47.189 48.3335 46.6667 47.8112 46.6667 47.1668C46.6667 45.2338 48.2337 43.6668 50.1667 43.6668H54.8333ZM35 20.3335V22.6668H26.8333V20.3335H35ZM35 18.0002H32.6667V15.6668H35V18.0002ZM14.0502 18.0002C14.5444 16.6023 15.8657 15.6675 17.3483 15.6668H30.3333V18.0002H26.8333C25.5447 18.0002 24.5 19.0448 24.5 20.3335V22.6668C24.5 23.9555 25.5447 25.0002 26.8333 25.0002H35V25.594C35.0126 29.4303 36.876 33.0246 40.0038 35.2458L42 36.6668H7.48067L14.0502 18.0002ZM2.33333 42.5002C2.33333 40.5672 3.90034 39.0002 5.83333 39.0002H45.2783L48.804 41.5108C46.1876 42.1394 44.3407 44.476 44.3333 47.1668C44.3333 49.0998 45.9003 50.6668 47.8333 50.6668H54.8333C56.7663 50.6668 58.3333 49.0998 58.3333 47.1668V44.8335C58.3295 43.3923 57.4428 42.1009 56.0992 41.5797L58.9878 39.5228C60.0341 40.149 60.6723 41.2808 60.6667 42.5002V60.0002H57.1667V57.6668C57.1667 56.3782 56.122 55.3335 54.8333 55.3335H52.5C51.2113 55.3335 50.1667 56.3782 50.1667 57.6668V60.0002H12.8333V57.6668C12.8333 56.3782 11.7887 55.3335 10.5 55.3335H8.16667C6.878 55.3335 5.83333 56.3782 5.83333 57.6668V60.0002H2.33333V42.5002Z" fill="#DD3333"/>
<path d="M21 18H19.0038C17.5207 18.0017 16.1988 18.9358 15.7022 20.3333L11.3225 32.7793C11.1086 33.3873 11.428 34.0535 12.0359 34.2674C12.6438 34.4813 13.3101 34.1619 13.524 33.554L17.9037 21.1127C18.068 20.6458 18.5089 20.3335 19.0038 20.3333H21C21.6443 20.3333 22.1667 19.811 22.1667 19.1667C22.1667 18.5223 21.6443 18 21 18Z" fill="#DD3333"/>
<path d="M8.16666 50.6668H15.1667C17.0997 50.6668 18.6667 49.0998 18.6667 47.1668C18.6628 43.9467 16.0534 41.3373 12.8333 41.3335H8.16666C6.23366 41.3335 4.66666 42.9005 4.66666 44.8335V47.1668C4.66666 49.0998 6.23366 50.6668 8.16666 50.6668ZM6.99999 44.8335C6.99999 44.1891 7.52232 43.6668 8.16666 43.6668H12.8333C14.7663 43.6668 16.3333 45.2338 16.3333 47.1668C16.3333 47.8111 15.811 48.3335 15.1667 48.3335H8.16666C7.52232 48.3335 6.99999 47.8111 6.99999 47.1668V44.8335Z" fill="#DD3333"/>
<path d="M23.3333 57.6668H39.6667C40.9553 57.6668 42 56.6221 42 55.3335V50.6668C42 49.3781 40.9553 48.3335 39.6667 48.3335H23.3333C22.0447 48.3335 21 49.3781 21 50.6668V55.3335C21 56.6221 22.0447 57.6668 23.3333 57.6668ZM23.3333 50.6668H39.6667V55.3335H23.3333V50.6668Z" fill="#DD3333"/>
</g>
</g>
<defs>
<clipPath id="clip0_1324_192">
<rect width="70" height="70" fill="white" transform="translate(0 0.5)"/>
</clipPath>
</defs>
</svg>
