<svg width="50" height="50" viewBox="0 0 50 50" fill="none" xmlns="http://www.w3.org/2000/svg">
<g clip-path="url(#clip0_582_706)">
<path d="M30.129 16.0412C29.696 16.0412 29.3477 15.6929 29.3477 15.2599V11.9394H25.1221C24.6892 11.9394 24.3408 11.5911 24.3408 11.158C24.3408 10.725 24.6891 10.3767 25.1221 10.3767H30.129C30.5619 10.3767 30.9103 10.725 30.9103 11.158V15.2599C30.9102 15.6897 30.5619 16.0412 30.129 16.0412Z" fill="#0162CA"/>
<path d="M30.1287 45.3007H3.98786C3.55492 45.3007 3.20654 44.9524 3.20654 44.5194V11.1549C3.20654 10.7219 3.55483 10.3735 3.98786 10.3735H8.9947C9.42764 10.3735 9.77602 10.7218 9.77602 11.1549C9.77602 11.5879 9.42774 11.9362 8.9947 11.9362H4.76909V43.7349H29.3474V40.7725C29.3474 40.3396 29.6957 39.9912 30.1287 39.9912C30.5617 39.9912 30.91 40.3395 30.91 40.7725V44.5162C30.9099 44.9492 30.5616 45.3007 30.1287 45.3007Z" fill="#0162CA"/>
<path d="M25.122 13.3815H8.9947C8.56176 13.3815 8.21338 13.0332 8.21338 12.6002V6.77297C8.21338 5.55546 9.20304 4.5658 10.4206 4.5658H12.7644C13.1974 4.5658 13.5457 4.91408 13.5457 5.34712C13.5457 5.78015 13.1975 6.12844 12.7644 6.12844H10.4206C10.0657 6.12844 9.77602 6.41818 9.77602 6.77297V11.8188H24.3406V6.77297C24.3406 6.41808 24.0509 6.12844 23.6961 6.12844H21.3522C20.9193 6.12844 20.5709 5.78015 20.5709 5.34712C20.5709 4.91408 20.9192 4.5658 21.3522 4.5658H23.6961C24.9136 4.5658 25.9033 5.55546 25.9033 6.77297V12.6002C25.9033 13.0331 25.5549 13.3815 25.122 13.3815Z" fill="#0162CA"/>
<path d="M33.3385 48.5073H0.781321C0.348382 48.5073 0 48.159 0 47.726V7.94831C0 7.51537 0.348283 7.16699 0.781321 7.16699H8.99465C9.42759 7.16699 9.77597 7.51528 9.77597 7.94831C9.77597 8.38125 9.42769 8.72963 8.99465 8.72963H1.56254V46.9448H32.5572V40.9288C32.5572 40.4958 32.9055 40.1474 33.3385 40.1474C33.7715 40.1474 34.1198 40.4957 34.1198 40.9288V47.726C34.1198 48.1557 33.7683 48.5073 33.3385 48.5073Z" fill="#0162CA"/>
<path d="M33.3387 15.8883C32.9058 15.8883 32.5574 15.54 32.5574 15.1069V8.72963H25.1221C24.6892 8.72963 24.3408 8.38135 24.3408 7.94831C24.3408 7.51537 24.6891 7.16699 25.1221 7.16699H33.3355C33.7684 7.16699 34.1168 7.51528 34.1168 7.94831V15.1069C34.12 15.5366 33.7685 15.8883 33.3387 15.8883Z" fill="#0162CA"/>
<path d="M21.352 7.83108H12.7642C12.3313 7.83108 11.9829 7.48279 11.9829 7.04976V2.27412C11.9829 1.84118 12.3312 1.4928 12.7642 1.4928H21.352C21.7849 1.4928 22.1333 1.84108 22.1333 2.27412V7.04976C22.1332 7.48269 21.7849 7.83108 21.352 7.83108ZM13.5455 6.26843H20.5706V3.05544H13.5455V6.26843Z" fill="#0162CA"/>
<path d="M22.7583 20.1006H14.5645C14.1316 20.1006 13.7832 19.7523 13.7832 19.3193C13.7832 18.8863 14.1315 18.538 14.5645 18.538H22.7583C23.1913 18.538 23.5397 18.8862 23.5397 19.3193C23.5396 19.7523 23.188 20.1006 22.7583 20.1006Z" fill="#0162CA"/>
<path d="M9.27131 20.6898C9.06297 20.6898 8.86438 20.6084 8.71794 20.462L7.70216 19.4463C7.39616 19.1403 7.39616 18.6455 7.70216 18.3427C8.00816 18.04 8.50299 18.0367 8.80575 18.3427L9.26805 18.805L11.0683 17.0048C11.3743 16.6988 11.8691 16.6988 12.1719 17.0048C12.4779 17.3108 12.4779 17.8056 12.1719 18.1084L9.81827 20.462C9.67823 20.6052 9.47964 20.6898 9.27131 20.6898Z" fill="#0162CA"/>
<path d="M19.6234 26.4097H14.5645C14.1316 26.4097 13.7832 26.0614 13.7832 25.6284C13.7832 25.1953 14.1315 24.847 14.5645 24.847H19.6234C20.0563 24.847 20.4047 25.1953 20.4047 25.6284C20.4047 26.0614 20.0532 26.4097 19.6234 26.4097Z" fill="#0162CA"/>
<path d="M9.27121 26.9956C9.06287 26.9956 8.86429 26.9142 8.71784 26.7678L7.70216 25.7521C7.39616 25.4461 7.39616 24.9513 7.70216 24.6485C8.00816 24.3425 8.50299 24.3425 8.80575 24.6485L9.26805 25.1108L11.0683 23.3106C11.3743 23.0046 11.8691 23.0046 12.1719 23.3106C12.4779 23.6166 12.4779 24.1114 12.1719 24.4141L9.81827 26.7678C9.67813 26.9142 9.47955 26.9956 9.27121 26.9956Z" fill="#0162CA"/>
<path d="M20.0043 32.7152H14.5645C14.1316 32.7152 13.7832 32.3669 13.7832 31.9339C13.7832 31.5009 14.1315 31.1526 14.5645 31.1526H20.0043C20.4372 31.1526 20.7856 31.5009 20.7856 31.9339C20.7856 32.3669 20.4373 32.7152 20.0043 32.7152Z" fill="#0162CA"/>
<path d="M9.27131 33.3045C9.06297 33.3045 8.86438 33.2231 8.71794 33.0766L7.70216 32.0609C7.39616 31.7549 7.39616 31.2601 7.70216 30.9573C8.00816 30.6513 8.50299 30.6513 8.80575 30.9573L9.26805 31.4196L11.0683 29.6194C11.3743 29.3134 11.8691 29.3134 12.1719 29.6194C12.4779 29.9254 12.4779 30.4202 12.1719 30.723L9.81827 33.0766C9.67823 33.2231 9.47964 33.3045 9.27131 33.3045Z" fill="#0162CA"/>
<path d="M24.4056 39.0243H14.5645C14.1316 39.0243 13.7832 38.676 13.7832 38.243C13.7832 37.81 14.1315 37.4617 14.5645 37.4617H24.4056C24.8386 37.4617 25.187 37.81 25.187 38.243C25.187 38.676 24.8386 39.0243 24.4056 39.0243Z" fill="#0162CA"/>
<path d="M9.27121 39.6135C9.06287 39.6135 8.86429 39.5321 8.71784 39.3857L7.70216 38.37C7.39616 38.064 7.39616 37.5692 7.70216 37.2664C8.00816 36.9604 8.50299 36.9604 8.80575 37.2664L9.26805 37.7287L11.0683 35.9285C11.3743 35.6225 11.8691 35.6225 12.1719 35.9285C12.4779 36.2345 12.4779 36.7293 12.1719 37.0321L9.81827 39.3857C9.67813 39.5289 9.47955 39.6135 9.27121 39.6135Z" fill="#0162CA"/>
<path d="M32.3489 41.7458C30.4967 41.7458 28.6964 41.3812 27.0036 40.665C25.3694 39.9749 23.9012 38.9852 22.6414 37.7222C21.3816 36.4624 20.3919 34.9941 19.6985 33.36C18.9823 31.6671 18.6177 29.8701 18.6177 28.0146C18.6177 26.159 18.9823 24.362 19.6985 22.6692C20.3887 21.035 21.3783 19.5668 22.6414 18.307C23.9044 17.0472 25.3694 16.0576 27.0036 15.3641C28.6964 14.648 30.4934 14.2833 32.3489 14.2833C34.2045 14.2833 36.0015 14.648 37.6943 15.3641C39.3285 16.0543 40.7967 17.044 42.0565 18.307C43.3163 19.5668 44.306 21.035 44.9994 22.6692C45.7156 24.362 46.0802 26.159 46.0802 28.0146C46.0802 29.8701 45.7156 31.6671 44.9994 33.36C44.3092 34.9941 43.3196 36.4624 42.0565 37.7222C40.7967 38.982 39.3285 39.9716 37.6943 40.665C36.0015 41.3845 34.2012 41.7458 32.3489 41.7458ZM32.3489 15.8491C25.6396 15.8491 20.1835 21.3084 20.1835 28.0178C20.1835 34.7273 25.6428 40.1833 32.3489 40.1833C39.0551 40.1833 44.5144 34.724 44.5144 28.0178C44.5144 21.3117 39.0583 15.8491 32.3489 15.8491Z" fill="#0162CA"/>
<path d="M32.349 37.3967C29.8423 37.3967 27.4887 36.42 25.7177 34.6491C23.9468 32.8781 22.9702 30.5213 22.9702 28.0178C22.9702 25.5144 23.9469 23.1576 25.7177 21.3866C27.4887 19.6156 29.8456 18.639 32.349 18.639C34.8524 18.639 37.2093 19.6157 38.9803 21.3866C40.7513 23.1576 41.7278 25.5144 41.7278 28.0178C41.7278 30.5213 40.7512 32.8781 38.9803 34.6491C37.2093 36.42 34.8556 37.3967 32.349 37.3967ZM32.349 20.2016C30.2623 20.2016 28.2993 21.0154 26.8213 22.4902C25.3466 23.9649 24.5328 25.9279 24.5328 28.0178C24.5328 30.1078 25.3466 32.0675 26.8213 33.5455C28.2961 35.0203 30.259 35.8341 32.349 35.8341C34.439 35.8341 36.3987 35.0203 37.8767 33.5455C39.3547 32.0708 40.1653 30.1078 40.1653 28.0178C40.1653 25.9279 39.3514 23.9681 37.8767 22.4902C36.3987 21.0155 34.4389 20.2016 32.349 20.2016Z" fill="#0162CA"/>
<path d="M32.3491 33.0442C31.6785 33.0442 31.0307 32.9172 30.4219 32.6665C29.8164 32.4159 29.2663 32.048 28.7942 31.5727C28.3189 31.0974 27.9511 30.5505 27.7004 29.945C27.4498 29.3395 27.3228 28.6917 27.3228 28.0178C27.3228 27.3439 27.4497 26.6994 27.7004 26.0906C27.951 25.4851 28.3189 24.935 28.7942 24.4629C29.2696 23.9876 29.8164 23.6198 30.4219 23.3691C31.0274 23.1185 31.6752 22.9915 32.3491 22.9915C33.023 22.9915 33.6675 23.1184 34.2763 23.3691C34.8818 23.6197 35.4319 23.9876 35.904 24.4629C36.3793 24.9383 36.7471 25.4851 36.9978 26.0906C37.2484 26.6961 37.3755 27.3439 37.3755 28.0178C37.3755 28.6917 37.2485 29.3362 36.9978 29.945C36.7472 30.5505 36.3793 31.1006 35.904 31.5727C35.4287 32.048 34.8818 32.4158 34.2763 32.6665C33.6708 32.9171 33.0229 33.0442 32.3491 33.0442ZM32.3491 24.5508C31.8835 24.5508 31.4376 24.6388 31.0209 24.8113C30.6042 24.9839 30.2266 25.2378 29.8978 25.5665C29.5691 25.8953 29.3151 26.2729 29.1426 26.6896C28.9701 27.1063 28.8821 27.5523 28.8821 28.0178C28.8821 28.4833 28.9701 28.9293 29.1426 29.346C29.3152 29.7627 29.5691 30.1403 29.8978 30.4691C30.2266 30.7979 30.6042 31.0518 31.0209 31.2243C31.4376 31.3968 31.8836 31.4848 32.3491 31.4848C32.8147 31.4848 33.2606 31.3969 33.6773 31.2243C34.094 31.0517 34.4716 30.7979 34.8004 30.4691C35.1292 30.1403 35.3831 29.7627 35.5556 29.346C35.7282 28.9293 35.8161 28.4833 35.8161 28.0178C35.8161 27.5523 35.7282 27.1063 35.5556 26.6896C35.383 26.2729 35.1292 25.8953 34.8004 25.5665C34.4716 25.2378 34.094 24.9838 33.6773 24.8113C33.2606 24.6389 32.8146 24.5508 32.3491 24.5508Z" fill="#0162CA"/>
<path d="M32.3489 28.7992C32.1503 28.7992 31.9485 28.7243 31.7954 28.5713C31.4894 28.2653 31.4894 27.7705 31.7954 27.4677L43.9934 15.2665C44.2994 14.9605 44.7942 14.9605 45.097 15.2665C45.403 15.5725 45.403 16.0673 45.097 16.3701L32.899 28.568C32.7493 28.721 32.5507 28.7992 32.3489 28.7992Z" fill="#0162CA"/>
<path d="M44.5468 16.6012C44.3417 16.6012 44.1399 16.5198 43.9933 16.3733C43.837 16.217 43.7525 15.9989 43.7655 15.7743L43.9022 13.45C43.9119 13.2579 43.9933 13.0788 44.13 12.9421L46.4804 10.5918C46.7082 10.3639 47.0566 10.2988 47.3529 10.4322C47.6491 10.5656 47.8314 10.8684 47.8119 11.1908L47.7273 12.6361L49.1726 12.5515C49.4981 12.532 49.7976 12.7143 49.9312 13.0105C50.0646 13.3068 49.9996 13.6551 49.7716 13.883L47.4213 16.2334C47.2846 16.3701 47.1055 16.4482 46.9134 16.4612L44.5891 16.5979C44.5794 16.6012 44.5632 16.6012 44.5468 16.6012ZM45.4453 13.8373L45.3769 14.9864L46.526 14.918L47.2129 14.2311L46.9394 14.2473C46.7148 14.2604 46.5 14.179 46.3404 14.0195C46.1841 13.8632 46.0996 13.6451 46.1126 13.4205L46.1288 13.147L45.4453 13.8373Z" fill="#0162CA"/>
</g>
<defs>
<clipPath id="clip0_582_706">
<rect width="50" height="50" fill="white"/>
</clipPath>
</defs>
</svg>
