<svg width="52" height="52" viewBox="0 0 52 52" fill="none" xmlns="http://www.w3.org/2000/svg">
<g clip-path="url(#clip0_1819_1628)">
<path d="M14.1918 11.5482C13.8446 11.1553 13.2447 11.1184 12.8519 11.4656C12.459 11.8128 12.4221 12.4127 12.7693 12.8055L14.1345 14.3501C14.3898 14.6389 14.7578 14.808 15.1485 14.808H18.6009C19.1252 14.808 19.5502 14.383 19.5502 13.8587C19.5502 13.3344 19.1252 12.9094 18.6009 12.9094H15.395L14.1918 11.5482Z" fill="#DD3333"/>
<path d="M38.6002 12.8055C38.9474 12.4127 38.9105 11.8128 38.5176 11.4656C38.1248 11.1184 37.5249 11.1553 37.1777 11.5482L35.9745 12.9094H32.7686C32.2443 12.9094 31.8193 13.3344 31.8193 13.8587C31.8193 14.383 32.2443 14.808 32.7686 14.808H36.221C36.6117 14.808 36.9797 14.6389 37.235 14.3501L38.6002 12.8055Z" fill="#DD3333"/>
<path d="M18.9317 15.9365C18.4074 15.9365 17.9824 16.3616 17.9824 16.8858C17.9824 17.4101 18.4074 17.8351 18.9317 17.8351H32.4389C32.9632 17.8351 33.3882 17.4101 33.3882 16.8858C33.3882 16.3616 32.9632 15.9365 32.4389 15.9365H18.9317Z" fill="#DD3333"/>
<path fill-rule="evenodd" clip-rule="evenodd" d="M17.6994 0.96875C17.5049 0.96875 17.2917 1.01066 17.0874 1.11774C16.1494 1.60919 14.649 2.94893 13.9654 5.24863C13.7492 5.0975 13.485 5.00509 13.1916 5.00509H10.0486C8.57532 5.00509 7.41016 6.21639 7.41016 7.67431C7.41016 8.97816 8.34654 10.1087 9.64484 10.3121L11.0018 10.5247L10.832 10.7667C10.3245 11.4902 10.0529 12.355 10.0529 13.2404V16.4274C10.0529 17.4154 10.3857 18.3296 10.9464 19.0563C10.9027 19.1653 10.8788 19.2843 10.8788 19.4089V21.6182C10.8788 23.0424 12.0171 24.2264 13.4573 24.2264H17.2787C18.6401 24.2264 19.7145 23.1075 19.7145 21.7635C19.7145 21.2392 19.2895 20.8142 18.7653 20.8142C18.241 20.8142 17.816 21.2392 17.816 21.7635C17.816 22.0914 17.5594 22.3278 17.2787 22.3278H13.4573C13.0979 22.3278 12.7774 22.0263 12.7774 21.6182V20.4224C13.2378 20.5983 13.7375 20.6946 14.2607 20.6946H37.1073C37.6306 20.6946 38.1302 20.5983 38.5907 20.4224V21.6182C38.5907 22.0263 38.2702 22.3278 37.9107 22.3278H34.0893C33.8087 22.3278 33.5521 22.0914 33.5521 21.7635C33.5521 21.2392 33.127 20.8142 32.6028 20.8142C32.0785 20.8142 31.6535 21.2392 31.6535 21.7635C31.6535 23.1075 32.728 24.2264 34.0893 24.2264H37.9107C39.3509 24.2264 40.4893 23.0424 40.4893 21.6182V19.4089C40.4893 19.2843 40.4653 19.1653 40.4216 19.0563C40.9823 18.3296 41.3152 17.4154 41.3152 16.4274V13.2404C41.3152 12.355 41.0436 11.4902 40.536 10.7667L40.3662 10.5247L41.7232 10.3121C43.0214 10.1087 43.9579 8.97816 43.9579 7.67431C43.9579 6.21639 42.7927 5.00509 41.3195 5.00509H38.1765C37.883 5.00509 37.6188 5.0975 37.4026 5.24863C36.7191 2.94893 35.2186 1.60919 34.2806 1.11774C34.0763 1.01066 33.8632 0.96875 33.6686 0.96875H25.8307C25.7809 0.96875 25.7318 0.972595 25.684 0.979999C25.6362 0.972595 25.5872 0.96875 25.5373 0.96875H17.6994ZM17.1811 8.20055C16.7755 8.13472 16.0291 7.86146 15.3727 7.22601C15.4784 7.09624 15.5511 6.93685 15.5761 6.759C15.8928 4.50144 17.1868 3.2732 17.8495 2.86733H25.5373C25.5872 2.86733 25.6362 2.86349 25.684 2.85608C25.7318 2.86349 25.7809 2.86733 25.8307 2.86733H33.5186C34.1813 3.2732 35.4753 4.50144 35.792 6.759C35.817 6.93685 35.8897 7.09624 35.9953 7.22601C35.339 7.86146 34.5925 8.13472 34.1869 8.20055H17.1811ZM34.3146 10.0991L34.3744 10.0915C35.4241 9.95793 37.4662 9.13209 38.5242 6.90367H41.3195C41.712 6.90367 42.0593 7.23246 42.0593 7.67431C42.0593 8.06827 41.7791 8.38158 41.4294 8.43635L39.2215 8.78223C38.2054 8.94142 37.7546 10.1078 38.3218 10.9162L38.9817 11.8571C39.2637 12.2591 39.4166 12.7427 39.4166 13.2404V16.4274C39.4166 17.7518 38.3666 18.796 37.1073 18.796H14.2607C13.0014 18.796 11.9515 17.7518 11.9515 16.4274V13.2404C11.9515 12.7427 12.1043 12.2591 12.3863 11.8571L13.0463 10.9162C13.6134 10.1078 13.1627 8.94142 12.1466 8.78223L9.93864 8.43635C9.58892 8.38158 9.30874 8.06827 9.30874 7.67431C9.30874 7.23246 9.65609 6.90367 10.0486 6.90367H12.8438C13.9019 9.13209 15.9439 9.95793 16.9937 10.0915L17.0534 10.0991H34.3146Z" fill="#DD3333"/>
<path d="M6.4437 36.4344C6.77932 36.0316 7.3779 35.9772 7.78068 36.3128L9.20462 37.4995C9.60736 37.8351 9.6618 38.4337 9.32613 38.8364C8.99051 39.2392 8.39193 39.2936 7.98915 38.958L6.56521 37.7713C6.16247 37.4357 6.10803 36.8371 6.4437 36.4344Z" fill="#DD3333"/>
<path fill-rule="evenodd" clip-rule="evenodd" d="M49.6776 23.011C47.2584 21.5133 44.0872 22.2033 42.5088 24.5708L40.8379 27.0771C40.7463 27.2146 40.6203 27.3258 40.4726 27.3997L36.3843 29.4438C35.4496 28.563 34.1901 28.0233 32.8044 28.0233H28.9581C28.0798 28.0233 27.2186 27.7795 26.4705 27.3192L26.1313 27.1104C25.084 26.4659 23.8784 26.1247 22.6487 26.1247H19.0888C16.9899 26.1247 14.9643 26.8973 13.3986 28.2953L9.20756 32.0373L8.50195 31.3316C7.77161 30.6013 6.59145 30.5888 5.84578 31.3034L1.52731 35.4419C0.754116 36.1829 0.746427 37.4164 1.51042 38.167L13.6687 50.1118C14.4121 50.8423 15.605 50.8371 16.3418 50.1L20.4636 45.9782C21.2051 45.2368 21.2051 44.035 20.4636 43.2936L19.7595 42.5892C20.1655 42.3761 20.6197 42.2626 21.0836 42.2626H34.3559C35.8698 42.2626 37.3508 41.7484 38.5206 40.7523C40.3987 39.1528 43.623 36.2925 45.6398 33.8486C47.4283 31.682 49.4536 28.4597 50.5605 26.6323C51.3208 25.3769 50.9046 23.7705 49.6776 23.011ZM18.3798 41.2095C19.1718 40.6605 20.1148 40.364 21.0836 40.364H34.3559C35.4414 40.364 36.4803 39.9961 37.2896 39.3068C39.1686 37.7065 42.2762 34.9415 44.176 32.6401C45.8667 30.5913 47.8294 27.4766 48.9367 25.6486C49.1446 25.3051 49.0406 24.8497 48.6785 24.6253C47.1292 23.6664 45.0992 24.1082 44.0887 25.624L42.4176 28.1303C42.1427 28.5427 41.7649 28.8761 41.3216 29.0978L37.5194 30.999C37.8439 31.6791 38.0255 32.4405 38.0255 33.2444C38.0255 34.555 36.963 35.6176 35.6523 35.6176H24.9728C24.4485 35.6176 24.0235 35.1926 24.0235 34.6683C24.0235 34.144 24.4485 33.719 24.9728 33.719H35.6523C35.9145 33.719 36.127 33.5065 36.127 33.2444C36.127 31.4094 34.6394 29.9218 32.8044 29.9218H28.9581C27.7284 29.9218 26.5228 29.5806 25.4755 28.9361L25.1363 28.7273C24.3882 28.267 23.5271 28.0233 22.6487 28.0233H19.0888C17.4563 28.0233 15.8809 28.6242 14.6631 29.7115L10.5522 33.382L18.3798 41.2095ZM2.84094 36.8126L7.15941 32.6742L19.1212 44.6359L14.9993 48.7577L2.84094 36.8126Z" fill="#DD3333"/>
</g>
<defs>
<clipPath id="clip0_1819_1628">
<rect width="51" height="51" fill="white" transform="translate(0.5 0.5)"/>
</clipPath>
</defs>
</svg>
