<svg width="50" height="50" viewBox="0 0 50 50" fill="none" xmlns="http://www.w3.org/2000/svg">
<path d="M44.5312 46.875H5.46875C3.31406 46.875 1.5625 45.1234 1.5625 42.9688C1.5625 42.5375 1.9125 42.1875 2.34375 42.1875H19.5312C19.9625 42.1875 20.3125 42.5375 20.3125 42.9688C20.3125 43.4 19.9625 43.75 19.5312 43.75H3.25937C3.58125 44.6594 4.45 45.3125 5.46875 45.3125H44.5312C45.55 45.3125 46.4187 44.6594 46.7406 43.75H30.4688C30.0375 43.75 29.6875 43.4 29.6875 42.9688C29.6875 42.5375 30.0375 42.1875 30.4688 42.1875H47.6562C48.0875 42.1875 48.4375 42.5375 48.4375 42.9688C48.4375 45.1234 46.6859 46.875 44.5312 46.875Z" fill="#0162CA"/>
<path d="M5.46875 40.625C5.0375 40.625 4.6875 40.275 4.6875 39.8438V14.8438C4.6875 13.5516 5.73906 12.5 7.03125 12.5H14.8438C15.275 12.5 15.625 12.85 15.625 13.2812C15.625 13.7125 15.275 14.0625 14.8438 14.0625H7.03125C6.60156 14.0625 6.25 14.4141 6.25 14.8438V39.8438C6.25 40.275 5.9 40.625 5.46875 40.625Z" fill="#0162CA"/>
<path d="M44.5312 40.625C44.1 40.625 43.75 40.275 43.75 39.8438V35.1562C43.75 34.725 44.1 34.375 44.5312 34.375C44.9625 34.375 45.3125 34.725 45.3125 35.1562V39.8438C45.3125 40.275 44.9625 40.625 44.5312 40.625Z" fill="#0162CA"/>
<path d="M44.5312 23.4375C44.1 23.4375 43.75 23.0875 43.75 22.6562V14.8438C43.75 14.4141 43.3984 14.0625 42.9688 14.0625H41.4062C40.975 14.0625 40.625 13.7125 40.625 13.2812C40.625 12.85 40.975 12.5 41.4062 12.5H42.9688C44.2609 12.5 45.3125 13.5516 45.3125 14.8438V22.6562C45.3125 23.0875 44.9625 23.4375 44.5312 23.4375Z" fill="#0162CA"/>
<path d="M22.6562 40.625H19.5312C19.1 40.625 18.75 40.275 18.75 39.8438V27.3438C18.75 26.9125 19.1 26.5625 19.5312 26.5625H22.6562C23.0875 26.5625 23.4375 26.9125 23.4375 27.3438V39.8438C23.4375 40.275 23.0875 40.625 22.6562 40.625ZM20.3125 39.0625H21.875V28.125H20.3125V39.0625Z" fill="#0162CA"/>
<path d="M16.4062 40.625H13.2812C12.85 40.625 12.5 40.275 12.5 39.8438V24.2188C12.5 23.7875 12.85 23.4375 13.2812 23.4375H16.4062C16.8375 23.4375 17.1875 23.7875 17.1875 24.2188V39.8438C17.1875 40.275 16.8375 40.625 16.4062 40.625ZM14.0625 39.0625H15.625V25H14.0625V39.0625Z" fill="#0162CA"/>
<path d="M35.1562 40.625H32.0312C31.6 40.625 31.25 40.275 31.25 39.8438V33.5938C31.25 33.1625 31.6 32.8125 32.0312 32.8125H35.1562C35.5875 32.8125 35.9375 33.1625 35.9375 33.5938V39.8438C35.9375 40.275 35.5875 40.625 35.1562 40.625ZM32.8125 39.0625H34.375V34.375H32.8125V39.0625Z" fill="#0162CA"/>
<path d="M28.9062 40.625H25.7812C25.35 40.625 25 40.275 25 39.8438V30.4688C25 30.0375 25.35 29.6875 25.7812 29.6875H28.9062C29.3375 29.6875 29.6875 30.0375 29.6875 30.4688V39.8438C29.6875 40.275 29.3375 40.625 28.9062 40.625ZM26.5625 39.0625H28.125V31.25H26.5625V39.0625Z" fill="#0162CA"/>
<path d="M35.1733 21.1094L34.3921 21.4344L36.6015 23.6437C36.9062 23.9484 37.4015 23.9484 37.7062 23.6437C38.0108 23.3391 38.0108 22.8437 37.7062 22.5391L35.4968 20.3281L35.1733 21.1094Z" fill="#0162CA"/>
<path d="M28.125 25C22.0953 25 17.1875 20.0922 17.1875 14.0625C17.1875 8.03281 22.0953 3.125 28.125 3.125C34.1547 3.125 39.0625 8.03281 39.0625 14.0625C39.0625 20.0922 34.1547 25 28.125 25ZM28.125 4.6875C22.9547 4.6875 18.75 8.89219 18.75 14.0625C18.75 19.2328 22.9547 23.4375 28.125 23.4375C33.2953 23.4375 37.5 19.2328 37.5 14.0625C37.5 8.89219 33.2953 4.6875 28.125 4.6875Z" fill="#0162CA"/>
<path d="M35.1562 14.8438C35.5877 14.8438 35.9375 14.494 35.9375 14.0625C35.9375 13.631 35.5877 13.2812 35.1562 13.2812C34.7248 13.2812 34.375 13.631 34.375 14.0625C34.375 14.494 34.7248 14.8438 35.1562 14.8438Z" fill="#0162CA"/>
<path d="M28.125 21.8749C27.6938 21.8749 27.3438 21.5249 27.3438 21.0937C27.3438 20.6624 27.6938 20.3124 28.125 20.3124C30.675 20.3124 32.9484 18.7859 33.9141 16.4249C34.0766 16.0249 34.5344 15.8359 34.9328 15.9984C35.3328 16.1609 35.5234 16.6171 35.3594 17.0171C34.1516 19.9671 31.3125 21.8749 28.125 21.8749Z" fill="#0162CA"/>
<path d="M39.0625 23.4375C39.4625 23.4375 39.8625 23.5906 40.1672 23.8953L44.8547 28.5828C45.4656 29.1937 45.4656 30.1813 44.8547 30.7922C44.55 31.0969 44.15 31.25 43.75 31.25C43.35 31.25 42.95 31.0969 42.6453 30.7922L37.9578 26.1047C37.3469 25.4938 37.3469 24.5063 37.9578 23.8953C38.2625 23.5906 38.6625 23.4375 39.0625 23.4375ZM39.0625 21.875C38.2281 21.875 37.4438 22.2 36.8531 22.7906C36.2625 23.3813 35.9375 24.1656 35.9375 25C35.9375 25.8344 36.2625 26.6187 36.8531 27.2094L41.5406 31.8969C42.1313 32.4875 42.9156 32.8125 43.75 32.8125C44.5844 32.8125 45.3687 32.4875 45.9594 31.8969C46.55 31.3062 46.875 30.5219 46.875 29.6875C46.875 28.8531 46.55 28.0688 45.9594 27.4781L41.2719 22.7906C40.6812 22.2 39.8969 21.875 39.0625 21.875Z" fill="#0162CA"/>
</svg>
