<svg width="75" height="76" viewBox="0 0 75 76" fill="none" xmlns="http://www.w3.org/2000/svg">
<path d="M56.2407 53.2485C55.9969 53.2485 55.7485 53.1712 55.5375 53.0118C55.0196 52.6227 54.9164 51.8891 55.3055 51.3711C58.2235 47.4922 59.7657 42.868 59.7657 38.0001C59.7657 36.4719 59.6086 34.9415 59.2992 33.4532C59.168 32.818 59.5758 32.1993 60.2086 32.068C60.8391 31.9368 61.4625 32.3446 61.5938 32.9774C61.936 34.6227 62.1094 36.3126 62.1094 38.0001C62.1094 43.379 60.4032 48.493 57.1782 52.7821C56.9461 53.0891 56.5946 53.2485 56.2407 53.2485Z" fill="#DD3333"/>
<path d="M14.5688 44.0563C14.0273 44.0563 13.5398 43.6766 13.4227 43.1258C13.0711 41.4453 12.8906 39.7203 12.8906 38C12.8906 32.6446 14.5805 27.5516 17.7797 23.2766C18.1664 22.7563 18.9023 22.6485 19.4203 23.0399C19.9383 23.4289 20.0461 24.1625 19.657 24.6805C16.7625 28.5477 15.2344 33.1532 15.2344 38C15.2344 39.5586 15.3961 41.1219 15.7172 42.643C15.8508 43.2758 15.4453 43.8969 14.8125 44.0305C14.7305 44.0492 14.6484 44.0563 14.5688 44.0563Z" fill="#DD3333"/>
<path d="M41.0156 49.7188H33.9844C33.3375 49.7188 32.8125 49.1938 32.8125 48.547V42.6875H26.9531C26.3063 42.6875 25.7812 42.1625 25.7812 41.5156V34.4845C25.7812 33.8376 26.3063 33.3125 26.9531 33.3125H32.8125V27.4531C32.8125 26.8063 33.3375 26.2812 33.9844 26.2812H41.0156C41.6625 26.2812 42.1875 26.8063 42.1875 27.4531V33.3125H48.0469C48.6937 33.3125 49.2188 33.8376 49.2188 34.4845V41.5156C49.2188 42.1625 48.6937 42.6875 48.0469 42.6875H42.1875V48.547C42.1875 49.1938 41.6625 49.7188 41.0156 49.7188ZM35.1562 47.375H39.8438V41.5156C39.8438 40.8688 40.3688 40.3438 41.0156 40.3438H46.875V35.6562H41.0156C40.3688 35.6562 39.8438 35.1313 39.8438 34.4845V28.625H35.1562V34.4845C35.1562 35.1313 34.6312 35.6562 33.9844 35.6562H28.125V40.3438H33.9844C34.6312 40.3438 35.1562 40.8688 35.1562 41.5156V47.375Z" fill="#DD3333"/>
<path d="M42.518 70.8128H30.2344C27.9445 70.8128 25.7086 70.3019 23.5875 69.2941L15.3773 65.305C13.2727 64.2949 11.0297 63.7816 8.72109 63.7816H3.51562C2.86875 63.7816 2.34375 63.2566 2.34375 62.6097C2.34375 61.9628 2.86875 61.4378 3.51562 61.4378H8.72109C11.3836 61.4378 13.9664 62.0284 16.3969 63.1956L24.6047 67.1824C26.4 68.0331 28.2961 68.4691 30.2344 68.4691H42.2836L52.5188 64.2456C52.5188 64.1472 52.657 63.2402 52.207 62.4691C51.5203 61.2878 49.9336 61.2503 48.7312 61.4261C46.9852 61.6956 45.5414 62.1808 44.2688 62.6097L43.7859 62.7714C43.1695 62.9706 42.5086 62.6449 42.3047 62.0284C42.1008 61.4144 42.4336 60.7511 43.0477 60.5472L43.5211 60.3902C44.8852 59.9308 46.4297 59.4105 48.3844 59.1105C53.2172 58.4074 54.4242 61.4261 54.6844 62.3659C55.1133 63.9152 54.757 65.8534 53.4187 66.4136L42.9633 70.7284C42.8227 70.7824 42.6703 70.8128 42.518 70.8128Z" fill="#DD3333"/>
<path d="M27.2695 54.1181C26.8289 54.1181 26.4047 53.8673 26.2055 53.4407C23.9086 48.4977 17.9414 47.7899 13.5047 49.6298C13.3617 49.6884 13.2094 49.7188 13.0547 49.7188H3.51562C2.86875 49.7188 2.34375 49.1938 2.34375 48.547C2.34375 47.9001 2.86875 47.3751 3.51562 47.3751H12.8273C19.1719 44.8556 25.8023 47.0188 28.3336 52.454C28.6055 53.0399 28.3523 53.7384 27.7641 54.0126C27.6023 54.0829 27.4359 54.1181 27.2695 54.1181Z" fill="#DD3333"/>
<path d="M38.3766 65.2414C38.2242 65.2414 38.0719 65.2109 37.9289 65.1524L24.5086 59.5813C23.9109 59.3328 23.6273 58.6484 23.8758 58.0484C24.1242 57.4508 24.8109 57.1695 25.4086 57.4156L37.65 62.4969C38.1633 60.0805 36.8414 58.2008 33.7008 56.9L26.8031 54.0359C26.2055 53.7875 25.9219 53.1008 26.1703 52.5031C26.4187 51.9055 27.1055 51.6219 27.7031 51.8703L34.5984 54.7344C39.4289 56.7359 41.2008 60.3008 39.4594 64.5125C39.3398 64.8008 39.1125 65.0305 38.8242 65.1477C38.6812 65.2109 38.5289 65.2414 38.3766 65.2414Z" fill="#DD3333"/>
<path d="M25.2445 16.9977C21.5578 16.9977 20.55 14.4805 20.3156 13.6367C19.8867 12.0875 20.243 10.1492 21.5813 9.58906L32.0367 5.27422C32.1774 5.21797 32.3297 5.1875 32.482 5.1875H44.7633C47.0531 5.1875 49.2891 5.69844 51.4102 6.70625L59.6203 10.6953C61.7274 11.7055 63.9703 12.2188 66.2789 12.2188H71.4844C72.1313 12.2188 72.6563 12.7438 72.6563 13.3906C72.6563 14.0375 72.1313 14.5625 71.4844 14.5625H66.2789C63.6164 14.5625 61.0336 13.9719 58.6031 12.8047L50.3953 8.82031C48.6 7.96719 46.7039 7.53125 44.7656 7.53125H32.7164L22.4789 11.7547C22.4789 11.8531 22.3406 12.7602 22.7906 13.5312C23.4797 14.7125 25.0617 14.75 26.2664 14.5742C28.0125 14.3047 29.4563 13.8195 30.7289 13.3906L31.2117 13.2289C31.8281 13.0273 32.4891 13.3555 32.693 13.9719C32.8969 14.5859 32.5641 15.2492 31.95 15.4531L31.4766 15.6102C30.1125 16.0695 28.568 16.5898 26.6133 16.8898C26.1211 16.9648 25.6641 16.9977 25.2445 16.9977Z" fill="#DD3333"/>
<path d="M56.857 29.6681C52.4273 29.6681 48.4851 27.4556 46.6664 23.5462C46.3945 22.9603 46.6476 22.2618 47.2359 21.9876C47.8242 21.7158 48.5203 21.9712 48.7945 22.5572C51.0891 27.4978 57.0539 28.2033 61.4953 26.3681C61.6383 26.3118 61.7906 26.2814 61.9453 26.2814H71.4844C72.1312 26.2814 72.6562 26.8064 72.6562 27.4533C72.6562 28.1001 72.1312 28.6251 71.4844 28.6251H62.1727C60.3914 29.3306 58.5867 29.6681 56.857 29.6681Z" fill="#DD3333"/>
<path d="M47.7469 24.2189C47.5969 24.2189 47.4445 24.1907 47.2969 24.1298L40.4016 21.2657C35.5711 19.2642 33.7992 15.6993 35.5406 11.4876C35.6602 11.1993 35.8875 10.9696 36.1758 10.8524C36.4641 10.7353 36.7852 10.7329 37.0734 10.8524L50.4938 16.4235C51.0914 16.672 51.375 17.3564 51.1266 17.9564C50.8781 18.5564 50.1961 18.8353 49.5938 18.5892L37.3523 13.5079C36.8391 15.9243 38.1609 17.804 41.3016 19.1048L48.1992 21.9689C48.7969 22.2173 49.0805 22.904 48.832 23.5017C48.6422 23.947 48.2063 24.2189 47.7469 24.2189Z" fill="#DD3333"/>
<path d="M52.7695 56.832C52.4695 56.832 52.1695 56.7172 51.9398 56.4899C51.4828 56.0328 51.4828 55.2899 51.9398 54.8328C52.3992 54.3758 53.2219 54.2938 53.6789 54.7508C54.1359 55.2078 54.2179 55.8688 53.7609 56.3258L53.5969 56.4899C53.3695 56.7172 53.0695 56.832 52.7695 56.832Z" fill="#DD3333"/>
<path d="M22.3008 21.6757C21.9985 21.6757 21.6961 21.5585 21.4664 21.3264C21.0117 20.8647 21.0164 20.1241 21.4781 19.6694L21.6445 19.5053C22.1039 19.0507 22.8469 19.0553 23.3016 19.5171C23.7563 19.9788 23.7516 20.7194 23.2899 21.1741L23.1235 21.3382C22.8961 21.5632 22.5985 21.6757 22.3008 21.6757Z" fill="#DD3333"/>
</svg>
