<svg width="50" height="50" viewBox="0 0 50 50" fill="none" xmlns="http://www.w3.org/2000/svg">
<g clip-path="url(#clip0_582_667)">
<path d="M47.4325 29.501H41.6962C41.2435 29.501 40.8767 29.8679 40.8767 30.3204C40.8767 30.7729 41.2436 31.1398 41.6962 31.1398H45.4541L31.0429 45.551L26.9104 41.4184C26.5991 41.1071 26.0973 41.0973 25.7742 41.3966L20.8214 45.9825L17.9048 43.0659C17.5847 42.746 17.0659 42.746 16.7459 43.0659C16.4259 43.386 16.4259 43.9049 16.7459 44.2249L20.2201 47.699C20.3798 47.8587 20.5895 47.939 20.7997 47.939C20.9992 47.939 21.199 47.8665 21.3563 47.7208L26.3092 43.1349L30.4635 47.2893C30.7836 47.6092 31.3024 47.6092 31.6224 47.2893L46.6131 32.2986V36.0565C46.6131 36.5091 46.98 36.876 47.4325 36.876C47.885 36.876 48.2519 36.5091 48.2519 36.0565V30.3202C48.252 29.8679 47.8851 29.501 47.4325 29.501Z" fill="#0162CA"/>
<path d="M14.5012 26.9614C14.3696 27.6504 14.6402 28.3345 15.2077 28.7467C15.7752 29.1592 16.5095 29.2052 17.1241 28.8669L21.6193 26.3935L26.1146 28.8669C26.3879 29.0174 26.6848 29.0917 26.9803 29.0917C27.3493 29.0917 27.7158 28.9757 28.0309 28.7468C28.5984 28.3345 28.8691 27.6503 28.7374 26.9614L27.7741 21.9219L31.5156 18.4111C32.0271 17.9311 32.2102 17.2185 31.9934 16.5513C31.7766 15.8843 31.2096 15.4154 30.5137 15.3277L25.4232 14.6866L23.2403 10.0434C22.9419 9.40859 22.3208 9.01416 21.6193 9.01416C20.9178 9.01426 20.2968 9.40859 19.9984 10.0434L17.8155 14.6866L12.7251 15.3277C12.0292 15.4153 11.4622 15.8842 11.2454 16.5513C11.0286 17.2184 11.2117 17.9311 11.7232 18.4111L15.4647 21.9219L14.5012 26.9614ZM12.8446 17.2159C12.8271 17.1996 12.7741 17.1498 12.804 17.0578C12.8339 16.9659 12.9059 16.9568 12.9297 16.9539L18.4676 16.2563C18.7462 16.2213 18.9874 16.046 19.1068 15.7919L21.4816 10.7406C21.4918 10.719 21.5227 10.6532 21.6193 10.6531C21.716 10.6531 21.747 10.719 21.7571 10.7406L24.1318 15.7919C24.2512 16.046 24.4925 16.2213 24.771 16.2563L30.309 16.9539C30.3327 16.9569 30.4048 16.9659 30.4346 17.0578C30.4645 17.1497 30.4114 17.1996 30.394 17.2159L26.3237 21.0353C26.119 21.2274 26.0268 21.5109 26.0796 21.7867L27.1275 27.2691C27.132 27.2927 27.1457 27.3641 27.0676 27.4209C26.9892 27.4777 26.9256 27.4427 26.9047 27.4312L22.0143 24.7403C21.7683 24.6049 21.4703 24.6049 21.2243 24.7403L16.3341 27.4312C16.3132 27.4428 16.2494 27.4776 16.1711 27.4209C16.0929 27.3641 16.1066 27.2927 16.1111 27.2691L17.1591 21.7867C17.2118 21.5109 17.1196 21.2274 16.9149 21.0353L12.8446 17.2159Z" fill="#0162CA"/>
<path d="M21.6192 34.8277C29.9786 34.8277 36.7795 28.0268 36.7795 19.6674C36.7795 11.3081 29.9787 4.50708 21.6192 4.50708C13.2598 4.50708 6.45898 11.308 6.45898 19.6673C6.45898 28.0267 13.2599 34.8277 21.6192 34.8277ZM21.6192 6.14605C29.0749 6.14605 35.1405 12.2117 35.1405 19.6673C35.1405 27.123 29.0749 33.1886 21.6192 33.1886C14.1636 33.1886 8.09795 27.1231 8.09795 19.6673C8.09795 12.2116 14.1636 6.14605 21.6192 6.14605Z" fill="#0162CA"/>
<path d="M21.6191 39.3348C32.4637 39.3348 41.2865 30.512 41.2865 19.6674C41.2865 8.82275 32.4638 0 21.6191 0C10.7744 0 1.95173 8.82275 1.95173 19.6674C1.95173 24.8687 3.9822 29.6042 7.29099 33.125L2.5154 41.3967C0.933955 44.136 1.87585 47.6512 4.61511 49.2326C5.51628 49.753 6.50095 50.0002 7.4736 50.0001C9.45749 49.9999 11.3898 48.9712 12.451 47.133L17.2377 38.8423C18.6471 39.1642 20.1135 39.3348 21.6191 39.3348ZM21.6191 1.63896C31.56 1.63896 39.6475 9.72646 39.6475 19.6674C39.6475 29.6083 31.56 37.6958 21.6191 37.6958C11.6782 37.6958 3.59069 29.6083 3.59069 19.6674C3.59069 9.72646 11.6782 1.63896 21.6191 1.63896ZM11.0316 46.3135C9.90202 48.27 7.39128 48.943 5.43444 47.8133C3.4778 46.6836 2.80505 44.1728 3.93464 42.2161L8.50085 34.3072C10.5335 36.1305 12.9464 37.5372 15.6045 38.393L11.0316 46.3135Z" fill="#0162CA"/>
</g>
<defs>
<clipPath id="clip0_582_667">
<rect width="50" height="50" fill="white"/>
</clipPath>
</defs>
</svg>
