<svg width="50" height="50" viewBox="0 0 50 50" fill="none" xmlns="http://www.w3.org/2000/svg">
<g clip-path="url(#clip0_594_330)">
<path d="M49.0507 20.0018C48.9555 20.0215 46.6968 20.4908 44.7889 21.0626C42.2361 21.8278 40.772 23.4392 40.772 25.4832V34.7104H34.3093C32.7132 34.7104 31.4146 36.0089 31.4146 37.6051V49.6051H32.9934V37.6051C32.9934 36.8795 33.5836 36.2893 34.3092 36.2893H42.3509V25.4833C42.3509 23.707 44.1625 22.8988 45.2423 22.5751C46.3394 22.2463 47.5871 21.9463 48.4211 21.7565V37.0921C48.4211 38.9784 46.8864 40.5132 45 40.5132H36.2595L35.1185 49.6053H36.6845L37.6487 42.0921H45.0002C47.7571 42.0921 50.0002 39.849 50.0002 37.0921V19.8054L49.0507 20.0018Z" fill="#0162CA"/>
<path d="M45.4214 7.67151H45.4205C42.9533 7.67151 40.9356 9.63274 40.8451 12.0781L38.6367 17.1452H40.842V19.7768H45.2104C47.8513 19.7768 49.9999 17.6282 49.9999 14.9873V12.25C49.9999 9.72541 47.9459 7.67151 45.4214 7.67151ZM48.421 14.9873C48.421 16.7576 46.9806 18.1979 45.2104 18.1979H42.421V15.5662H41.0473L42.421 12.4147V12.2501C42.421 10.5961 43.7666 9.25051 45.4206 9.25051H45.4215C47.0755 9.25051 48.4211 10.5961 48.4211 12.2501V14.9873H48.421Z" fill="#0162CA"/>
<path d="M15.6908 34.7105H9.22811V25.4833C9.22811 23.4392 7.76405 21.828 5.21112 21.0627C3.30322 20.4909 1.04463 20.0216 0.949412 20.0019L0 19.8054V37.0921C0 39.849 2.24306 42.0921 4.99999 42.0921H12.3514L13.3156 49.6053H14.8816L13.7406 40.5132H4.99999C3.11357 40.5132 1.5789 38.9784 1.5789 37.0921V21.7565C2.4125 21.946 3.65976 22.246 4.75771 22.5751C5.83749 22.8989 7.64911 23.7071 7.64911 25.4833V36.2894H15.6908C16.4164 36.2894 17.0066 36.8796 17.0066 37.6052V49.6052H18.5855V37.6052C18.5855 36.009 17.2869 34.7105 15.6908 34.7105Z" fill="#0162CA"/>
<path d="M9.15477 12.0781C9.06414 9.63274 7.04657 7.67151 4.57939 7.67151H4.57851C2.054 7.67151 0 9.72541 0 12.25V14.9873C0 17.6282 2.14853 19.7768 4.78944 19.7768H9.15789V17.1452H11.3632L9.15477 12.0781ZM7.57889 15.5662V18.1978H4.78944C3.01923 18.1978 1.5789 16.7575 1.5789 14.9872V12.2499C1.5789 10.5959 2.92451 9.25031 4.57851 9.25031H4.57939C6.23339 9.25031 7.57899 10.5959 7.57899 12.2499V12.4145L8.95272 15.5661L7.57889 15.5662Z" fill="#0162CA"/>
<path d="M11.8423 26.7104V31.4473H22.9211V49.6051H24.5V31.4473H26.0789V49.6051H27.6578V31.4473H38.1579V26.7104H11.8423ZM36.5791 29.8684H13.4213V28.2895H36.5792V29.8684H36.5791Z" fill="#0162CA"/>
<path d="M35.684 8.61312V4.60531H31.2629V0.394775H12.842V4.40258L9.01562 9.07894H12.8421V12.5H16.1403V10.9211H14.4211V7.50004H12.3478L14.4211 4.96625V1.97368H29.6842V4.60522H17.2631V16.7105H35.6841V13.2894H39.5106L35.684 8.61312ZM34.1051 11.7106V15.1317H18.842V12.5H31.263V7.19818H29.6841V10.9211H18.842V6.18422H34.1051V9.17679L36.1784 11.7106H34.1051Z" fill="#0162CA"/>
<path d="M21.3685 21.0262H19.7896V22.6051H21.3685V21.0262Z" fill="#0162CA"/>
<path d="M25.7894 21.0262H24.2104V22.6051H25.7894V21.0262Z" fill="#0162CA"/>
<path d="M30.2107 21.0262H28.6318V22.6051H30.2107V21.0262Z" fill="#0162CA"/>
</g>
<defs>
<clipPath id="clip0_594_330">
<rect width="50" height="50" fill="white"/>
</clipPath>
</defs>
</svg>
