<svg width="50" height="50" viewBox="0 0 50 50" fill="none" xmlns="http://www.w3.org/2000/svg">
<g clip-path="url(#clip0_755_6152)">
<path d="M8.0314 24.8473V26.1616C8.0314 27.0727 8.60875 27.8513 9.41666 28.1513V28.8425C9.41666 29.7495 9.98902 30.5251 10.7914 30.8279V31.5233C10.7914 32.6932 11.7431 33.645 12.9129 33.645H14.6525C15.8223 33.645 16.7742 32.6933 16.7742 31.5233V30.8279C17.5765 30.5251 18.1488 29.7495 18.1488 28.8425V28.1159C18.9095 27.7932 19.4445 27.0388 19.4445 26.1617V24.8467C19.6481 21.4345 20.4939 19.9884 21.3122 18.5901C22.0608 17.3106 22.7679 16.1022 22.7679 13.7612C22.7679 8.78213 18.7171 4.73135 13.7381 4.73135C8.75913 4.73135 4.70806 8.78203 4.70806 13.7611C4.70806 16.1021 5.41519 17.3106 6.16382 18.59C6.98199 19.9884 7.82789 21.4346 8.0314 24.8473ZM11.5322 14.9573H10.3966C9.77046 14.9573 9.26109 14.4479 9.26109 13.8218C9.26109 13.1956 9.77046 12.6862 10.3966 12.6862C11.0228 12.6862 11.5322 13.1956 11.5322 13.8218V14.9573ZM14.381 24.0397H13.0947V16.5198H14.381V24.0397ZM17.8818 25.6022V26.1616C17.8818 26.4699 17.631 26.7207 17.3227 26.7207H10.153C9.84468 26.7207 9.5939 26.4699 9.5939 26.1616V25.6022H17.8818ZM16.0271 29.4015H11.5383C11.23 29.4015 10.9792 29.1507 10.9792 28.8423V28.2831H16.5862V28.8423C16.5862 29.1507 16.3354 29.4015 16.0271 29.4015ZM14.6525 32.0824H12.9129C12.6046 32.0824 12.3539 31.8316 12.3539 31.5232V30.964H15.2117V31.5232C15.2116 31.8316 14.9608 32.0824 14.6525 32.0824ZM13.7378 6.29375C17.8553 6.29375 21.2051 9.64355 21.2051 13.7611C21.2051 15.6786 20.6571 16.6152 19.9633 17.801C19.1914 19.1202 18.2433 20.7404 17.9384 24.0398H15.9435V16.5199H17.0791C18.5668 16.5199 19.7771 15.3096 19.7771 13.8219C19.7771 12.3342 18.5668 11.1238 17.0791 11.1238C15.5914 11.1238 14.381 12.3342 14.381 13.8219V14.9574H13.0947V13.8219C13.0947 12.3342 11.8843 11.1238 10.3966 11.1238C8.90894 11.1238 7.69859 12.3342 7.69859 13.8219C7.69859 15.3096 8.90894 16.5199 10.3966 16.5199H11.5322V24.0398H9.53726C9.23238 20.7404 8.28433 19.1203 7.51246 17.801C6.81871 16.6152 6.27066 15.6787 6.27066 13.7611C6.27056 9.64355 9.62037 6.29375 13.7378 6.29375ZM15.9435 14.9573V13.8218C15.9435 13.1956 16.4529 12.6862 17.0791 12.6862C17.7052 12.6862 18.2146 13.1956 18.2146 13.8218C18.2146 14.4479 17.7052 14.9573 17.0791 14.9573H15.9435ZM12.9566 2.72422V0.78125C12.9566 0.349805 13.3064 0 13.7378 0C14.1693 0 14.5191 0.349805 14.5191 0.78125V2.72422C14.5191 3.15566 14.1693 3.50547 13.7378 3.50547C13.3064 3.50547 12.9566 3.15566 12.9566 2.72422ZM5.86851 3.09912C5.65279 2.72539 5.78082 2.24766 6.15445 2.03193C6.52808 1.81631 7.00591 1.94424 7.22164 2.31787L8.19312 4.00049C8.40884 4.37422 8.28082 4.85195 7.90718 5.06768C7.78414 5.13867 7.64986 5.17246 7.51724 5.17246C7.24722 5.17246 6.98462 5.03232 6.8399 4.78174L5.86851 3.09912ZM3.63892 9.33613C3.49419 9.58672 3.2316 9.72686 2.96158 9.72686C2.82906 9.72686 2.69468 9.69307 2.57164 9.62207L0.889018 8.65059C0.515386 8.43486 0.387358 7.95703 0.603081 7.5834C0.818804 7.20967 1.29664 7.08164 1.67027 7.29746L3.35289 8.26895C3.72662 8.48467 3.85464 8.9624 3.63892 9.33613ZM19.2826 4.00059L20.2541 2.31797C20.4697 1.94424 20.9475 1.81611 21.3212 2.03203C21.6949 2.24775 21.8229 2.72559 21.6072 3.09922L20.6357 4.78184C20.4911 5.03242 20.2284 5.17256 19.9584 5.17256C19.8258 5.17256 19.6916 5.13877 19.5684 5.06777C19.1949 4.85205 19.0669 4.37422 19.2826 4.00059ZM23.8369 9.33613C23.6211 8.9625 23.7492 8.48467 24.1228 8.26895L25.8054 7.29746C26.1792 7.08184 26.6569 7.20977 26.8726 7.5834C27.0883 7.95703 26.9603 8.43486 26.5867 8.65059L24.9041 9.62207C24.781 9.69307 24.6467 9.72686 24.5141 9.72686C24.2442 9.72695 23.9816 9.58672 23.8369 9.33613ZM24.707 42.8688L17.8727 37.8548C17.6353 37.6807 17.3202 37.6548 17.0575 37.7878C16.7948 37.9208 16.6293 38.1902 16.6293 38.4847V40.2876C12.9372 40.187 9.48726 39.2661 8.27115 34.5306C8.19166 34.2208 7.9313 33.9908 7.61412 33.95C7.29693 33.9091 6.98697 34.0658 6.8316 34.3454C5.38189 36.9542 5.40455 40.0211 6.89205 42.5494C7.76597 44.0348 9.12222 45.2668 10.8143 46.1121C12.4724 46.9404 14.4254 47.4031 16.6293 47.4907V49.2188C16.6293 49.5222 16.8049 49.7982 17.0799 49.9267C17.1855 49.9759 17.2983 50 17.4104 50C17.5904 50 17.7686 49.9379 17.912 49.8179L24.7462 44.0978C24.9303 43.9437 25.0333 43.7136 25.0256 43.4736C25.018 43.2338 24.9004 43.0107 24.707 42.8688ZM18.1918 47.5461V46.7248C18.1918 46.2934 17.8419 45.9436 17.4105 45.9436C13.147 45.9436 9.80396 44.4177 8.23873 41.7571C7.37115 40.2825 7.12085 38.5791 7.4896 36.9489C8.3563 38.7425 9.68453 40.0511 11.4565 40.8523C13.4204 41.7404 15.5684 41.8602 17.4106 41.8602C17.842 41.8602 18.1918 41.5104 18.1918 41.0789V40.0268L22.9793 43.5392L18.1918 47.5461ZM24.66 14.8021C24.6677 15.0421 24.7852 15.265 24.9788 15.407L32.3038 20.7811C32.5412 20.9553 32.8564 20.9812 33.119 20.848C33.3816 20.715 33.5472 20.4456 33.5472 20.1512V18.1612C37.5483 18.2612 41.2968 19.2391 42.6159 24.3752C42.6954 24.685 42.9557 24.9149 43.2729 24.9558C43.3063 24.9601 43.3397 24.9621 43.3728 24.9621C43.6538 24.9621 43.9165 24.8104 44.0554 24.5604C45.5995 21.7818 45.5754 18.5156 43.9914 15.8231C43.0601 14.2403 41.6145 12.9275 39.8107 12.0264C38.0273 11.1354 35.9232 10.6407 33.5471 10.5525V8.64639C33.5471 8.34297 33.3714 8.06689 33.0964 7.93848C32.8213 7.81006 32.497 7.85244 32.2644 8.04727L24.9394 14.178C24.7554 14.3321 24.6524 14.5622 24.66 14.8021ZM31.9846 10.319V11.3194C31.9846 11.7509 32.3344 12.1007 32.7659 12.1007C37.3559 12.1007 40.9566 13.7463 42.6446 16.6154C43.6095 18.2556 43.8676 20.158 43.4169 21.9657C42.4956 19.9813 41.058 18.539 39.1244 17.6646C37.0292 16.7172 34.7343 16.5895 32.7659 16.5895C32.3344 16.5895 31.9846 16.9393 31.9846 17.3707V18.6091L26.7065 14.7367L31.9846 10.319ZM40.7404 39.618C40.8305 40.3608 40.6305 41.0399 40.1618 41.5818C39.6587 42.1635 38.8504 42.5653 37.9259 42.7097V43.2365C37.9259 43.668 37.5761 44.0178 37.1447 44.0178C36.7132 44.0178 36.3634 43.668 36.3634 43.2365V42.6973C34.958 42.4409 33.8757 41.5124 33.5509 40.2098C33.4465 39.7911 33.7013 39.3671 34.12 39.2627C34.539 39.1584 34.9627 39.4131 35.067 39.8317C35.3278 40.8776 36.401 41.2242 37.2416 41.2053C37.9736 41.1878 38.6559 40.9345 38.9799 40.5598C39.1599 40.3517 39.2264 40.1122 39.1893 39.8063C39.1276 39.2985 38.826 38.6776 37.0262 38.3821C34.4703 37.9625 33.8738 36.6385 33.8236 35.6018C33.7539 34.1672 34.7498 32.9668 36.3018 32.6147C36.3223 32.6101 36.3428 32.6057 36.3635 32.6013V32.0496C36.3635 31.6182 36.7133 31.2684 37.1448 31.2684C37.5762 31.2684 37.926 31.6182 37.926 32.0496V32.5945C38.9598 32.7987 39.9551 33.4353 40.4674 34.6555C40.6344 35.0533 40.4474 35.5112 40.0496 35.6782C39.6517 35.8453 39.1938 35.6582 39.0268 35.2604C38.5868 34.2124 37.5148 33.9418 36.6475 34.1386C36.0112 34.2829 35.3453 34.7231 35.3843 35.5261C35.3977 35.8027 35.4333 36.5372 37.2794 36.8403C39.3943 37.1875 40.5587 38.1221 40.7404 39.618ZM37.1447 28.0225C31.8399 28.0225 27.5242 32.3382 27.5242 37.643C27.5242 42.9478 31.8399 47.2636 37.1447 47.2636C42.4495 47.2636 46.7652 42.9478 46.7652 37.643C46.7652 32.3382 42.4495 28.0225 37.1447 28.0225ZM37.1447 45.7011C32.7014 45.7011 29.0867 42.0862 29.0867 37.643C29.0867 33.1997 32.7015 29.585 37.1447 29.585C41.5878 29.585 45.2027 33.1998 45.2027 37.643C45.2027 42.0861 41.5879 45.7011 37.1447 45.7011ZM37.1447 25.286C30.331 25.286 24.7877 30.8294 24.7877 37.643C24.7877 44.4566 30.331 50 37.1447 50C43.9584 50 49.5017 44.4566 49.5017 37.643C49.5017 30.8293 43.9584 25.286 37.1447 25.286ZM37.1447 48.4375C31.1925 48.4375 26.3502 43.5951 26.3502 37.643C26.3502 31.6909 31.1925 26.8485 37.1447 26.8485C43.0968 26.8485 47.9392 31.6909 47.9392 37.643C47.9392 43.5951 43.0968 48.4375 37.1447 48.4375Z" fill="#0162CA"/>
</g>
<defs>
<clipPath id="clip0_755_6152">
<rect width="50" height="50" fill="white"/>
</clipPath>
</defs>
</svg>
