<svg width="70" height="71" viewBox="0 0 70 71" fill="none" xmlns="http://www.w3.org/2000/svg">
<path d="M27.3438 35.5H22.9688C22.6787 35.5 22.4005 35.6152 22.1954 35.8204C21.9902 36.0255 21.875 36.3037 21.875 36.5938V44.25C21.875 44.5401 21.9902 44.8183 22.1954 45.0234C22.4005 45.2285 22.6787 45.3438 22.9688 45.3438H27.3438C27.6338 45.3438 27.912 45.2285 28.1171 45.0234C28.3223 44.8183 28.4375 44.5401 28.4375 44.25V36.5938C28.4375 36.3037 28.3223 36.0255 28.1171 35.8204C27.912 35.6152 27.6338 35.5 27.3438 35.5ZM26.25 43.1562H24.0625V37.6875H26.25V43.1562Z" fill="#DD3333"/>
<path d="M42.6562 45.3438H47.0312C47.3213 45.3438 47.5995 45.2285 47.8046 45.0234C48.0098 44.8183 48.125 44.5401 48.125 44.25V36.5938C48.125 36.3037 48.0098 36.0255 47.8046 35.8204C47.5995 35.6152 47.3213 35.5 47.0312 35.5H42.6562C42.3662 35.5 42.088 35.6152 41.8829 35.8204C41.6777 36.0255 41.5625 36.3037 41.5625 36.5938V44.25C41.5625 44.5401 41.6777 44.8183 41.8829 45.0234C42.088 45.2285 42.3662 45.3438 42.6562 45.3438ZM43.75 37.6875H45.9375V43.1562H43.75V37.6875Z" fill="#DD3333"/>
<path d="M50.3982 23.5517C51.5818 23.0138 52.5345 22.0708 53.0845 20.8928L60.3918 24.6926C61.1658 25.0951 62.0305 25.2913 62.9024 25.2625C63.7743 25.2337 64.6241 24.9807 65.3698 24.5279C66.1155 24.0752 66.732 23.4379 67.1599 22.6777C67.5877 21.9174 67.8125 21.0597 67.8125 20.1873C67.8125 19.9923 67.7603 19.8008 67.6614 19.6327C67.5625 19.4645 67.4204 19.326 67.2499 19.2312L37.7187 2.82495C37.4728 2.68864 37.1841 2.65203 36.912 2.72268L13.125 8.9278V8.15602C13.125 7.86594 13.0098 7.58774 12.8046 7.38262C12.5995 7.1775 12.3213 7.06227 12.0312 7.06227H3.28125C2.99117 7.06227 2.71297 7.1775 2.50785 7.38262C2.30273 7.58774 2.1875 7.86594 2.1875 8.15602V23.4686C2.1875 23.7586 2.30273 24.0368 2.50785 24.242C2.71297 24.4471 2.99117 24.5623 3.28125 24.5623H12.0312C12.3213 24.5623 12.5995 24.4471 12.8046 24.242C13.0098 24.0368 13.125 23.7586 13.125 23.4686V22.3748H19.6875C19.7892 22.3748 19.8905 22.3606 19.9883 22.3327L27.9381 20.0614L12.4414 32.4582C12.3214 32.5543 12.223 32.6746 12.1526 32.8113C12.0822 32.948 12.0414 33.0981 12.0329 33.2516C12.0244 33.4051 12.0484 33.5587 12.1032 33.7023C12.1581 33.846 12.2426 33.9764 12.3513 34.0852L15.6326 37.3664C15.8199 37.5539 16.069 37.6669 16.3334 37.6845C16.5979 37.7021 16.8597 37.6231 17.0703 37.4621L17.4997 37.134V49.1318C17.2711 49.4353 17.0752 49.7621 16.9153 50.1068L9.60818 46.307C8.83417 45.9045 7.96953 45.7083 7.09761 45.7371C6.22569 45.766 5.3759 46.019 4.63019 46.4717C3.88447 46.9244 3.26796 47.5617 2.84012 48.3219C2.41227 49.0822 2.18751 49.9399 2.1875 50.8123C2.18751 51.0074 2.23968 51.1989 2.3386 51.367C2.43752 51.5351 2.57959 51.6737 2.7501 51.7684L32.2813 68.1746C32.5273 68.3113 32.8164 68.3479 33.0887 68.2769L56.875 62.0718V62.8436C56.875 63.1336 56.9902 63.4118 57.1954 63.617C57.4005 63.8221 57.6787 63.9373 57.9688 63.9373H66.7188C67.0088 63.9373 67.287 63.8221 67.4921 63.617C67.6973 63.4118 67.8125 63.1336 67.8125 62.8436V47.5311C67.8125 47.241 67.6973 46.9628 67.4921 46.7577C67.287 46.5525 67.0088 46.4373 66.7188 46.4373H57.9688C57.6787 46.4373 57.4005 46.5525 57.1954 46.7577C56.9902 46.9628 56.875 47.241 56.875 47.5311V48.6248H52.5V37.134L52.9294 37.4621C53.14 37.6231 53.4018 37.7021 53.6663 37.6845C53.9307 37.6669 54.1798 37.5539 54.3672 37.3664L57.6484 34.0852C57.7571 33.9764 57.8416 33.846 57.8965 33.7023C57.9514 33.5587 57.9753 33.4051 57.9668 33.2516C57.9583 33.0981 57.9175 32.948 57.8472 32.8113C57.7768 32.6746 57.6783 32.5543 57.5583 32.4582L46.8594 23.8996C48.0445 24.1856 49.2914 24.0627 50.3982 23.5517ZM10.9375 22.3748H4.375V9.24977H10.9375V22.3748ZM59.0625 48.6248H65.625V61.7498H59.0625V48.6248ZM56.875 50.8123V59.811L32.9606 66.0496L4.4383 50.2039C4.53219 49.7691 4.72511 49.3617 5.00206 49.0136C5.27902 48.6654 5.63254 48.3859 6.03514 48.1966C6.43774 48.0074 6.87857 47.9135 7.32335 47.9224C7.76813 47.9312 8.20487 48.0426 8.59961 48.2477L30.1204 59.4393C30.3778 59.5731 30.6779 59.5992 30.9546 59.5118C31.2312 59.4244 31.4619 59.2306 31.5957 58.9732C31.7295 58.7157 31.7556 58.4157 31.6682 58.139C31.5808 57.8623 31.3871 57.6317 31.1296 57.4979L18.859 51.1173C19.1828 50.3707 19.7728 49.7712 20.5142 49.4357C20.9583 49.2279 21.4441 49.1245 21.9343 49.1335C22.4245 49.1424 22.9062 49.2634 23.3424 49.4872L34.5108 55.0714C34.7556 55.1938 35.0374 55.22 35.3005 55.1448L50.4658 50.8123H56.875ZM35.088 32.2195C35.0734 32.2195 35.0585 32.2186 35.0438 32.2186H35C34.9855 32.2186 34.971 32.2188 34.9565 32.2194C33.8004 32.2436 32.6996 32.7195 31.89 33.5452C31.0804 34.371 30.6264 35.4809 30.625 36.6373V50.6832L24.3208 47.5311C23.6051 47.1707 22.8185 46.9731 22.0175 46.9524C21.2165 46.9317 20.4208 47.0885 19.6875 47.4114V35.4613L35 23.7517L50.3125 35.4613V48.6248C50.2108 48.6248 50.1095 48.639 50.0117 48.6669L39.375 51.706V36.6373C39.3792 35.4869 38.933 34.3805 38.1318 33.5548C37.3306 32.7292 36.2381 32.2499 35.088 32.2195ZM37.1875 36.6373V52.3311L35.1086 52.925L32.8125 51.777V36.6373C32.8131 36.0495 33.0455 35.4856 33.4591 35.068C33.8727 34.6503 34.4342 34.4125 35.022 34.4061C35.3112 34.4087 35.597 34.4688 35.8628 34.5827C36.1286 34.6966 36.3692 34.8621 36.5706 35.0696C36.772 35.2771 36.9302 35.5225 37.0361 35.7916C37.142 36.0607 37.1935 36.3482 37.1875 36.6373ZM55.2375 33.403L53.498 35.1431L35.6643 21.5061C35.4736 21.3603 35.2401 21.2812 35 21.2812C34.7599 21.2812 34.5264 21.3603 34.3357 21.5061L16.502 35.1431L14.7619 33.403L33.3849 18.5057L34.8914 18.0753L38.0531 19.6562L55.2375 33.403ZM46.6576 21.512L35.4892 15.9278C35.2444 15.8054 34.9626 15.7792 34.6995 15.8544L19.5342 20.1873H13.125V11.1886L37.0394 4.94996L65.5617 20.7957C65.4678 21.2306 65.2749 21.6379 64.9979 21.986C64.721 22.3342 64.3675 22.6137 63.9649 22.803C63.5623 22.9923 63.1214 23.0861 62.6766 23.0772C62.2319 23.0684 61.7951 22.957 61.4004 22.7519L39.8796 11.5604C39.6222 11.4265 39.3221 11.4004 39.0454 11.4878C38.7688 11.5752 38.5381 11.769 38.4043 12.0264C38.2705 12.2839 38.2444 12.5839 38.3318 12.8606C38.4192 13.1373 38.6129 13.3679 38.8704 13.5018L51.141 19.8824C50.8173 20.6291 50.2272 21.2285 49.4858 21.5641C49.0416 21.7718 48.5559 21.875 48.0656 21.866C47.5754 21.857 47.0938 21.7359 46.6576 21.512Z" fill="#DD3333"/>
</svg>
