<svg width="51" height="51" viewBox="0 0 51 51" fill="none" xmlns="http://www.w3.org/2000/svg">
<g clip-path="url(#clip0_1819_1635)">
<mask id="mask0_1819_1635" style="mask-type:luminance" maskUnits="userSpaceOnUse" x="0" y="0" width="51" height="51">
<path d="M50.5 0.5H0.5V50.5H50.5V0.5Z" fill="white"/>
</mask>
<g mask="url(#mask0_1819_1635)">
<path d="M25.5 12.2188C24.9609 12.2188 24.5234 12.6563 24.5234 13.1953C24.5234 13.7344 24.9609 14.1719 25.5 14.1719C26.0391 14.1719 26.4766 13.7344 26.4766 13.1953C26.4766 12.6563 26.0391 12.2188 25.5 12.2188Z" fill="#DD3333"/>
<path d="M0.981334 23.8026C1.30458 23.9929 1.7079 23.9811 2.01942 23.7726C5.1788 21.6593 9.93182 21.6292 13.1384 23.6841C13.3115 23.8404 13.5402 23.9364 13.7919 23.9364C13.7954 23.9364 13.7989 23.9359 13.8024 23.9359C13.9979 23.9397 14.1943 23.8862 14.3641 23.7726C17.439 21.7156 21.3723 21.6261 24.5233 23.5008C24.5233 24.4787 24.5233 43.9459 24.5233 45.6172C24.5233 48.3148 26.7086 50.5 29.4061 50.5C32.0985 50.5 34.289 48.3096 34.289 45.6172V41.7109C34.289 41.1717 33.8516 40.7344 33.3124 40.7344C32.7731 40.7344 32.3358 41.1717 32.3358 41.7109V45.6172C32.3358 47.2326 31.0216 48.5469 29.4061 48.5469C27.7879 48.5469 26.4765 47.2354 26.4765 45.6172C26.4765 43.9329 26.4765 24.4695 26.4765 23.5008C29.6273 21.626 33.5607 21.7157 36.6355 23.7727C36.8001 23.8827 36.9893 23.9375 37.1786 23.9375C37.1852 23.9375 37.1918 23.9362 37.1984 23.936C37.2016 23.936 37.2047 23.9365 37.2079 23.9365C37.4595 23.9365 37.6881 23.8405 37.8612 23.6843C41.0678 21.6294 45.8209 21.6595 48.9805 23.7726C49.2921 23.9811 49.6956 23.9927 50.0185 23.8026C50.3417 23.6126 50.5274 23.2543 50.4967 22.8807C49.4661 10.3852 38.3488 0.5 25.5 0.5C12.6581 0.5 1.53456 10.3775 0.503307 22.8807C0.472545 23.2543 0.658287 23.6126 0.981334 23.8026ZM26.4766 21.2913V17.1016C26.4766 16.5623 26.0392 16.125 25.5 16.125C24.9607 16.125 24.5234 16.5623 24.5234 17.1016V21.2912C21.4539 19.8498 17.9161 19.8423 14.842 21.2698C15.4726 11.3927 19.576 3.47734 24.5234 2.54609V9.28906C24.5234 9.82832 24.9607 10.2656 25.5 10.2656C26.0392 10.2656 26.4766 9.82832 26.4766 9.28906V2.54609C31.424 3.47734 35.5273 11.3928 36.1579 21.2698C33.0839 19.8422 29.5462 19.8499 26.4766 21.2913ZM48.3143 21.2038C46.8087 20.5597 45.1092 20.214 43.3708 20.2114C43.3643 20.2114 43.3581 20.2114 43.3517 20.2114C41.502 20.2114 39.6956 20.6013 38.1188 21.3251C37.7568 15.1924 35.8828 7.56191 31.563 3.2793C40.0331 5.61768 46.8239 12.6708 48.3143 21.2038ZM19.437 3.2792C15.1163 7.5627 13.2432 15.1914 12.881 21.325C9.72792 19.8776 5.86092 19.8453 2.68553 21.2038C4.17606 12.6708 10.967 5.61768 19.437 3.2792Z" fill="#DD3333"/>
<path d="M11.3399 42.6182C10.9226 42.6182 10.4722 42.3558 10.0717 41.8795C9.72462 41.4665 9.10851 41.4133 8.69582 41.7604C8.28293 42.1074 8.2297 42.7234 8.57677 43.1362C9.09884 43.7573 9.71271 44.19 10.3633 44.4082V45.5479C10.3633 46.0871 10.8005 46.5244 11.3399 46.5244C11.8792 46.5244 12.3164 46.0871 12.3164 45.5479V44.4033C13.453 44.0002 14.2695 42.9147 14.2695 41.6416C14.2695 40.0262 12.9553 38.7119 11.3399 38.7119C10.8014 38.7119 10.3633 38.2738 10.3633 37.7354C10.3633 37.1969 10.8014 36.7588 11.3399 36.7588C11.6858 36.7588 12.0511 36.9354 12.3961 37.2692C12.7837 37.6443 13.4021 37.6341 13.777 37.2466C14.152 36.8589 14.1418 36.2407 13.7542 35.8656C13.2586 35.386 12.7627 35.1148 12.3163 34.9667V33.8291C12.3163 33.2898 11.8791 32.8525 11.3398 32.8525C10.8004 32.8525 10.3632 33.2898 10.3632 33.8291V34.9736C9.22658 35.3768 8.41007 36.4622 8.41007 37.7354C8.41007 39.3508 9.72433 40.665 11.3398 40.665C11.8782 40.665 12.3163 41.1031 12.3163 41.6416C12.3163 42.1801 11.8783 42.6182 11.3399 42.6182Z" fill="#DD3333"/>
<path d="M11.2422 50.5C17.1654 50.5 21.9844 45.6811 21.9844 39.7578C21.9844 33.8346 17.1654 29.0156 11.2422 29.0156C5.31895 29.0156 0.5 33.8346 0.5 39.7578C0.5 45.6811 5.31895 50.5 11.2422 50.5ZM11.2422 30.9688C16.0885 30.9688 20.0312 34.9115 20.0312 39.7578C20.0312 44.6041 16.0885 48.5469 11.2422 48.5469C6.3959 48.5469 2.45312 44.6041 2.45312 39.7578C2.45312 34.9115 6.3959 30.9688 11.2422 30.9688Z" fill="#DD3333"/>
</g>
</g>
<defs>
<clipPath id="clip0_1819_1635">
<rect width="50" height="50" fill="white" transform="translate(0.5 0.5)"/>
</clipPath>
</defs>
</svg>
