<svg width="70" height="71" viewBox="0 0 70 71" fill="none" xmlns="http://www.w3.org/2000/svg">
<g clip-path="url(#clip0_1324_217)">
<mask id="mask0_1324_217" style="mask-type:luminance" maskUnits="userSpaceOnUse" x="0" y="0" width="70" height="71">
<path d="M70 0.5H0V70.5H70V0.5Z" fill="white"/>
</mask>
<g mask="url(#mask0_1324_217)">
<path d="M64.1665 35.5C63.3601 35.5 62.7085 34.8469 62.7085 34.0415C62.7085 18.7626 50.2789 6.33353 35 6.33353C19.7211 6.33353 7.29149 18.7626 7.29149 34.0415C7.29149 34.8469 6.63834 35.5 5.83351 35.5C5.02815 35.5 4.375 34.8469 4.375 34.0415C4.375 17.1541 18.1126 3.4165 35 3.4165C51.8858 3.4165 65.625 17.1541 65.625 34.0415C65.625 34.8469 64.9729 35.5 64.1665 35.5Z" fill="#DD3333"/>
<path d="M49.5835 35.5C48.7771 35.5 48.125 34.8469 48.125 34.0415C48.125 19.0222 42.1152 6.33353 35 6.33353C27.8863 6.33353 21.875 19.0222 21.875 34.0415C21.875 34.8469 21.2218 35.5 20.4165 35.5C19.6116 35.5 18.9585 34.8469 18.9585 34.0415C18.9585 16.8683 26.0049 3.4165 35 3.4165C43.9951 3.4165 51.0415 16.8683 51.0415 34.0415C51.0415 34.8469 50.3899 35.5 49.5835 35.5Z" fill="#DD3333"/>
<path d="M35 35.5C34.1952 35.5 33.5415 34.8468 33.5415 34.0415V1.95851C33.5415 1.15315 34.1952 0.5 35 0.5C35.8048 0.5 36.4585 1.15315 36.4585 1.95851V34.0415C36.4585 34.8468 35.8048 35.5 35 35.5Z" fill="#DD3333"/>
<path d="M5.83352 35.5C5.45113 35.5 5.07088 35.351 4.78463 35.0535C4.22494 34.4746 4.24096 33.5518 4.82148 32.9915C7.04209 30.8478 9.99116 29.6665 13.125 29.6665C13.9298 29.6665 14.5835 30.3202 14.5835 31.125C14.5835 31.9298 13.9298 32.5835 13.125 32.5835C10.7506 32.5835 8.5209 33.4743 6.84556 35.0904C6.56251 35.3644 6.19775 35.5 5.83352 35.5Z" fill="#DD3333"/>
<path d="M35 35.5C34.6352 35.5 34.271 35.3644 33.988 35.0904C32.3121 33.4743 30.0824 32.5835 27.7085 32.5835C25.3341 32.5835 23.1044 33.4743 21.4285 35.0904C20.8512 35.6517 19.9268 35.6357 19.3665 35.0535C18.8068 34.4746 18.8229 33.5518 19.4034 32.9915C21.6256 30.8478 24.5741 29.6665 27.7085 29.6665C30.8424 29.6665 33.7909 30.8478 36.012 32.9931C36.591 33.5518 36.6086 34.4762 36.0484 35.0551C35.7626 35.351 35.3819 35.5 35 35.5Z" fill="#DD3333"/>
<path d="M49.5835 35.5C49.2187 35.5 48.854 35.3644 48.5715 35.0904C46.8956 33.4743 44.6659 32.5835 42.2915 32.5835C39.9176 32.5835 37.6879 33.4743 36.012 35.0904C35.4347 35.6517 34.5097 35.6357 33.95 35.0535C33.3898 34.4746 33.4058 33.5518 33.9864 32.9915C36.2091 30.8478 39.1592 29.6665 42.2915 29.6665C45.4243 29.6665 48.3744 30.8478 50.5955 32.9931C51.1745 33.5518 51.1921 34.4762 50.6319 35.0551C50.3461 35.351 49.9654 35.5 49.5835 35.5Z" fill="#DD3333"/>
<path d="M64.1665 35.5C63.8023 35.5 63.4375 35.3644 63.1545 35.0904C61.4791 33.4743 59.2494 32.5835 56.875 32.5835C54.5006 32.5835 52.2709 33.4743 50.5956 35.0904C50.0177 35.6517 49.0933 35.6357 48.5336 35.0535C47.9733 34.4746 47.991 33.5518 48.5699 32.9915C50.7921 30.8478 53.7428 29.6665 56.875 29.6665C60.0073 29.6665 62.9579 30.8478 65.1785 32.9931C65.7574 33.5518 65.7751 34.4762 65.2154 35.0551C64.9291 35.351 64.5489 35.5 64.1665 35.5Z" fill="#DD3333"/>
<path d="M33.5415 50.0835H36.4585V53H33.5415V50.0835Z" fill="#DD3333"/>
<path d="M33.5415 44.25H36.4585V47.1665H33.5415V44.25Z" fill="#DD3333"/>
<path d="M33.5415 38.4165H36.4585V41.3335H33.5415V38.4165Z" fill="#DD3333"/>
<path d="M20.4165 55.9165C16.3961 55.9165 13.125 52.6454 13.125 48.625V45.7085C13.125 41.6876 16.3961 38.4165 20.4165 38.4165C24.4374 38.4165 27.7085 41.6876 27.7085 45.7085V48.625C27.7085 52.6454 24.4374 55.9165 20.4165 55.9165ZM20.4165 41.3335C18.0047 41.3335 16.0415 43.2962 16.0415 45.7085V48.625C16.0415 51.0374 18.0047 53 20.4165 53C22.8288 53 24.7915 51.0374 24.7915 48.625V45.7085C24.7915 43.2962 22.8288 41.3335 20.4165 41.3335Z" fill="#DD3333"/>
<path d="M24.7947 70.5H16.0388C11.1169 70.4984 7.85437 67.293 7.71872 67.1563C7.44475 66.8834 7.29147 66.5127 7.29147 66.125V61.0717C7.29147 60.0918 7.77747 59.1849 8.59244 58.6439L16.0415 53.6783V53H18.9585V54.4585C18.9585 54.9456 18.715 55.4006 18.3096 55.6719L10.2085 61.0717V65.4585C11.0833 66.1496 13.2329 67.5819 16.0404 67.5835H24.7947C27.6279 67.5819 29.7571 66.1554 30.625 65.4644V61.0717L22.5239 55.6719C22.1185 55.4006 21.875 54.9456 21.875 54.4585V53H24.7915V53.6783L32.2437 58.645C33.0576 59.1876 33.5415 60.095 33.5415 61.0717V66.125C33.5415 66.5127 33.3887 66.8834 33.1142 67.1563C32.9786 67.293 29.715 70.4984 24.7947 70.5Z" fill="#DD3333"/>
<path d="M49.5835 55.9165C45.5626 55.9165 42.2915 52.6454 42.2915 48.625V45.7085C42.2915 41.6876 45.5626 38.4165 49.5835 38.4165C53.6039 38.4165 56.875 41.6876 56.875 45.7085V48.625C56.875 52.6454 53.6039 55.9165 49.5835 55.9165ZM49.5835 41.3335C47.1712 41.3335 45.2085 43.2962 45.2085 45.7085V48.625C45.2085 51.0374 47.1712 53 49.5835 53C51.9953 53 53.9585 51.0374 53.9585 48.625V45.7085C53.9585 43.2962 51.9953 41.3335 49.5835 41.3335Z" fill="#DD3333"/>
<path d="M53.9612 70.5H45.2053C40.2834 70.4984 37.0225 67.293 36.8857 67.1563C36.6112 66.8834 36.4585 66.5127 36.4585 66.125V61.0717C36.4585 60.0918 36.9456 59.1833 37.7605 58.6439L45.2085 53.6783V53H48.125V54.4585C48.125 54.9456 47.8815 55.4006 47.4761 55.6719L39.375 61.0717V65.4585C40.2498 66.1512 42.3994 67.5819 45.2053 67.5835H53.9612C56.7949 67.5819 58.9242 66.1554 59.7915 65.4644V61.0717L51.6904 55.6719C51.285 55.4006 51.0415 54.9456 51.0415 54.4585V53H53.9585V53.6783L61.4091 58.645C62.2225 59.1876 62.7085 60.095 62.7085 61.0717V66.125C62.7085 66.5127 62.5552 66.8834 62.2812 67.1563C62.144 67.293 58.883 70.4984 53.9612 70.5Z" fill="#DD3333"/>
</g>
</g>
<defs>
<clipPath id="clip0_1324_217">
<rect width="70" height="70" fill="white" transform="translate(0 0.5)"/>
</clipPath>
</defs>
</svg>
