<svg width="44" height="64" viewBox="0 0 44 64" fill="none" xmlns="http://www.w3.org/2000/svg">
<path d="M39.1197 56.4846C35.6286 60.9852 29.848 62.3698 24.4638 62.7091C18.3805 63.0662 11.2288 62.6919 6.51983 58.3768C2.82935 55.0017 1.25521 49.8134 1.55681 44.8865C1.88909 39.5259 4.6438 34.7402 8.6881 31.2897C12.9554 27.6716 18.4789 25.5277 23.9906 24.9614C27.3203 24.6491 30.8615 24.828 33.8621 26.3487C35.3016 27.0578 37.0204 28.1274 37.5526 29.7238C38.2079 31.57 36.7714 33.1402 35.3643 34.1294C32.9019 35.8604 29.5166 36.7108 26.5676 37.1135C23.4552 37.5877 20.1132 37.4929 17.2344 36.0745C12.4566 33.7277 10.189 28.2279 10.6264 23.0392C11.1642 16.5145 16.1342 11.3358 21.6858 8.46348C28.0877 5.0947 35.6039 4.71011 42.6672 4.84283C44.0142 4.8685 43.935 2.75478 42.588 2.72911C35.1274 2.57559 27.3536 3.11956 20.582 6.65786C14.9874 9.5567 10.0175 14.7355 8.84843 21.1471C7.79334 26.7772 9.61889 33.0542 14.3116 36.5202C19.8818 40.5987 28.0131 39.478 33.9896 36.8169C36.5264 35.6915 39.5719 33.5108 39.3368 30.3678C39.128 27.2677 35.7953 25.3006 33.2056 24.3552C27.0212 22.0788 19.5487 23.5029 13.694 26.2665C8.16604 28.8871 3.31962 33.3969 1.19567 39.2143C-0.725885 44.4918 -0.351188 50.7185 2.46355 55.6132C6.41803 62.469 14.289 64.1165 21.6693 63.9937C28.2038 63.8907 35.4949 62.4604 39.5805 56.8512C39.8285 56.5793 39.333 56.2044 39.1197 56.4846Z" fill="#0162CA"/>
<path d="M43.1898 3.42325C41.4138 5.64798 39.3264 7.79878 36.9056 9.35593C37.2723 9.81048 37.6652 10.308 38.0318 10.7626C39.9475 8.71802 41.7498 6.53628 43.6046 4.44052C43.998 4.01934 43.9818 3.17018 43.3839 2.91801C40.8358 1.7987 38.2627 0.783719 35.5884 0.0387508C34.3163 -0.299918 33.8418 1.68241 35.1055 2.05585C37.5985 2.79453 40.0402 3.59455 42.4236 4.63801C42.3588 4.14484 42.2677 3.60868 42.2029 3.1155C40.3743 5.25425 38.4849 7.3418 36.7172 9.53175C35.983 10.4601 37.1412 11.5803 38.0235 10.7974C40.3102 8.7306 42.3035 6.6677 43.9288 4.00292C44.2267 3.52232 43.514 2.98564 43.1898 3.42325Z" fill="#0162CA"/>
</svg>
