<svg width="45" height="45" viewBox="0 0 45 45" fill="none" xmlns="http://www.w3.org/2000/svg">
<g clip-path="url(#clip0_768_4605)">
<path d="M44.343 18.0059L39.7756 17.4353C39.4124 16.1964 38.9158 15.0007 38.295 13.8691L41.1233 10.2323C41.3555 9.93384 41.3291 9.50903 41.0618 9.24133L35.7587 3.93823C35.491 3.67053 35.0658 3.64417 34.767 3.87671L31.1301 6.70496C29.9985 6.0846 28.8032 5.58801 27.5647 5.22437L26.9941 0.656982C26.9473 0.281616 26.6283 0 26.25 0H18.75C18.3717 0 18.0527 0.281616 18.0059 0.656982L17.4353 5.22437C16.1968 5.58801 15.0011 6.0846 13.8691 6.70496L10.2323 3.87671C9.93384 3.64453 9.50903 3.6709 9.24133 3.93823L3.93823 9.24133C3.6709 9.50903 3.64453 9.93384 3.87671 10.2323L6.70496 13.8691C6.08459 15.0011 5.58801 16.1968 5.22437 17.4353L0.656982 18.0059C0.281616 18.0527 0 18.3717 0 18.75V26.25C0 26.6283 0.281616 26.9473 0.656982 26.9941L5.22437 27.5647C5.42212 28.2382 5.65942 28.8992 5.93481 29.5448L7.31396 28.9552C7.00049 28.2213 6.74158 27.4655 6.53943 26.6931C6.46143 26.3965 6.21094 26.1768 5.90625 26.139L1.5 25.5879V19.4121L5.90625 18.861C6.21057 18.8232 6.46106 18.6039 6.53943 18.3076C6.91919 16.8611 7.49451 15.4731 8.25 14.1826C8.40491 13.9178 8.3833 13.5853 8.19507 13.3433L5.46753 9.83386L9.83386 5.46753L13.3433 8.1969C13.5857 8.3844 13.9182 8.40564 14.1826 8.25C15.4731 7.49414 16.8611 6.91809 18.3076 6.5376C18.6039 6.4596 18.8232 6.20911 18.861 5.90479L19.4121 1.5H25.5879L26.139 5.90625C26.1768 6.21094 26.3965 6.46143 26.6931 6.53943C28.1396 6.91919 29.5272 7.49451 30.8174 8.25C31.0822 8.40491 31.4147 8.3833 31.6567 8.19507L35.1661 5.46753L39.5332 9.83386L36.8031 13.3433C36.6156 13.5857 36.5944 13.9182 36.75 14.1826C37.5066 15.4728 38.083 16.8607 38.4631 18.3076C38.5411 18.6039 38.7916 18.8232 39.0959 18.861L43.5 19.4121V25.5879L39.0938 26.139C38.7898 26.1771 38.5393 26.3961 38.4617 26.6924C38.2584 27.4647 37.9991 28.2209 37.686 28.9552L39.0659 29.5448C39.3409 28.8992 39.5779 28.2382 39.7756 27.5647L44.343 26.9941C44.7184 26.9473 45 26.6283 45 26.25V18.75C45 18.3717 44.7184 18.0527 44.343 18.0059Z" fill="#0162CA"/>
<path d="M21.75 4.5H23.25V6H21.75V4.5Z" fill="#0162CA"/>
<path d="M9.24219 10.3022L10.3027 9.2417L11.3633 10.3022L10.3027 11.3628L9.24219 10.3022Z" fill="#0162CA"/>
<path d="M4.5 21.75H6V23.25H4.5V21.75Z" fill="#0162CA"/>
<path d="M39 21.75H40.5V23.25H39V21.75Z" fill="#0162CA"/>
<path d="M33.6377 10.3026L34.6986 9.24207L35.7592 10.3026L34.6986 11.3635L33.6377 10.3026Z" fill="#0162CA"/>
<path d="M11.4561 16.125L12.7543 16.875C14.7648 13.3934 18.4796 11.2489 22.4999 11.2489C26.5201 11.2489 30.235 13.3934 32.2455 16.875L33.5437 16.125C31.2651 12.1802 27.0555 9.75037 22.4999 9.75037C17.9442 9.75037 13.7346 12.1802 11.4561 16.125Z" fill="#0162CA"/>
<path d="M34.5 18H10.5C9.25745 18 8.25 19.0074 8.25 20.25V42.75C8.25 43.9926 9.25745 45 10.5 45H34.5C35.7426 45 36.75 43.9926 36.75 42.75V20.25C36.75 19.0074 35.7426 18 34.5 18ZM10.5 19.5H34.5C34.9142 19.5 35.25 19.8358 35.25 20.25V22.5H9.75V20.25C9.75 19.8358 10.0858 19.5 10.5 19.5ZM34.5 43.5H10.5C10.0858 43.5 9.75 43.1642 9.75 42.75V24H35.25V42.75C35.25 43.1642 34.9142 43.5 34.5 43.5Z" fill="#0162CA"/>
<path d="M12 36H21V37.5H12V36Z" fill="#0162CA"/>
<path d="M12 39H21V40.5H12V39Z" fill="#0162CA"/>
<path d="M24 36H33V37.5H24V36Z" fill="#0162CA"/>
<path d="M24 39H33V40.5H24V39Z" fill="#0162CA"/>
<path d="M11.25 20.25H12.75V21.75H11.25V20.25Z" fill="#0162CA"/>
<path d="M14.25 20.25H15.75V21.75H14.25V20.25Z" fill="#0162CA"/>
<path d="M17.25 20.25H18.75V21.75H17.25V20.25Z" fill="#0162CA"/>
<path d="M17.25 30H18.75V31.5H17.25V30Z" fill="#0162CA"/>
<path d="M20.25 30H21.75V31.5H20.25V30Z" fill="#0162CA"/>
<path d="M23.25 30H24.75V31.5H23.25V30Z" fill="#0162CA"/>
<path d="M26.25 30H27.75V31.5H26.25V30Z" fill="#0162CA"/>
<path d="M32.25 27H12.75C12.3358 27 12 27.3358 12 27.75V33.75C12 34.1642 12.3358 34.5 12.75 34.5H32.25C32.6642 34.5 33 34.1642 33 33.75V27.75C33 27.3358 32.6642 27 32.25 27ZM31.5 33H13.5V28.5H31.5V33Z" fill="#0162CA"/>
</g>
<defs>
<clipPath id="clip0_768_4605">
<rect width="45" height="45" fill="white"/>
</clipPath>
</defs>
</svg>
