<svg width="50" height="50" viewBox="0 0 50 50" fill="none" xmlns="http://www.w3.org/2000/svg">
<g clip-path="url(#clip0_768_4632)">
<path d="M49.0792 23.8831C48.5642 23.3243 47.8598 22.9771 47.103 22.9089C46.3462 22.8408 45.5911 23.0566 44.9846 23.5143L35.2463 30.8288C35.011 30.7028 34.7599 30.6091 34.4996 30.5501L21.2188 27.5309C20.1654 27.2791 19.07 27.2567 18.0071 27.4654C16.9443 27.674 15.9387 28.1088 15.0586 28.7402L8.62304 33.2498L8.1328 32.5118C8.01817 32.3392 7.83966 32.2192 7.63656 32.1782C7.43346 32.1372 7.22239 32.1786 7.04979 32.2932L0.349013 36.7437C0.176417 36.8583 0.056428 37.0368 0.0154412 37.2399C-0.0255456 37.443 0.0158271 37.6541 0.130458 37.8267L7.90038 49.5249C8.01502 49.6975 8.19352 49.8175 8.39662 49.8585C8.59972 49.8995 8.81079 49.8581 8.98339 49.7435L15.6836 45.2929C15.8562 45.1783 15.9762 44.9998 16.0172 44.7967C16.0581 44.5936 16.0168 44.3825 15.9021 44.2099L15.4062 43.4632L18.6191 41.0137L31.9961 42.8767C32.6469 42.9742 33.3116 42.9165 33.9359 42.7083C34.5602 42.5001 35.1264 42.1473 35.5884 41.6786L49.0942 28.2567C49.6607 27.6976 49.9869 26.9397 50.0035 26.144C50.02 25.3482 49.7256 24.5774 49.1828 23.9953L49.0792 23.8831ZM8.76952 48.0097L1.86425 37.613L7.26317 34.027L14.1687 44.4238L8.76952 48.0097ZM47.9932 27.1484L34.4875 40.5703C34.1965 40.8694 33.838 41.0945 33.4421 41.2265C33.0462 41.3586 32.6244 41.3938 32.2121 41.3292L18.5128 39.4214C18.4106 39.4072 18.3066 39.4133 18.2068 39.4395C18.107 39.4657 18.0134 39.5113 17.9313 39.5739L14.5402 42.159L9.48739 34.5516L15.9555 30.0195C17.4448 28.9758 19.0992 28.6512 20.8724 29.0543L34.1536 32.0741C34.5168 32.1578 34.8322 32.3818 35.0307 32.6973C35.2293 33.0127 35.295 33.3939 35.2135 33.7577L35.1978 33.826C35.1146 34.1856 34.894 34.4984 34.5831 34.6973C34.2722 34.8963 33.8957 34.9656 33.5344 34.8905L24.0732 32.8839C23.8705 32.841 23.6591 32.8803 23.4854 32.9932C23.3116 33.1061 23.1899 33.2834 23.1469 33.4861C23.1039 33.6888 23.1432 33.9003 23.2562 34.074C23.3691 34.2477 23.5464 34.3695 23.7491 34.4125L33.2098 36.4188C33.9724 36.5774 34.7669 36.4311 35.4231 36.0113C36.0794 35.5916 36.5452 34.9316 36.7211 34.1727L36.7366 34.1043C36.9075 33.3603 36.7829 32.5789 36.3892 31.9249L45.9229 24.7637C46.2206 24.539 46.5913 24.4331 46.9627 24.4666C47.3342 24.5001 47.6799 24.6705 47.9327 24.9448L48.0367 25.0571C48.303 25.3428 48.4475 25.7211 48.4393 26.1116C48.4312 26.502 48.2712 26.874 47.9932 27.1484ZM25.5436 10.9147C25.4264 11.1644 25.3204 11.4197 25.2266 11.6787L23.0094 12.244C22.8411 12.2869 22.692 12.3846 22.5854 12.5217C22.4789 12.6587 22.4211 12.8274 22.4211 13.001V16.4619C22.4211 16.6355 22.4789 16.8041 22.5854 16.9412C22.6919 17.0783 22.8411 17.176 23.0093 17.2189L25.2242 17.7837C25.3169 18.0404 25.4211 18.2925 25.5367 18.5402L24.3648 20.514C24.2762 20.6633 24.2399 20.8378 24.2615 21.0101C24.2831 21.1823 24.3615 21.3424 24.4843 21.4652L26.9314 23.9125C27.0542 24.0352 27.2143 24.1135 27.3866 24.1352C27.5588 24.1568 27.7333 24.1204 27.8826 24.0318L29.848 22.8651C30.0954 22.9823 30.3477 23.0876 30.6048 23.181L31.1712 25.403C31.2141 25.5712 31.3118 25.7204 31.4488 25.8269C31.5859 25.9334 31.7546 25.9913 31.9282 25.9913H35.3896C35.5632 25.9913 35.7319 25.9334 35.869 25.8269C36.0061 25.7204 36.1038 25.5713 36.1467 25.4031L36.7088 23.1985C36.97 23.1051 37.2266 22.9995 37.4787 22.8819L39.4416 24.0472C39.5909 24.1358 39.7654 24.1722 39.9376 24.1505C40.1099 24.1289 40.27 24.0505 40.3928 23.9278L42.8399 21.4806C42.9627 21.3579 43.0411 21.1977 43.0627 21.0255C43.0843 20.8532 43.048 20.6786 42.9594 20.5293L41.8039 18.5831C41.9251 18.3277 42.0343 18.0666 42.1306 17.8018L44.3306 17.2408C44.4988 17.1979 44.6479 17.1002 44.7544 16.9631C44.8609 16.8261 44.9187 16.6574 44.9187 16.4838V13.0227C44.9187 12.8491 44.8609 12.6805 44.7544 12.5434C44.6479 12.4063 44.4988 12.3086 44.3306 12.2657L42.146 11.709C42.0498 11.4403 41.9408 11.1764 41.8192 10.9172L42.9746 8.97104C43.0632 8.82176 43.0995 8.64723 43.0779 8.47499C43.0563 8.30275 42.9779 8.14262 42.8552 8.01987L40.4082 5.57222C40.2854 5.44946 40.1253 5.37109 39.9531 5.34946C39.7808 5.32783 39.6063 5.36419 39.457 5.45278L37.5167 6.60513C37.259 6.48335 36.9954 6.37378 36.728 6.27729L36.1682 4.08198C36.1253 3.91377 36.0276 3.76463 35.8906 3.65812C35.7535 3.55161 35.5848 3.4938 35.4112 3.4938H31.9504C31.7768 3.4938 31.6081 3.55161 31.471 3.65812C31.334 3.76463 31.2362 3.91377 31.1933 4.08198L30.6336 6.2772C30.3698 6.37238 30.1106 6.4798 29.8557 6.59946L27.8982 5.43735C27.7489 5.34876 27.5744 5.3124 27.4022 5.33403C27.2299 5.35566 27.0698 5.43403 26.9471 5.55679L24.4999 8.00405C24.3772 8.12681 24.2988 8.28694 24.2772 8.45918C24.2556 8.63142 24.2919 8.80595 24.3806 8.95523L25.5436 10.9147ZM27.1051 10.4839L26.034 8.67964L27.6226 7.09097L29.4253 8.16099C29.5408 8.22955 29.672 8.26719 29.8062 8.27027C29.9405 8.27335 30.0733 8.24176 30.1918 8.17856C30.6134 7.95361 31.0559 7.77007 31.513 7.63052C31.6414 7.59139 31.7576 7.51982 31.8503 7.42273C31.943 7.32564 32.0091 7.2063 32.0423 7.07622L32.5574 5.05591H34.8047L35.3197 7.07622C35.3529 7.2063 35.419 7.32564 35.5117 7.42273C35.6044 7.51982 35.7206 7.59139 35.849 7.63052C36.3093 7.77109 36.7548 7.95631 37.1791 8.18355C37.2977 8.247 37.4306 8.27876 37.5651 8.27577C37.6995 8.27277 37.8309 8.23512 37.9466 8.16646L39.7326 7.1063L41.3213 8.69497L40.2583 10.4858C40.1898 10.6012 40.1522 10.7322 40.149 10.8664C40.1459 11.0005 40.1774 11.1332 40.2404 11.2516C40.4668 11.6773 40.6511 12.1241 40.7905 12.5856C40.8294 12.7144 40.9009 12.8311 40.9981 12.9241C41.0954 13.0172 41.215 13.0836 41.3454 13.1168L43.3564 13.6297V15.8765L41.3327 16.3925C41.203 16.4256 41.0839 16.4915 40.9869 16.5838C40.89 16.6762 40.8184 16.7919 40.779 16.9199C40.6378 17.378 40.4524 17.8213 40.2255 18.2435C40.1617 18.3622 40.1297 18.4953 40.1325 18.63C40.1354 18.7647 40.173 18.8963 40.2418 19.0122L41.3062 20.8048L39.7176 22.3936L37.9109 21.3211C37.7958 21.2528 37.6651 21.2152 37.5313 21.212C37.3975 21.2087 37.2652 21.2398 37.1469 21.3024C36.7269 21.5244 36.2864 21.7055 35.8317 21.843C35.7029 21.8819 35.5864 21.9535 35.4933 22.0507C35.4003 22.1478 35.3339 22.2674 35.3007 22.3978L34.7831 24.4291H32.5358L32.0143 22.3836C31.9813 22.254 31.9155 22.1351 31.8233 22.0382C31.7311 21.9413 31.6155 21.8697 31.4877 21.8302C31.0373 21.6909 30.6013 21.5088 30.1856 21.2865C30.0671 21.2231 29.9342 21.1913 29.7998 21.1943C29.6654 21.1973 29.534 21.235 29.4184 21.3036L27.6074 22.3784L26.0187 20.7896L27.0978 18.9717C27.1662 18.8565 27.2038 18.7257 27.207 18.5918C27.2102 18.4578 27.179 18.3253 27.1162 18.207C26.8957 17.7908 26.7153 17.3545 26.5776 16.9041C26.5385 16.7757 26.4669 16.6596 26.3699 16.567C26.2728 16.4743 26.1535 16.4082 26.0235 16.375L23.9836 15.8548V13.6081L26.0255 13.0875C26.1554 13.0543 26.2747 12.9883 26.3717 12.8957C26.4688 12.8032 26.5403 12.6872 26.5796 12.5589C26.7183 12.1063 26.9002 11.6681 27.1227 11.2503C27.1859 11.1318 27.2175 10.9991 27.2144 10.8648C27.2113 10.7306 27.1736 10.5994 27.1051 10.4839ZM33.67 19.4752C34.6061 19.4752 35.5211 19.1977 36.2995 18.6776C37.0778 18.1575 37.6844 17.4184 38.0426 16.5535C38.4009 15.6887 38.4946 14.7371 38.312 13.819C38.1294 12.9009 37.6786 12.0576 37.0167 11.3957C36.3548 10.7338 35.5114 10.283 34.5934 10.1004C33.6753 9.91774 32.7236 10.0115 31.8588 10.3697C30.994 10.7279 30.2548 11.3345 29.7347 12.1129C29.2147 12.8912 28.9371 13.8063 28.9371 14.7423C28.9385 15.9971 29.4376 17.2002 30.3249 18.0874C31.2122 18.9747 32.4152 19.4738 33.67 19.4752ZM33.67 11.5719C34.2971 11.5719 34.91 11.7579 35.4314 12.1062C35.9528 12.4546 36.3591 12.9498 36.5991 13.5291C36.839 14.1084 36.9018 14.7459 36.7795 15.3609C36.6572 15.9758 36.3552 16.5408 35.9118 16.9842C35.4684 17.4275 34.9035 17.7295 34.2885 17.8518C33.6735 17.9742 33.0361 17.9114 32.4567 17.6714C31.8774 17.4315 31.3823 17.0251 31.0339 16.5037C30.6855 15.9823 30.4996 15.3694 30.4996 14.7423C30.5006 13.9018 30.8349 13.096 31.4293 12.5017C32.0237 11.9074 32.8295 11.5731 33.67 11.5722V11.5719ZM6.43554 21.3919L7.76474 21.7308C7.79865 21.8186 7.83446 21.9056 7.87216 21.9917L7.16903 23.1768C7.0804 23.3261 7.04402 23.5006 7.06563 23.6729C7.08724 23.8452 7.16561 24.0053 7.28837 24.1281L8.90536 25.745C9.02812 25.8677 9.18825 25.9461 9.36049 25.9677C9.53273 25.9893 9.70726 25.9529 9.85653 25.8643L11.0351 25.1644C11.1215 25.2027 11.2087 25.2391 11.2966 25.2735L11.6368 26.6079C11.6797 26.7761 11.7774 26.9252 11.9145 27.0318C12.0516 27.1383 12.2202 27.1961 12.3938 27.1961H14.6805C14.8541 27.1961 15.0227 27.1383 15.1598 27.0318C15.2969 26.9253 15.3946 26.7762 15.4375 26.608L15.7745 25.286C15.8652 25.2512 15.9551 25.2142 16.0441 25.175L17.2224 25.8746C17.3716 25.9632 17.5462 25.9995 17.7185 25.9779C17.8907 25.9563 18.0509 25.8779 18.1736 25.7551L19.7904 24.1382C19.9132 24.0155 19.9915 23.8554 20.0132 23.6831C20.0348 23.5109 19.9984 23.3363 19.9099 23.1871L19.2176 22.0208C19.2585 21.9291 19.2973 21.8364 19.3338 21.7428L20.6534 21.4063C20.8216 21.3634 20.9708 21.2657 21.0773 21.1286C21.1838 20.9915 21.2416 20.8229 21.2416 20.6493V18.3625C21.2416 18.189 21.1837 18.0203 21.0772 17.8833C20.9707 17.7462 20.8216 17.6485 20.6534 17.6056L19.3448 17.2718C19.308 17.1761 19.2689 17.0813 19.2276 16.9874L19.92 15.8203C20.0086 15.671 20.045 15.4965 20.0234 15.3242C20.0018 15.152 19.9234 14.9918 19.8007 14.8691L18.1836 13.2526C18.0608 13.1298 17.9007 13.0514 17.7284 13.0298C17.5561 13.0081 17.3815 13.0445 17.2322 13.1332L16.0701 13.8233C15.9767 13.7818 15.8825 13.7428 15.7875 13.7061L15.4518 12.39C15.409 12.2218 15.3113 12.0726 15.1742 11.9661C15.0371 11.8595 14.8684 11.8017 14.6948 11.8017H12.4082C12.2346 11.8017 12.0659 11.8595 11.9289 11.966C11.7918 12.0725 11.6941 12.2217 11.6512 12.3899L11.3155 13.7061C11.2229 13.7419 11.1312 13.78 11.0402 13.8203L9.8663 13.1233C9.71707 13.0346 9.54255 12.9981 9.37029 13.0197C9.19803 13.0412 9.03785 13.1195 8.91503 13.2421L7.29813 14.8593C7.1754 14.9821 7.09704 15.1422 7.07543 15.3145C7.05382 15.4867 7.09019 15.6612 7.1788 15.8105L7.87655 16.986C7.83749 17.0738 7.80067 17.1625 7.7661 17.2519L6.43554 17.5913C6.26732 17.6342 6.11819 17.7319 6.01168 17.869C5.90517 18.006 5.84735 18.1747 5.84735 18.3483V20.6347C5.84731 20.8083 5.9051 20.9771 6.01162 21.1142C6.11813 21.2513 6.26729 21.349 6.43554 21.3919ZM7.40956 18.955L8.55907 18.6621C8.689 18.6289 8.80821 18.5629 8.90524 18.4704C9.00226 18.3778 9.07384 18.2619 9.11307 18.1336C9.19976 17.8508 9.3134 17.577 9.45243 17.3159C9.51554 17.1974 9.54707 17.0647 9.54398 16.9305C9.54088 16.7963 9.50326 16.6652 9.43475 16.5498L8.83222 15.5348L9.59061 14.7764L10.6045 15.3783C10.7199 15.4468 10.8511 15.4844 10.9854 15.4875C11.1196 15.4906 11.2524 15.459 11.3709 15.3959C11.6343 15.2553 11.9108 15.1406 12.1964 15.0534C12.3248 15.0143 12.441 14.9427 12.5337 14.8456C12.6265 14.7485 12.6926 14.6292 12.7258 14.4991L13.0152 13.3638H14.0878L14.3772 14.4991C14.4104 14.6292 14.4765 14.7485 14.5692 14.8456C14.662 14.9427 14.7781 15.0142 14.9065 15.0534C15.1942 15.1412 15.4725 15.2569 15.7377 15.3989C15.8563 15.4623 15.9892 15.4941 16.1237 15.4911C16.2581 15.4882 16.3895 15.4505 16.5052 15.3819L17.5082 14.7862L18.2666 15.5446L17.6693 16.5504C17.6008 16.6658 17.5632 16.7969 17.5601 16.931C17.557 17.0651 17.5884 17.1978 17.6515 17.3163C17.7929 17.5822 17.9081 17.8614 17.9952 18.1498C18.0341 18.2786 18.1056 18.3952 18.2028 18.4883C18.3001 18.5814 18.4197 18.6478 18.5501 18.681L19.6792 18.9689V20.0415L18.5416 20.332C18.4119 20.3651 18.2928 20.431 18.1959 20.5233C18.0989 20.6156 18.0273 20.7314 17.988 20.8593C17.8998 21.1456 17.7839 21.4226 17.6421 21.6864C17.5783 21.805 17.5463 21.9381 17.5492 22.0728C17.5521 22.2075 17.5897 22.3391 17.6585 22.4549L18.2564 23.4624L17.4981 24.2208L16.4815 23.6173C16.3664 23.549 16.2357 23.5114 16.1019 23.5081C15.9682 23.5049 15.8358 23.536 15.7175 23.5986C15.455 23.7373 15.1799 23.8504 14.8958 23.9364C14.767 23.9753 14.6504 24.0468 14.5574 24.144C14.4643 24.2412 14.398 24.3608 14.3647 24.4912L14.0735 25.6337H13.001L12.7073 24.4819C12.6743 24.3522 12.6085 24.2333 12.5162 24.1363C12.424 24.0394 12.3084 23.9678 12.1806 23.9284C11.8992 23.8414 11.6268 23.7276 11.3671 23.5887C11.2485 23.5253 11.1157 23.4936 10.9813 23.4966C10.8469 23.4996 10.7156 23.5372 10.6 23.6058L9.58056 24.2113L8.82206 23.4529L9.42997 22.429C9.49837 22.3137 9.53599 22.1828 9.53921 22.0489C9.54242 21.9149 9.51113 21.7824 9.44833 21.664C9.31055 21.404 9.19789 21.1315 9.1119 20.85C9.07274 20.7217 9.00117 20.6056 8.9041 20.5129C8.80703 20.4203 8.68773 20.3542 8.5577 20.321L7.40956 20.0281V18.955ZM13.5443 22.8906C14.2152 22.8906 14.8711 22.6916 15.4289 22.3189C15.9868 21.9461 16.4216 21.4163 16.6783 20.7965C16.9351 20.1767 17.0022 19.4946 16.8713 18.8366C16.7404 18.1785 16.4173 17.5741 15.9429 17.0997C15.4685 16.6253 14.8641 16.3022 14.206 16.1714C13.548 16.0405 12.866 16.1077 12.2461 16.3644C11.6263 16.6212 11.0965 17.056 10.7238 17.6139C10.351 18.1717 10.1521 18.8276 10.1521 19.4985C10.1531 20.3978 10.5109 21.2601 11.1468 21.896C11.7827 22.5319 12.645 22.8896 13.5443 22.8906ZM13.5443 17.6688C13.9062 17.6688 14.26 17.7761 14.5608 17.9772C14.8617 18.1782 15.0962 18.464 15.2347 18.7983C15.3732 19.1326 15.4095 19.5005 15.3389 19.8554C15.2683 20.2104 15.094 20.5364 14.8381 20.7923C14.5822 21.0482 14.2562 21.2224 13.9013 21.293C13.5464 21.3636 13.1785 21.3274 12.8441 21.1889C12.5098 21.0504 12.224 20.8159 12.023 20.515C11.8219 20.2141 11.7146 19.8604 11.7146 19.4985C11.7153 19.0134 11.9082 18.5484 12.2512 18.2055C12.5942 17.8625 13.0593 17.6696 13.5443 17.6691V17.6688ZM13.0106 7.40806L13.8309 7.61733L13.3961 8.34976C13.3074 8.49904 13.2711 8.67359 13.2927 8.84585C13.3143 9.01811 13.3927 9.17826 13.5154 9.30103L14.6687 10.4543C14.7915 10.5771 14.9516 10.6555 15.1239 10.6771C15.2962 10.6988 15.4707 10.6624 15.62 10.5738L16.3484 10.1414L16.5589 10.9669C16.6018 11.1352 16.6995 11.2843 16.8366 11.3908C16.9737 11.4973 17.1424 11.5552 17.316 11.5551H18.9469C19.1205 11.5551 19.2891 11.4973 19.4262 11.3908C19.5633 11.2842 19.661 11.1351 19.7039 10.9668L19.9132 10.146L20.6456 10.581C20.7949 10.6696 20.9694 10.706 21.1417 10.6844C21.314 10.6627 21.4741 10.5843 21.5969 10.4616L22.7503 9.30825C22.873 9.18549 22.9514 9.02533 22.973 8.85307C22.9946 8.68081 22.9582 8.50626 22.8696 8.35698L22.4372 7.62856L23.2628 7.41812C23.431 7.37521 23.5801 7.27751 23.6866 7.14042C23.7931 7.00334 23.851 6.83468 23.851 6.66108V5.03022C23.851 4.85663 23.7931 4.68797 23.6866 4.55088C23.5801 4.4138 23.431 4.31609 23.2628 4.27319L22.4419 4.06392L22.8768 3.33149C22.9654 3.18221 23.0018 3.00768 22.9802 2.83544C22.9585 2.6632 22.8802 2.50307 22.7574 2.38032L21.6041 1.2269C21.4813 1.10417 21.3212 1.02581 21.149 1.0042C20.9767 0.98259 20.8022 1.01896 20.6529 1.10757L19.9245 1.53989L19.714 0.714404C19.6711 0.54619 19.5733 0.397055 19.4363 0.290545C19.2992 0.184035 19.1305 0.126218 18.9569 0.126221H17.3261C17.1525 0.126218 16.9838 0.184035 16.8467 0.290545C16.7096 0.397055 16.6119 0.54619 16.569 0.714404L16.3598 1.53521L15.6273 1.10034C15.4781 1.01173 15.3035 0.975364 15.1313 0.996973C14.9591 1.01858 14.7989 1.09694 14.6762 1.21968L13.5231 2.373C13.4004 2.49574 13.322 2.65587 13.3004 2.82811C13.2788 3.00035 13.3151 3.17489 13.4037 3.32417L13.8361 4.05259L13.0106 4.26313C12.8424 4.30602 12.6932 4.40371 12.5867 4.5408C12.4802 4.67789 12.4224 4.84655 12.4224 5.02017V6.65103C12.4224 6.82464 12.4802 6.9933 12.5867 7.13039C12.6932 7.26748 12.8424 7.36517 13.0106 7.40806ZM13.9849 5.627L14.6362 5.46099C14.7662 5.42784 14.8854 5.36181 14.9824 5.26925C15.0794 5.17669 15.151 5.06071 15.1902 4.93247C15.2479 4.74448 15.3235 4.56246 15.4159 4.38892C15.479 4.27045 15.5105 4.13772 15.5074 4.00353C15.5043 3.86934 15.4667 3.73822 15.3981 3.6228L15.0572 3.04849L15.3521 2.75356L15.9257 3.09409C16.0411 3.16262 16.1723 3.20024 16.3066 3.2033C16.4408 3.20636 16.5736 3.17477 16.6921 3.11157C16.8672 3.01817 17.051 2.94193 17.2408 2.88394C17.3692 2.8448 17.4854 2.77324 17.5781 2.67615C17.6708 2.57906 17.7369 2.45972 17.7701 2.32964L17.9336 1.68853H18.3507L18.5141 2.32964C18.5473 2.45965 18.6133 2.57893 18.706 2.676C18.7986 2.77306 18.9146 2.84464 19.043 2.88384C19.2342 2.94225 19.4193 3.01917 19.5956 3.11353C19.7142 3.17697 19.8471 3.20875 19.9815 3.20577C20.116 3.20279 20.2473 3.16517 20.363 3.09653L20.9288 2.76069L21.2237 3.05562L20.8865 3.62368C20.818 3.73907 20.7804 3.87016 20.7773 4.00431C20.7742 4.13846 20.8057 4.27116 20.8687 4.3896C20.9628 4.56634 21.0393 4.75186 21.0973 4.94351C21.1361 5.07235 21.2077 5.18897 21.3049 5.28204C21.4021 5.37512 21.5217 5.4415 21.6521 5.47476L22.2889 5.63716V6.05464L21.6461 6.21851C21.5163 6.25159 21.3973 6.31746 21.3003 6.40981C21.2033 6.50215 21.1317 6.61787 21.0924 6.74585C21.0337 6.93604 20.9567 7.12007 20.8625 7.29536C20.7987 7.41403 20.7667 7.54718 20.7695 7.68188C20.7724 7.81658 20.81 7.94826 20.8788 8.06411L21.2166 8.63306L20.9217 8.92798L20.3463 8.58618C20.2312 8.51784 20.1005 8.48022 19.9667 8.47692C19.8328 8.47362 19.7004 8.50475 19.5821 8.56733C19.4077 8.65957 19.2248 8.73479 19.0359 8.79194C18.9071 8.83086 18.7906 8.90238 18.6975 8.99958C18.6045 9.09677 18.5381 9.21635 18.5049 9.34673L18.3401 9.99292H17.923L17.7565 9.33989C17.7235 9.21028 17.6577 9.09132 17.5655 8.99442C17.4732 8.89752 17.3577 8.82592 17.2299 8.78647C17.043 8.72849 16.862 8.65282 16.6894 8.5605C16.5709 8.49712 16.438 8.4654 16.3036 8.46841C16.1692 8.47142 16.0378 8.50906 15.9223 8.57769L15.3447 8.92046L15.0499 8.62564L15.3946 8.04487C15.463 7.92966 15.5007 7.79878 15.5039 7.66482C15.5071 7.53085 15.4759 7.39831 15.4131 7.27993C15.3214 7.10711 15.2465 6.92591 15.1893 6.73882C15.1502 6.61049 15.0786 6.49441 14.9815 6.40177C14.8845 6.30914 14.7652 6.24306 14.6351 6.20991L13.9848 6.0439L13.9849 5.627ZM18.1371 8.48423C18.66 8.48421 19.1711 8.32915 19.6058 8.03865C20.0405 7.74815 20.3794 7.33526 20.5794 6.85219C20.7795 6.36912 20.8319 5.83758 20.7298 5.32477C20.6278 4.81195 20.376 4.34091 20.0063 3.9712C19.6366 3.60149 19.1655 3.34971 18.6527 3.24771C18.1399 3.14572 17.6084 3.19807 17.1253 3.39817C16.6422 3.59826 16.2294 3.93711 15.9389 4.37185C15.6484 4.8066 15.4933 5.31772 15.4933 5.84058C15.4941 6.5415 15.7729 7.21351 16.2685 7.70913C16.7642 8.20475 17.4362 8.4835 18.1371 8.48423ZM18.1371 4.75942C18.3509 4.75944 18.5599 4.82287 18.7377 4.94168C18.9155 5.06049 19.0541 5.22935 19.1359 5.4269C19.2177 5.62446 19.2391 5.84184 19.1974 6.05156C19.1556 6.26127 19.0527 6.45391 18.9015 6.6051C18.7502 6.75629 18.5576 6.85925 18.3479 6.90096C18.1382 6.94267 17.9208 6.92125 17.7232 6.83942C17.5257 6.75759 17.3568 6.61901 17.238 6.44122C17.1193 6.26343 17.0558 6.0544 17.0558 5.84058C17.0562 5.55392 17.1702 5.27911 17.3729 5.07642C17.5756 4.87374 17.8504 4.75973 18.1371 4.75942Z" fill="#0162CA"/>
</g>
<defs>
<clipPath id="clip0_768_4632">
<rect width="50" height="50" fill="white"/>
</clipPath>
</defs>
</svg>
