<svg width="50" height="50" viewBox="0 0 50 50" fill="none" xmlns="http://www.w3.org/2000/svg">
<g clip-path="url(#clip0_768_4590)">
<path d="M27.5776 29.2384C27.9769 29.1731 28.2475 28.7965 28.1821 28.3973C27.84 26.3068 26.7617 24.3922 25.146 23.0063C23.512 21.6046 21.4251 20.8328 19.2695 20.8328C14.2886 20.8328 10.2363 24.885 10.2363 29.866C10.2363 34.8469 14.2886 38.8992 19.2695 38.8992C23.3977 38.8992 26.9961 36.1096 28.02 32.1155C28.1205 31.7236 27.8843 31.3246 27.4925 31.2241C27.1006 31.1236 26.7015 31.3598 26.6011 31.7516C25.7433 35.0975 22.7284 37.4342 19.2695 37.4342C15.0963 37.4342 11.7012 34.039 11.7012 29.8659C11.7012 25.6927 15.0963 22.2975 19.2695 22.2975C21.0754 22.2975 22.8237 22.9441 24.1923 24.118C25.5465 25.2796 26.45 26.8833 26.7365 28.6338C26.8018 29.0332 27.1781 29.3039 27.5776 29.2384Z" fill="#0162CA"/>
<path d="M19.2689 24.094C16.0863 24.094 13.4971 26.6833 13.4971 29.866C13.4971 33.0486 16.0863 35.6378 19.2689 35.6378C22.4517 35.6378 25.0409 33.0486 25.0409 29.866C25.0409 26.6833 22.4517 24.094 19.2689 24.094ZM19.2689 34.173C16.894 34.173 14.9619 32.2409 14.9619 29.866C14.9619 27.491 16.894 25.5588 19.2689 25.5588C21.6439 25.5588 23.5761 27.491 23.5761 29.866C23.5761 32.2409 21.6439 34.173 19.2689 34.173Z" fill="#0162CA"/>
<path d="M19.269 27.0139C17.6964 27.0139 16.417 28.2934 16.417 29.866C16.417 31.4385 17.6964 32.718 19.269 32.718C20.8417 32.718 22.1211 31.4385 22.1211 29.866C22.1211 28.2934 20.8417 27.0139 19.269 27.0139ZM19.269 31.2532C18.5041 31.2532 17.8818 30.6308 17.8818 29.866C17.8818 29.1011 18.5041 28.4788 19.269 28.4788C20.034 28.4788 20.6563 29.1011 20.6563 29.866C20.6563 30.6308 20.034 31.2532 19.269 31.2532Z" fill="#0162CA"/>
<path d="M43.6688 30.9045V26.2695C43.6688 25.865 43.3408 25.5371 42.9363 25.5371C42.5318 25.5371 42.2039 25.865 42.2039 26.2695V29.9879C41.2529 29.4956 40.2184 29.1437 39.1275 28.9586V17.7832C39.1275 17.2178 38.6676 16.7578 38.1021 16.7578H36.42L40.6605 10.994L44.8286 16.7578H43.2293C42.6639 16.7578 42.2039 17.2178 42.2039 17.7832V22.8516C42.2039 23.2561 42.5318 23.584 42.9363 23.584C43.3408 23.584 43.6688 23.2561 43.6688 22.8516V18.2227H45.6888C46.0758 18.2227 46.4257 18.0086 46.6019 17.6639C46.778 17.3191 46.7465 16.9102 46.5197 16.5963L41.4945 9.64756C41.3033 9.38301 40.9942 9.22432 40.6678 9.22295C40.6664 9.22295 40.665 9.22295 40.6637 9.22295C40.3388 9.22295 40.0303 9.37891 39.8377 9.64062L34.7251 16.5896C34.4946 16.9029 34.4605 17.3131 34.6359 17.6601C34.8114 18.0071 35.1621 18.2227 35.551 18.2227H37.6626V28.8136C37.5585 28.8105 37.4542 28.8086 37.3493 28.8086C37.0462 28.8086 36.7462 28.8221 36.4494 28.8472C36.4258 28.4351 36.3896 28.0236 36.3362 27.6166C36.239 26.8733 35.5981 26.3128 34.8458 26.3128H31.2253C31.209 26.3128 31.195 26.301 31.1896 26.2828C30.9496 25.4828 30.6276 24.7049 30.2323 23.9707C30.2231 23.9537 30.2247 23.9353 30.2362 23.9237L32.7952 21.3647C33.3272 20.8328 33.3838 19.9833 32.9271 19.3887C32.6764 19.0624 32.4133 18.7463 32.1403 18.4391V8.9998H34.1603C34.5474 8.9998 34.8973 8.78564 35.0734 8.44092C35.2495 8.09619 35.2181 7.68721 34.9912 7.37353L29.9664 0.424609C29.7752 0.160156 29.4661 0.00136719 29.1397 0C29.1383 0 29.1369 0 29.1355 0C28.8106 0 28.5022 0.155957 28.3095 0.417676L23.1969 7.3667C22.9664 7.67998 22.9323 8.09014 23.1077 8.43711C23.2832 8.78418 23.6339 8.99971 24.0228 8.99971H26.1344V17.9758L25.2114 18.8987C25.1999 18.9102 25.1814 18.9117 25.1645 18.9026C24.4305 18.5074 23.6525 18.1854 22.8522 17.9454C22.8341 17.9399 22.8224 17.926 22.8224 17.9097V14.2892C22.8224 13.5368 22.2618 12.8961 21.5186 12.7987C20.0333 12.6043 18.5049 12.6043 17.0197 12.7987C16.2765 12.896 15.7159 13.5367 15.7159 14.2892V17.9097C15.7159 17.926 15.7042 17.9399 15.6859 17.9454C14.8859 18.1854 14.108 18.5073 13.3738 18.9026C13.3568 18.9117 13.3383 18.9103 13.327 18.8987L10.768 16.3397C10.236 15.8077 9.38643 15.7511 8.7919 16.2079C7.59844 17.1248 6.52822 18.1949 5.61123 19.3886C5.15449 19.9832 5.21113 20.8327 5.74307 21.3646L8.30205 23.9236C8.31358 23.9352 8.31514 23.9536 8.30596 23.9706C7.91074 24.7048 7.58867 25.4826 7.34883 26.2827C7.34336 26.3009 7.3294 26.3127 7.31309 26.3127H3.69258C2.94023 26.3127 2.29941 26.8732 2.20215 27.6165C2.10488 28.3591 2.05566 29.1159 2.05566 29.8659C2.05566 30.6159 2.10498 31.3728 2.20215 32.1153C2.29941 32.8586 2.94023 33.4191 3.69258 33.4191H7.31309C7.3294 33.4191 7.34336 33.431 7.34883 33.4491C7.58877 34.2491 7.91074 35.0271 8.30606 35.7612C8.31524 35.7782 8.31367 35.7966 8.30215 35.8081L5.74307 38.3672C5.21113 38.8991 5.15449 39.7486 5.61133 40.3433C6.52832 41.5369 7.59854 42.607 8.79199 43.5239C9.38652 43.9808 10.2361 43.924 10.7681 43.3921L13.3271 40.8331C13.3387 40.8216 13.357 40.82 13.374 40.8292C14.1084 41.2245 14.8862 41.5466 15.6861 41.7863C15.7044 41.7918 15.7161 41.8058 15.7161 41.8221V45.4426C15.7161 46.1949 16.2766 46.8356 17.0199 46.933C17.7626 47.0303 18.5194 47.0795 19.2692 47.0795C20.019 47.0795 20.7759 47.0303 21.5188 46.933C22.2619 46.8355 22.8225 46.1948 22.8225 45.4426V41.8221C22.8225 41.8058 22.8343 41.7918 22.8523 41.7863C23.6523 41.5465 24.4303 41.2245 25.1645 40.8292C25.1815 40.82 25.1999 40.8215 25.2115 40.8331L27.3845 43.0061C28.8618 47.0809 32.7709 50 37.3494 50C43.1919 50 47.9451 45.2468 47.9451 39.4043C47.9451 35.9281 46.2623 32.8377 43.6688 30.9045ZM24.8918 7.53496L29.1324 1.77119L33.3005 7.53496H31.7012C31.1357 7.53496 30.6758 7.99492 30.6758 8.56035V16.9762C30.375 16.7099 30.0656 16.453 29.7467 16.208C29.1522 15.7512 28.3025 15.8078 27.7706 16.3398L27.5994 16.511V8.56035C27.5994 7.99492 27.1395 7.53496 26.574 7.53496H24.8918ZM26.7961 40.3462L26.2473 39.7974C25.7751 39.3252 25.061 39.2215 24.4701 39.5395C23.8229 39.8879 23.137 40.1718 22.4316 40.3833C21.7892 40.576 21.3576 41.1542 21.3576 41.8222V45.4427C21.3576 45.4615 21.3445 45.4786 21.3286 45.4807C19.9687 45.6586 18.5698 45.6586 17.2102 45.4807C17.194 45.4786 17.1811 45.4615 17.1811 45.4427V41.8222C17.1811 41.1542 16.7494 40.576 16.1069 40.3833C15.4017 40.1719 14.7158 39.888 14.0685 39.5395C13.8401 39.4165 13.5935 39.3566 13.3493 39.3566C12.9618 39.3566 12.581 39.5076 12.2913 39.7974L9.73233 42.3563C9.71895 42.3697 9.69736 42.3724 9.68428 42.3624C8.5918 41.5231 7.61231 40.5437 6.77285 39.451C6.76279 39.4379 6.76553 39.4164 6.77881 39.403L9.33779 36.844C9.81006 36.3718 9.91367 35.6575 9.5957 35.0669C9.24727 34.4197 8.96338 33.7339 8.75186 33.0284C8.55918 32.3859 7.98096 31.9543 7.31299 31.9543H3.69258C3.67373 31.9543 3.65674 31.9413 3.65459 31.9252C3.56553 31.2454 3.52041 30.5526 3.52041 29.866C3.52041 29.1794 3.56553 28.4866 3.65459 27.8068C3.65664 27.7907 3.67373 27.7777 3.69258 27.7777H7.31309C7.98106 27.7777 8.55928 27.3461 8.75195 26.7037C8.96348 25.9982 9.24736 25.3124 9.5958 24.6652C9.91377 24.0745 9.81016 23.3604 9.33789 22.8881L6.77891 20.3291C6.76553 20.3157 6.76289 20.2942 6.77295 20.2812C7.6124 19.1886 8.5919 18.209 9.68438 17.3698C9.69746 17.3598 9.71895 17.3625 9.73233 17.3758L12.2913 19.9348C12.7636 20.407 13.4778 20.5105 14.0685 20.1927C14.7156 19.8442 15.4015 19.5604 16.1068 19.3488C16.7493 19.1562 17.1811 18.578 17.1811 17.91V14.2895C17.1811 14.2706 17.194 14.2536 17.2102 14.2515C18.5697 14.0734 19.9689 14.0734 21.3286 14.2515C21.3446 14.2535 21.3577 14.2706 21.3577 14.2895V17.91C21.3577 18.578 21.7894 19.1562 22.4317 19.3488C23.1373 19.5604 23.8231 19.8443 24.4702 20.1927C25.0607 20.5107 25.7751 20.4071 26.2474 19.9349L28.8064 17.3758C28.8198 17.3625 28.8411 17.3599 28.8543 17.3698C29.9469 18.2091 30.9264 19.1887 31.7657 20.2812C31.7758 20.2943 31.7731 20.3158 31.7598 20.3292L29.2008 22.8882C28.7285 23.3604 28.6249 24.0746 28.9429 24.6653C29.2913 25.3125 29.5752 25.9983 29.7867 26.7038C29.9794 27.3462 30.5576 27.7778 31.2256 27.7778H34.8461C34.8649 27.7778 34.8819 27.7909 34.8841 27.8069C34.9389 28.2254 34.9748 28.6488 34.9958 29.0727C30.2824 30.1459 26.7539 34.3707 26.7539 39.4045C26.7537 39.7217 26.7686 40.0357 26.7961 40.3462ZM37.3494 48.5352C32.3147 48.5352 28.2186 44.4391 28.2186 39.4043C28.2186 34.3695 32.3147 30.2734 37.3494 30.2734C42.3842 30.2734 46.4803 34.3695 46.4803 39.4043C46.4803 44.4391 42.3842 48.5352 37.3494 48.5352Z" fill="#0162CA"/>
<path d="M43.9469 38.3037C44.0132 38.7027 44.3901 38.9726 44.7895 38.9061C45.1885 38.8397 45.4582 38.4625 45.3918 38.0635C45.079 36.1819 44.1037 34.458 42.6455 33.2092C41.1705 31.9458 39.2896 31.25 37.3496 31.25C32.8533 31.25 29.1953 34.908 29.1953 39.4043C29.1953 43.9006 32.8533 47.5586 37.3496 47.5586C39.123 47.5586 40.8104 46.9967 42.2295 45.9337C43.6005 44.9066 44.6337 43.4453 45.1389 41.8188C45.2589 41.4325 45.043 41.0221 44.6566 40.9021C44.2704 40.7822 43.8599 40.9981 43.7399 41.3844C43.3256 42.7186 42.4772 43.9178 41.3513 44.7614C40.1877 45.633 38.8039 46.0938 37.3496 46.0938C33.661 46.0938 30.6602 43.0929 30.6602 39.4043C30.6602 35.7157 33.661 32.7148 37.3496 32.7148C38.9404 32.7148 40.4828 33.2855 41.6928 34.3218C42.8899 35.3471 43.6904 36.7612 43.9469 38.3037Z" fill="#0162CA"/>
<path d="M37.3496 33.4474C36.9451 33.4474 36.6172 33.7753 36.6172 34.1798V39.4043C36.6172 39.6729 36.7641 39.9198 37 40.048C37.1093 40.1073 37.2296 40.1367 37.3495 40.1367C37.4887 40.1367 37.6274 40.0972 37.7483 40.0187L41.0776 37.8575C41.417 37.6373 41.5134 37.1837 41.2933 36.8444C41.0729 36.5051 40.6192 36.4087 40.2801 36.6287L38.0819 38.0556V34.1798C38.082 33.7753 37.7541 33.4474 37.3496 33.4474Z" fill="#0162CA"/>
</g>
<defs>
<clipPath id="clip0_768_4590">
<rect width="50" height="50" fill="white"/>
</clipPath>
</defs>
</svg>
