<svg width="45" height="45" viewBox="0 0 45 45" fill="none" xmlns="http://www.w3.org/2000/svg">
<g clip-path="url(#clip0_768_4640)">
<path d="M13.4999 4.50049H3.75V6.00047H13.4999V4.50049Z" fill="#0162CA"/>
<path d="M13.4999 7.50049H3.75V9.00047H13.4999V7.50049Z" fill="#0162CA"/>
<path d="M10.4999 10.5005H3.75V12.0005H10.4999V10.5005Z" fill="#0162CA"/>
<path d="M10.4999 13.5004H3.75V15.0003H10.4999V13.5004Z" fill="#0162CA"/>
<path d="M44.9994 43.5H0V45H44.9994V43.5Z" fill="#0162CA"/>
<path d="M43.421 6.41528L40.4211 0.415359C40.2361 0.0446761 39.7858 -0.105884 39.4151 0.0790819C39.4149 0.0791757 39.4148 0.0792694 39.4146 0.0793632L33.4146 3.07933C33.044 3.26448 32.8935 3.71513 33.0786 4.08581C33.2638 4.4565 33.7145 4.60696 34.0851 4.42181L38.4306 2.25059L37.2448 5.63604C32.0331 20.4791 18.6093 30.8924 2.93652 32.2502L3.06402 33.7502C19.3273 32.3413 33.2562 21.5343 38.6616 6.13104L39.8721 2.67208L42.0785 7.08577C42.2637 7.45646 42.7143 7.60692 43.085 7.42177C43.4558 7.23662 43.6062 6.78606 43.421 6.41528Z" fill="#0162CA"/>
<path d="M8.99993 36.0001H3.74999C3.33581 36.0001 3 36.3359 3 36.7501V41.2501C3 41.6642 3.33581 42 3.74999 42H8.99993C9.41411 42 9.74992 41.6642 9.74992 41.2501V36.7501C9.74992 36.3359 9.41411 36.0001 8.99993 36.0001ZM8.24993 40.5001H4.49998V37.5001H8.24993V40.5001Z" fill="#0162CA"/>
<path d="M17.2499 33.7501H12C11.5858 33.7501 11.25 34.0859 11.25 34.5001V41.25C11.25 41.6642 11.5858 42 12 42H17.2499C17.6641 42 17.9999 41.6642 17.9999 41.25V34.5001C17.9999 34.0859 17.6641 33.7501 17.2499 33.7501ZM16.4999 40.5H12.75V35.2501H16.4999V40.5Z" fill="#0162CA"/>
<path d="M25.4999 30.0002H20.25C19.8358 30.0002 19.5 30.3361 19.5 30.7502V41.2501C19.5 41.6643 19.8358 42.0001 20.25 42.0001H25.4999C25.9141 42.0001 26.2499 41.6643 26.2499 41.2501V30.7502C26.2499 30.3361 25.9141 30.0002 25.4999 30.0002ZM24.7499 40.5001H21V31.5002H24.7499V40.5001Z" fill="#0162CA"/>
<path d="M33.7499 24.7502H28.5C28.0858 24.7502 27.75 25.0861 27.75 25.5002V41.25C27.75 41.6642 28.0858 42 28.5 42H33.7499C34.1641 42 34.4999 41.6642 34.4999 41.25V25.5002C34.4999 25.0861 34.1641 24.7502 33.7499 24.7502ZM32.9999 40.5H29.25V26.2502H32.9999V40.5Z" fill="#0162CA"/>
<path d="M41.9999 14.2504H36.75C36.3358 14.2504 36 14.5862 36 15.0004V41.25C36 41.6642 36.3358 42 36.75 42H41.9999C42.4141 42 42.7499 41.6642 42.7499 41.25V15.0004C42.7499 14.5862 42.4141 14.2504 41.9999 14.2504ZM41.2499 40.5H37.5V15.7503H41.2499V40.5Z" fill="#0162CA"/>
</g>
<defs>
<clipPath id="clip0_768_4640">
<rect width="45" height="45" fill="white"/>
</clipPath>
</defs>
</svg>
